G04 #@! TF.GenerationSoftware,KiCad,Pcbnew,9.0.6*
G04 #@! TF.CreationDate,2025-12-21T12:29:53+08:00*
G04 #@! TF.ProjectId,pico_rx,7069636f-5f72-4782-9e6b-696361645f70,rev?*
G04 #@! TF.SameCoordinates,Original*
G04 #@! TF.FileFunction,Copper,L2,Bot*
G04 #@! TF.FilePolarity,Positive*
%FSLAX46Y46*%
G04 Gerber Fmt 4.6, Leading zero omitted, Abs format (unit mm)*
G04 Created by KiCad (PCBNEW 9.0.6) date 2025-12-21 12:29:53*
%MOMM*%
%LPD*%
G01*
G04 APERTURE LIST*
G04 Aperture macros list*
%AMRoundRect*
0 Rectangle with rounded corners*
0 $1 Rounding radius*
0 $2 $3 $4 $5 $6 $7 $8 $9 X,Y pos of 4 corners*
0 Add a 4 corners polygon primitive as box body*
4,1,4,$2,$3,$4,$5,$6,$7,$8,$9,$2,$3,0*
0 Add four circle primitives for the rounded corners*
1,1,$1+$1,$2,$3*
1,1,$1+$1,$4,$5*
1,1,$1+$1,$6,$7*
1,1,$1+$1,$8,$9*
0 Add four rect primitives between the rounded corners*
20,1,$1+$1,$2,$3,$4,$5,0*
20,1,$1+$1,$4,$5,$6,$7,0*
20,1,$1+$1,$6,$7,$8,$9,0*
20,1,$1+$1,$8,$9,$2,$3,0*%
G04 Aperture macros list end*
G04 #@! TA.AperFunction,ComponentPad*
%ADD10C,2.000000*%
G04 #@! TD*
G04 #@! TA.AperFunction,ComponentPad*
%ADD11R,1.700000X1.700000*%
G04 #@! TD*
G04 #@! TA.AperFunction,ComponentPad*
%ADD12O,1.700000X1.700000*%
G04 #@! TD*
G04 #@! TA.AperFunction,ComponentPad*
%ADD13C,6.400000*%
G04 #@! TD*
G04 #@! TA.AperFunction,ComponentPad*
%ADD14C,2.100000*%
G04 #@! TD*
G04 #@! TA.AperFunction,ComponentPad*
%ADD15C,1.750000*%
G04 #@! TD*
G04 #@! TA.AperFunction,ComponentPad*
%ADD16RoundRect,0.200100X-0.949900X0.949900X-0.949900X-0.949900X0.949900X-0.949900X0.949900X0.949900X0*%
G04 #@! TD*
G04 #@! TA.AperFunction,ComponentPad*
%ADD17C,2.200000*%
G04 #@! TD*
G04 #@! TA.AperFunction,ComponentPad*
%ADD18RoundRect,0.250000X-0.550000X-0.550000X0.550000X-0.550000X0.550000X0.550000X-0.550000X0.550000X0*%
G04 #@! TD*
G04 #@! TA.AperFunction,ComponentPad*
%ADD19C,1.600000*%
G04 #@! TD*
G04 #@! TA.AperFunction,ComponentPad*
%ADD20R,2.000000X2.000000*%
G04 #@! TD*
G04 #@! TA.AperFunction,ComponentPad*
%ADD21R,3.200000X2.000000*%
G04 #@! TD*
G04 #@! TA.AperFunction,ComponentPad*
%ADD22C,1.700000*%
G04 #@! TD*
G04 #@! TA.AperFunction,ViaPad*
%ADD23C,0.800000*%
G04 #@! TD*
G04 #@! TA.AperFunction,Conductor*
%ADD24C,0.300000*%
G04 #@! TD*
G04 #@! TA.AperFunction,Conductor*
%ADD25C,0.500000*%
G04 #@! TD*
G04 APERTURE END LIST*
D10*
X174600000Y-130460000D03*
X169600000Y-135460000D03*
X169600000Y-132460000D03*
X169600000Y-125460000D03*
X169600000Y-128460000D03*
D11*
X116290000Y-85960000D03*
D12*
X118830000Y-85960000D03*
X121370000Y-85960000D03*
X123910000Y-85960000D03*
D13*
X174600000Y-82460000D03*
D14*
X83452500Y-95985000D03*
X83452500Y-88975000D03*
D15*
X80962500Y-94735000D03*
X80962500Y-90235000D03*
D12*
X79970000Y-122850000D03*
X82510000Y-122850000D03*
D11*
X85050000Y-122850000D03*
D12*
X87590000Y-122850000D03*
X90130000Y-122850000D03*
X92670000Y-122850000D03*
X95210000Y-122850000D03*
D11*
X97750000Y-122850000D03*
D12*
X100290000Y-122850000D03*
X102830000Y-122850000D03*
X105370000Y-122850000D03*
X107910000Y-122850000D03*
D11*
X110450000Y-122850000D03*
D12*
X112990000Y-122850000D03*
X115530000Y-122850000D03*
X118070000Y-122850000D03*
X120610000Y-122850000D03*
D11*
X123150000Y-122850000D03*
D12*
X125690000Y-122850000D03*
X128230000Y-122850000D03*
X128230000Y-105070000D03*
X125690000Y-105070000D03*
D11*
X123150000Y-105070000D03*
D12*
X120610000Y-105070000D03*
X118070000Y-105070000D03*
X115530000Y-105070000D03*
X112990000Y-105070000D03*
D11*
X110450000Y-105070000D03*
D12*
X107910000Y-105070000D03*
X105370000Y-105070000D03*
X102830000Y-105070000D03*
X100290000Y-105070000D03*
D11*
X97750000Y-105070000D03*
D12*
X95210000Y-105070000D03*
X92670000Y-105070000D03*
X90130000Y-105070000D03*
X87590000Y-105070000D03*
D11*
X85050000Y-105070000D03*
D12*
X82510000Y-105070000D03*
X79970000Y-105070000D03*
X128000000Y-116500000D03*
D11*
X128000000Y-113960000D03*
D12*
X128000000Y-111420000D03*
D16*
X173675000Y-98960000D03*
D17*
X176225000Y-96410000D03*
X171125000Y-96410000D03*
X176225000Y-101510000D03*
X171125000Y-101510000D03*
D14*
X83452500Y-139485000D03*
X83452500Y-132475000D03*
D15*
X80962500Y-138235000D03*
X80962500Y-133735000D03*
D18*
X160894888Y-130460000D03*
D19*
X163394888Y-130460000D03*
D13*
X81600000Y-82460000D03*
D20*
X161100000Y-109460000D03*
D10*
X161100000Y-114460000D03*
X161100000Y-111960000D03*
D21*
X168600000Y-106360000D03*
X168600000Y-117560000D03*
D10*
X175600000Y-114460000D03*
X175600000Y-109460000D03*
D11*
X173325000Y-139460000D03*
D22*
X175865000Y-139460000D03*
D13*
X174600000Y-145460000D03*
X81600000Y-145460000D03*
D23*
X101000000Y-146500000D03*
X105000000Y-146500000D03*
X108500000Y-146500000D03*
X112000000Y-146500000D03*
X115500000Y-146500000D03*
X119500000Y-146500000D03*
X176500000Y-122000000D03*
X173500000Y-122000000D03*
X170000000Y-122000000D03*
X165000000Y-122000000D03*
X161500000Y-122000000D03*
X163000000Y-105500000D03*
X159000000Y-105500000D03*
X159000000Y-103000000D03*
X163000000Y-103000000D03*
X167000000Y-103000000D03*
X167000000Y-99000000D03*
X176500000Y-93500000D03*
X176000000Y-88000000D03*
X168500000Y-82000000D03*
X163000000Y-82000000D03*
X157500000Y-82000000D03*
X150000000Y-82000000D03*
X133000000Y-87500000D03*
X137500000Y-85500000D03*
X135000000Y-85500000D03*
X131000000Y-94000000D03*
X133500000Y-94000000D03*
X136500000Y-94000000D03*
X149500000Y-108000000D03*
X152000000Y-110000000D03*
X150000000Y-111500000D03*
X133000000Y-118000000D03*
X133000000Y-114500000D03*
X133000000Y-110500000D03*
X133000000Y-106500000D03*
X133000000Y-103000000D03*
X133000000Y-99000000D03*
X123000000Y-110500000D03*
X125500000Y-109000000D03*
X120500000Y-109000000D03*
X123500000Y-107500000D03*
X118000000Y-107500000D03*
X113500000Y-116000000D03*
X106500000Y-116000000D03*
X113500000Y-112000000D03*
X106500000Y-112000000D03*
X125500000Y-120000000D03*
X119000000Y-120000000D03*
X113000000Y-120000000D03*
X106500000Y-120000000D03*
X100000000Y-120000000D03*
X93500000Y-120000000D03*
X86500000Y-120000000D03*
X80000000Y-120000000D03*
X97000000Y-107500000D03*
X92500000Y-107500000D03*
X88000000Y-107500000D03*
X84000000Y-107500000D03*
X80000000Y-107500000D03*
X99500000Y-115000000D03*
X96500000Y-115000000D03*
X93500000Y-115000000D03*
X99500000Y-112500000D03*
X96500000Y-112500000D03*
X93500000Y-112500000D03*
X92000000Y-146000000D03*
X89500000Y-146000000D03*
X87000000Y-146000000D03*
X92000000Y-143000000D03*
X89500000Y-143000000D03*
X87000000Y-143000000D03*
X92000000Y-139500000D03*
X89500000Y-139500000D03*
X87000000Y-139500000D03*
X153500000Y-128000000D03*
X149000000Y-131000000D03*
X153500000Y-131000000D03*
X155500000Y-139500000D03*
X161000000Y-139500000D03*
X167000000Y-139500000D03*
X167000000Y-147000000D03*
X161000000Y-147000000D03*
X155500000Y-147000000D03*
X167000000Y-143000000D03*
X161000000Y-143000000D03*
X155500000Y-143000000D03*
X147134591Y-90365409D03*
X150500000Y-121000000D03*
X155500000Y-111000000D03*
X153500000Y-125500000D03*
X157000000Y-127500000D03*
X123000000Y-131500000D03*
X144000000Y-132500000D03*
X142000000Y-133000000D03*
X95000000Y-137500000D03*
X144000000Y-131500000D03*
X141500000Y-132000000D03*
X93000000Y-130500000D03*
X144500000Y-122000000D03*
X143500000Y-122400000D03*
X145191459Y-123150000D03*
X145500000Y-93000000D03*
X145495794Y-116060000D03*
X142145156Y-124946379D03*
X144000000Y-116500000D03*
X146000000Y-107000000D03*
X141207108Y-125292892D03*
X141500000Y-107000000D03*
X140500000Y-126000000D03*
X152500000Y-100000000D03*
X159500000Y-95500000D03*
X163500000Y-91000000D03*
X140500000Y-89000000D03*
X139000000Y-96000000D03*
X144000000Y-107500000D03*
X142000000Y-96000000D03*
X145500000Y-96000000D03*
X139500000Y-98500000D03*
X144500000Y-98500000D03*
X142500000Y-92325000D03*
X154500000Y-92000000D03*
X140500000Y-142000000D03*
X142000000Y-129000000D03*
X83530331Y-128469669D03*
X141489094Y-133933488D03*
X146500000Y-139000000D03*
X152000000Y-135000000D03*
X131000000Y-145000000D03*
X104000000Y-108000000D03*
X111500000Y-138500000D03*
X123000000Y-139500000D03*
X111000000Y-140000000D03*
X119000000Y-142500000D03*
X113898959Y-90898959D03*
X95500000Y-86500000D03*
D24*
X147134591Y-90365409D02*
X147134591Y-84134591D01*
X147134591Y-84134591D02*
X146500000Y-83500000D01*
X146500000Y-83500000D02*
X134000000Y-83500000D01*
X134000000Y-83500000D02*
X128230000Y-89270000D01*
X128230000Y-89270000D02*
X128230000Y-105070000D01*
X155500000Y-127500000D02*
X153500000Y-125500000D01*
X157000000Y-127500000D02*
X155500000Y-127500000D01*
X149104260Y-117395740D02*
X155500000Y-111000000D01*
X150500000Y-121000000D02*
X149104260Y-119604260D01*
X149104260Y-119604260D02*
X149104260Y-117395740D01*
X142000000Y-133000000D02*
X124500000Y-133000000D01*
X124500000Y-133000000D02*
X123000000Y-131500000D01*
X161100000Y-114460000D02*
X161100000Y-115900000D01*
X161100000Y-115900000D02*
X144500000Y-132500000D01*
X144500000Y-132500000D02*
X144000000Y-132500000D01*
X112990000Y-105070000D02*
X134671000Y-126751000D01*
X134671000Y-126751000D02*
X141402610Y-126751000D01*
X141402610Y-126751000D02*
X142896156Y-125257454D01*
X142456231Y-124195379D02*
X142456231Y-122043769D01*
X142896156Y-125257454D02*
X142896156Y-124635304D01*
X142896156Y-124635304D02*
X142456231Y-124195379D01*
X142456231Y-122043769D02*
X155040000Y-109460000D01*
X155040000Y-109460000D02*
X161100000Y-109460000D01*
X110450000Y-105070000D02*
X110450000Y-115050000D01*
X110450000Y-115050000D02*
X108000000Y-117500000D01*
X90400000Y-117500000D02*
X94500000Y-117500000D01*
X97750000Y-122850000D02*
X97750000Y-120750000D01*
X97750000Y-120750000D02*
X94500000Y-117500000D01*
X123150000Y-122850000D02*
X117800000Y-117500000D01*
X117800000Y-117500000D02*
X108000000Y-117500000D01*
X85050000Y-122850000D02*
X90400000Y-117500000D01*
X94500000Y-117500000D02*
X108000000Y-117500000D01*
X108000000Y-117500000D02*
X110450000Y-119950000D01*
X110450000Y-119950000D02*
X110450000Y-122850000D01*
X151688925Y-134249000D02*
X150500000Y-135437925D01*
X99000000Y-143500000D02*
X96000000Y-140500000D01*
X150500000Y-135437925D02*
X150500000Y-143500000D01*
X175600000Y-114460000D02*
X174938018Y-114460000D01*
X174938018Y-114460000D02*
X155149018Y-134249000D01*
X150500000Y-143500000D02*
X99000000Y-143500000D01*
X155149018Y-134249000D02*
X151688925Y-134249000D01*
X96000000Y-140500000D02*
X95000000Y-139500000D01*
X95000000Y-139500000D02*
X95000000Y-137500000D01*
X145942459Y-122838925D02*
X145942459Y-129557541D01*
X145103534Y-122000000D02*
X145942459Y-122838925D01*
X144500000Y-122000000D02*
X145103534Y-122000000D01*
X145942459Y-129557541D02*
X144000000Y-131500000D01*
X141500000Y-132000000D02*
X140000000Y-130500000D01*
X140000000Y-130500000D02*
X93000000Y-130500000D01*
X143500000Y-122400000D02*
X143500000Y-125791480D01*
X143500000Y-125791480D02*
X141543480Y-127748000D01*
X141543480Y-127748000D02*
X141481404Y-127748000D01*
X140292480Y-128999000D02*
X90499000Y-128999000D01*
X90499000Y-128999000D02*
X90130000Y-128630000D01*
X141481404Y-127748000D02*
X140748000Y-128481405D01*
X90130000Y-128630000D02*
X90130000Y-122850000D01*
X140748000Y-128481405D02*
X140748000Y-128543480D01*
X140748000Y-128543480D02*
X140292480Y-128999000D01*
X141249000Y-128688925D02*
X141249000Y-128751000D01*
X141688925Y-128249000D02*
X141249000Y-128688925D01*
X141751000Y-128249000D02*
X141688925Y-128249000D01*
X145191459Y-124808541D02*
X141751000Y-128249000D01*
X141249000Y-128751000D02*
X140500000Y-129500000D01*
X145191459Y-123150000D02*
X145191459Y-124808541D01*
X87590000Y-128590000D02*
X87590000Y-122850000D01*
X140500000Y-129500000D02*
X88500000Y-129500000D01*
X88500000Y-129500000D02*
X87590000Y-128590000D01*
X147500000Y-107000000D02*
X147500000Y-95000000D01*
X145000000Y-115564206D02*
X145000000Y-109500000D01*
X145000000Y-109500000D02*
X147500000Y-107000000D01*
X145495794Y-116060000D02*
X145000000Y-115564206D01*
X147500000Y-95000000D02*
X145500000Y-93000000D01*
X137500000Y-120301223D02*
X142145156Y-124946379D01*
X137500000Y-117000000D02*
X137500000Y-120301223D01*
X143500000Y-117000000D02*
X137500000Y-117000000D01*
X144000000Y-116500000D02*
X143500000Y-117000000D01*
X137000000Y-121500000D02*
X140500000Y-125000000D01*
X137000000Y-108500000D02*
X137000000Y-121500000D01*
X146000000Y-107000000D02*
X144500000Y-108500000D01*
X144500000Y-108500000D02*
X137000000Y-108500000D01*
X140500000Y-125000000D02*
X140792892Y-125292892D01*
X140792892Y-125292892D02*
X141207108Y-125292892D01*
X136500000Y-122000000D02*
X140500000Y-126000000D01*
X136500000Y-108000000D02*
X136500000Y-122000000D01*
X141500000Y-107000000D02*
X140500000Y-108000000D01*
X140500000Y-108000000D02*
X136500000Y-108000000D01*
D25*
X152500000Y-100000000D02*
X154010000Y-101510000D01*
X154010000Y-101510000D02*
X171125000Y-101510000D01*
D24*
X163500000Y-91000000D02*
X159500000Y-95000000D01*
X159500000Y-95000000D02*
X159500000Y-95500000D01*
X139000000Y-89000000D02*
X140500000Y-89000000D01*
X139000000Y-96000000D02*
X139000000Y-89000000D01*
X138749000Y-102249000D02*
X144000000Y-107500000D01*
X140937925Y-96000000D02*
X138749000Y-98188925D01*
X142000000Y-96000000D02*
X140937925Y-96000000D01*
X138749000Y-98188925D02*
X138749000Y-102249000D01*
D25*
X144500000Y-97000000D02*
X145500000Y-96000000D01*
X144500000Y-98500000D02*
X144500000Y-97000000D01*
X139500000Y-98500000D02*
X144500000Y-98500000D01*
X142825000Y-92000000D02*
X142500000Y-92325000D01*
X154500000Y-92000000D02*
X142825000Y-92000000D01*
D24*
X140500000Y-142000000D02*
X146500000Y-142000000D01*
X146500000Y-142000000D02*
X147000000Y-141500000D01*
X147000000Y-141500000D02*
X147500000Y-141500000D01*
X147500000Y-141500000D02*
X147500000Y-138000000D01*
X147500000Y-138000000D02*
X143000000Y-133500000D01*
X143000000Y-133500000D02*
X143000000Y-130000000D01*
X143000000Y-130000000D02*
X142000000Y-129000000D01*
X141489094Y-133933488D02*
X140422582Y-135000000D01*
X140422582Y-135000000D02*
X89500000Y-135000000D01*
X89500000Y-135000000D02*
X89500000Y-134439338D01*
X89500000Y-134439338D02*
X83530331Y-128469669D01*
X80962500Y-133735000D02*
X81309000Y-133388500D01*
X81309000Y-133388500D02*
X81309000Y-122352529D01*
X81309000Y-122352529D02*
X93161529Y-110500000D01*
X107910000Y-110090000D02*
X107910000Y-105070000D01*
X93161529Y-110500000D02*
X107500000Y-110500000D01*
X107500000Y-110500000D02*
X107910000Y-110090000D01*
X146500000Y-139000000D02*
X143500000Y-136000000D01*
X82510000Y-128490000D02*
X82510000Y-122850000D01*
X143500000Y-136000000D02*
X88500000Y-136000000D01*
X88500000Y-136000000D02*
X88500000Y-134501413D01*
X88500000Y-134501413D02*
X82779331Y-128780744D01*
X82779331Y-128780744D02*
X82779331Y-128779331D01*
X82779331Y-128779331D02*
X82500000Y-128500000D01*
X82500000Y-128500000D02*
X82510000Y-128490000D01*
D25*
X152000000Y-148709000D02*
X129500000Y-148709000D01*
X152000000Y-135000000D02*
X152000000Y-148709000D01*
X171351000Y-148709000D02*
X152000000Y-148709000D01*
D24*
X129500000Y-146500000D02*
X129500000Y-148709000D01*
X131000000Y-145000000D02*
X129500000Y-146500000D01*
X103500000Y-107500000D02*
X102720000Y-107500000D01*
X104000000Y-108000000D02*
X103500000Y-107500000D01*
X102720000Y-107500000D02*
X100290000Y-105070000D01*
X112500000Y-139500000D02*
X111500000Y-138500000D01*
X123000000Y-139500000D02*
X112500000Y-139500000D01*
X119000000Y-142500000D02*
X118000000Y-141500000D01*
X118000000Y-141500000D02*
X112500000Y-141500000D01*
X112500000Y-141500000D02*
X111000000Y-140000000D01*
D25*
X95500000Y-86500000D02*
X109500000Y-86500000D01*
X109500000Y-86500000D02*
X113898959Y-90898959D01*
X116290000Y-85960000D02*
X116290000Y-89710000D01*
X116290000Y-89710000D02*
X110450000Y-95550000D01*
X110450000Y-95550000D02*
X110450000Y-105070000D01*
X121370000Y-85960000D02*
X118070000Y-89260000D01*
X118070000Y-89260000D02*
X118070000Y-105070000D01*
X123910000Y-85960000D02*
X120610000Y-89260000D01*
X120610000Y-89260000D02*
X120610000Y-105070000D01*
X161100000Y-111960000D02*
X173100000Y-111960000D01*
X173100000Y-111960000D02*
X175600000Y-109460000D01*
X171125000Y-96410000D02*
X171125000Y-101510000D01*
X81600000Y-145460000D02*
X78669000Y-142529000D01*
X78669000Y-142529000D02*
X78669000Y-95831000D01*
X78669000Y-95831000D02*
X79765000Y-94735000D01*
X79765000Y-94735000D02*
X80962500Y-94735000D01*
X81600000Y-82460000D02*
X78500000Y-85560000D01*
X78500000Y-85560000D02*
X78500000Y-93500000D01*
X78500000Y-93500000D02*
X79000000Y-94000000D01*
X81600000Y-145460000D02*
X81600000Y-144600000D01*
X81600000Y-144600000D02*
X80962500Y-143962500D01*
X80962500Y-143962500D02*
X80962500Y-138235000D01*
X174600000Y-145460000D02*
X171351000Y-148709000D01*
X129500000Y-148709000D02*
X84849000Y-148709000D01*
X84849000Y-148709000D02*
X81600000Y-145460000D01*
X174600000Y-130460000D02*
X177500000Y-127560000D01*
X177500000Y-127560000D02*
X177500000Y-111360000D01*
X177500000Y-111360000D02*
X175600000Y-109460000D01*
X174600000Y-130460000D02*
X175865000Y-131725000D01*
X175865000Y-131725000D02*
X175865000Y-139460000D01*
X174600000Y-145460000D02*
X176000000Y-144060000D01*
X176000000Y-144060000D02*
X176000000Y-139595000D01*
X176000000Y-139595000D02*
X175865000Y-139460000D01*
X176225000Y-101510000D02*
X176225000Y-108835000D01*
X176225000Y-108835000D02*
X175600000Y-109460000D01*
X176225000Y-96410000D02*
X171125000Y-96410000D01*
X171125000Y-101510000D02*
X176225000Y-101510000D01*
X176225000Y-96410000D02*
X176225000Y-101510000D01*
X174600000Y-82460000D02*
X177849000Y-85709000D01*
X177849000Y-85709000D02*
X177849000Y-94786000D01*
X177849000Y-94786000D02*
X176225000Y-96410000D01*
X81600000Y-82460000D02*
X84849000Y-79211000D01*
X84849000Y-79211000D02*
X171351000Y-79211000D01*
X171351000Y-79211000D02*
X174600000Y-82460000D01*
X79000000Y-94000000D02*
X79735000Y-94735000D01*
X79735000Y-94735000D02*
X80962500Y-94735000D01*
X85050000Y-105070000D02*
X80962500Y-100982500D01*
X80962500Y-100982500D02*
X80962500Y-94735000D01*
G04 #@! TA.AperFunction,Conductor*
G36*
X85300000Y-124200000D02*
G01*
X85947828Y-124200000D01*
X85947844Y-124199999D01*
X86007372Y-124193598D01*
X86007379Y-124193596D01*
X86142086Y-124143354D01*
X86142093Y-124143350D01*
X86257187Y-124057190D01*
X86257190Y-124057187D01*
X86343350Y-123942093D01*
X86343354Y-123942086D01*
X86392422Y-123810529D01*
X86434293Y-123754595D01*
X86499757Y-123730178D01*
X86568030Y-123745030D01*
X86596285Y-123766181D01*
X86710208Y-123880104D01*
X86882184Y-124005051D01*
X86882188Y-124005053D01*
X86886126Y-124007914D01*
X86885146Y-124009262D01*
X86927160Y-124055690D01*
X86939500Y-124109617D01*
X86939500Y-128654069D01*
X86956063Y-128737334D01*
X86964499Y-128779744D01*
X87013535Y-128898127D01*
X87022341Y-128911306D01*
X87084726Y-129004673D01*
X88085327Y-130005274D01*
X88085330Y-130005276D01*
X88171447Y-130062817D01*
X88171448Y-130062818D01*
X88171447Y-130062818D01*
X88191871Y-130076464D01*
X88191872Y-130076464D01*
X88191873Y-130076465D01*
X88310256Y-130125501D01*
X88310260Y-130125501D01*
X88310261Y-130125502D01*
X88435928Y-130150500D01*
X88435931Y-130150500D01*
X92000284Y-130150500D01*
X92067323Y-130170185D01*
X92113078Y-130222989D01*
X92123022Y-130292147D01*
X92121901Y-130298692D01*
X92099500Y-130411306D01*
X92099500Y-130588695D01*
X92134103Y-130762658D01*
X92134106Y-130762667D01*
X92201983Y-130926540D01*
X92201990Y-130926553D01*
X92300535Y-131074034D01*
X92300538Y-131074038D01*
X92425961Y-131199461D01*
X92425965Y-131199464D01*
X92573446Y-131298009D01*
X92573459Y-131298016D01*
X92649062Y-131329331D01*
X92737334Y-131365894D01*
X92737336Y-131365894D01*
X92737341Y-131365896D01*
X92911304Y-131400499D01*
X92911307Y-131400500D01*
X92911309Y-131400500D01*
X93088693Y-131400500D01*
X93088694Y-131400499D01*
X93146682Y-131388964D01*
X93262658Y-131365896D01*
X93262661Y-131365894D01*
X93262666Y-131365894D01*
X93426547Y-131298013D01*
X93574035Y-131199464D01*
X93574038Y-131199461D01*
X93586681Y-131186819D01*
X93648004Y-131153334D01*
X93674362Y-131150500D01*
X122000284Y-131150500D01*
X122067323Y-131170185D01*
X122113078Y-131222989D01*
X122123022Y-131292147D01*
X122121901Y-131298692D01*
X122099500Y-131411306D01*
X122099500Y-131588695D01*
X122134103Y-131762658D01*
X122134106Y-131762667D01*
X122201983Y-131926540D01*
X122201990Y-131926553D01*
X122300535Y-132074034D01*
X122300538Y-132074038D01*
X122425961Y-132199461D01*
X122425965Y-132199464D01*
X122573446Y-132298009D01*
X122573459Y-132298016D01*
X122679426Y-132341908D01*
X122737334Y-132365894D01*
X122737336Y-132365894D01*
X122737341Y-132365896D01*
X122911304Y-132400499D01*
X122911307Y-132400500D01*
X122911309Y-132400500D01*
X122929192Y-132400500D01*
X122996231Y-132420185D01*
X123016873Y-132436819D01*
X124085324Y-133505271D01*
X124085327Y-133505274D01*
X124085330Y-133505276D01*
X124173321Y-133564069D01*
X124191873Y-133576465D01*
X124310256Y-133625501D01*
X124310260Y-133625501D01*
X124310261Y-133625502D01*
X124435928Y-133650500D01*
X124435931Y-133650500D01*
X140476147Y-133650500D01*
X140492523Y-133655308D01*
X140509589Y-133655095D01*
X140525351Y-133664948D01*
X140543186Y-133670185D01*
X140554361Y-133683081D01*
X140568836Y-133692130D01*
X140576770Y-133708943D01*
X140588941Y-133722989D01*
X140591528Y-133740216D01*
X140598654Y-133755317D01*
X140598070Y-133783780D01*
X140599096Y-133790608D01*
X140598561Y-133794686D01*
X140588594Y-133844797D01*
X140588594Y-133870766D01*
X140587543Y-133878788D01*
X140576564Y-133903648D01*
X140568909Y-133929719D01*
X140560373Y-133940311D01*
X140559317Y-133942703D01*
X140557455Y-133943932D01*
X140552275Y-133950361D01*
X140189455Y-134313181D01*
X140128132Y-134346666D01*
X140101774Y-134349500D01*
X90247138Y-134349500D01*
X90180099Y-134329815D01*
X90134344Y-134277011D01*
X90127362Y-134255397D01*
X90127270Y-134255426D01*
X90125691Y-134250223D01*
X90125521Y-134249695D01*
X90125501Y-134249595D01*
X90125501Y-134249594D01*
X90076465Y-134131211D01*
X90071133Y-134123231D01*
X90035186Y-134069432D01*
X90005278Y-134024670D01*
X90005272Y-134024663D01*
X84467150Y-128486541D01*
X84433665Y-128425218D01*
X84430831Y-128398860D01*
X84430831Y-128380975D01*
X84430830Y-128380973D01*
X84396227Y-128207010D01*
X84396224Y-128207001D01*
X84328347Y-128043128D01*
X84328340Y-128043115D01*
X84229795Y-127895634D01*
X84229792Y-127895630D01*
X84104369Y-127770207D01*
X84104365Y-127770204D01*
X83956884Y-127671659D01*
X83956871Y-127671652D01*
X83792998Y-127603775D01*
X83792989Y-127603772D01*
X83619025Y-127569169D01*
X83619022Y-127569169D01*
X83441640Y-127569169D01*
X83441635Y-127569169D01*
X83308691Y-127595613D01*
X83239099Y-127589386D01*
X83183922Y-127546522D01*
X83160678Y-127480633D01*
X83160500Y-127473996D01*
X83160500Y-124109617D01*
X83180185Y-124042578D01*
X83214592Y-124008902D01*
X83213874Y-124007914D01*
X83217811Y-124005053D01*
X83217816Y-124005051D01*
X83389792Y-123880104D01*
X83503717Y-123766178D01*
X83565036Y-123732696D01*
X83634728Y-123737680D01*
X83690662Y-123779551D01*
X83707577Y-123810528D01*
X83756646Y-123942088D01*
X83756649Y-123942093D01*
X83842809Y-124057187D01*
X83842812Y-124057190D01*
X83957906Y-124143350D01*
X83957913Y-124143354D01*
X84092620Y-124193596D01*
X84092627Y-124193598D01*
X84152155Y-124199999D01*
X84152172Y-124200000D01*
X84800000Y-124200000D01*
X84800000Y-123294560D01*
X84853147Y-123325245D01*
X84982857Y-123360000D01*
X85117143Y-123360000D01*
X85246853Y-123325245D01*
X85300000Y-123294560D01*
X85300000Y-124200000D01*
G37*
G04 #@! TD.AperFunction*
G04 #@! TA.AperFunction,Conductor*
G36*
X159542540Y-110130185D02*
G01*
X159588295Y-110182989D01*
X159599501Y-110234500D01*
X159599501Y-110507876D01*
X159605908Y-110567483D01*
X159656202Y-110702328D01*
X159656206Y-110702335D01*
X159742452Y-110817544D01*
X159742453Y-110817544D01*
X159742454Y-110817546D01*
X159785943Y-110850102D01*
X159860599Y-110905990D01*
X159902469Y-110961924D01*
X159907453Y-111031615D01*
X159886605Y-111078141D01*
X159817087Y-111173824D01*
X159709897Y-111384197D01*
X159636934Y-111608752D01*
X159600000Y-111841947D01*
X159600000Y-112078052D01*
X159636934Y-112311247D01*
X159709897Y-112535802D01*
X159817087Y-112746174D01*
X159877338Y-112829104D01*
X159877340Y-112829105D01*
X160617037Y-112089408D01*
X160634075Y-112152993D01*
X160699901Y-112267007D01*
X160792993Y-112360099D01*
X160907007Y-112425925D01*
X160970590Y-112442962D01*
X160224280Y-113189271D01*
X160215105Y-113232947D01*
X160178739Y-113274615D01*
X160122490Y-113315482D01*
X159955485Y-113482487D01*
X159955485Y-113482488D01*
X159955483Y-113482490D01*
X159895862Y-113564550D01*
X159816657Y-113673566D01*
X159709433Y-113884003D01*
X159636446Y-114108631D01*
X159599500Y-114341902D01*
X159599500Y-114578097D01*
X159636446Y-114811368D01*
X159709433Y-115035996D01*
X159789994Y-115194104D01*
X159816657Y-115246433D01*
X159955483Y-115437510D01*
X160122490Y-115604517D01*
X160209515Y-115667745D01*
X160252180Y-115723074D01*
X160258159Y-115792688D01*
X160225553Y-115854482D01*
X160224310Y-115855743D01*
X146804640Y-129275414D01*
X146743317Y-129308899D01*
X146673625Y-129303915D01*
X146617692Y-129262043D01*
X146593275Y-129196579D01*
X146592959Y-129187733D01*
X146592959Y-122774853D01*
X146567961Y-122649186D01*
X146567960Y-122649185D01*
X146567960Y-122649181D01*
X146518924Y-122530798D01*
X146501871Y-122505276D01*
X146447736Y-122424256D01*
X146447734Y-122424253D01*
X145518207Y-121494726D01*
X145518203Y-121494723D01*
X145411661Y-121423535D01*
X145293278Y-121374499D01*
X145293272Y-121374497D01*
X145167598Y-121349498D01*
X145162274Y-121348974D01*
X145097488Y-121322810D01*
X145086753Y-121313253D01*
X145074038Y-121300538D01*
X145074034Y-121300535D01*
X144926553Y-121201990D01*
X144926540Y-121201983D01*
X144762667Y-121134106D01*
X144762658Y-121134103D01*
X144592479Y-121100253D01*
X144530568Y-121067868D01*
X144495994Y-121007152D01*
X144499733Y-120937383D01*
X144528987Y-120890957D01*
X148255467Y-117164477D01*
X148316788Y-117130994D01*
X148386480Y-117135978D01*
X148442413Y-117177850D01*
X148466830Y-117243314D01*
X148464763Y-117276351D01*
X148453760Y-117331666D01*
X148453760Y-119668329D01*
X148464985Y-119724757D01*
X148464985Y-119724759D01*
X148478757Y-119793996D01*
X148478759Y-119794004D01*
X148527794Y-119912385D01*
X148598986Y-120018933D01*
X148598987Y-120018934D01*
X149563181Y-120983127D01*
X149596666Y-121044450D01*
X149599500Y-121070808D01*
X149599500Y-121088695D01*
X149634103Y-121262658D01*
X149634106Y-121262667D01*
X149701983Y-121426540D01*
X149701990Y-121426553D01*
X149800535Y-121574034D01*
X149800538Y-121574038D01*
X149925961Y-121699461D01*
X149925965Y-121699464D01*
X150073446Y-121798009D01*
X150073459Y-121798016D01*
X150196363Y-121848923D01*
X150237334Y-121865894D01*
X150237336Y-121865894D01*
X150237341Y-121865896D01*
X150411304Y-121900499D01*
X150411307Y-121900500D01*
X150411309Y-121900500D01*
X150588693Y-121900500D01*
X150588694Y-121900499D01*
X150646682Y-121888964D01*
X150762658Y-121865896D01*
X150762661Y-121865894D01*
X150762666Y-121865894D01*
X150926547Y-121798013D01*
X151074035Y-121699464D01*
X151199464Y-121574035D01*
X151298013Y-121426547D01*
X151365894Y-121262666D01*
X151400500Y-121088691D01*
X151400500Y-120911309D01*
X151400500Y-120911306D01*
X151400499Y-120911304D01*
X151365896Y-120737341D01*
X151365893Y-120737332D01*
X151298016Y-120573459D01*
X151298009Y-120573446D01*
X151199464Y-120425965D01*
X151199461Y-120425961D01*
X151074038Y-120300538D01*
X151074034Y-120300535D01*
X150926553Y-120201990D01*
X150926540Y-120201983D01*
X150762667Y-120134106D01*
X150762658Y-120134103D01*
X150588694Y-120099500D01*
X150588691Y-120099500D01*
X150570808Y-120099500D01*
X150503769Y-120079815D01*
X150483127Y-120063181D01*
X149791079Y-119371133D01*
X149757594Y-119309810D01*
X149754760Y-119283452D01*
X149754760Y-117716548D01*
X149774445Y-117649509D01*
X149791079Y-117628867D01*
X155483127Y-111936819D01*
X155544450Y-111903334D01*
X155570808Y-111900500D01*
X155588693Y-111900500D01*
X155588694Y-111900499D01*
X155646682Y-111888964D01*
X155762658Y-111865896D01*
X155762661Y-111865894D01*
X155762666Y-111865894D01*
X155926547Y-111798013D01*
X156074035Y-111699464D01*
X156199464Y-111574035D01*
X156298013Y-111426547D01*
X156365894Y-111262666D01*
X156369971Y-111242173D01*
X156393322Y-111124778D01*
X156400500Y-111088691D01*
X156400500Y-110911309D01*
X156400500Y-110911306D01*
X156400499Y-110911304D01*
X156365896Y-110737341D01*
X156365893Y-110737332D01*
X156298016Y-110573459D01*
X156298009Y-110573446D01*
X156199464Y-110425965D01*
X156199461Y-110425961D01*
X156095681Y-110322181D01*
X156062196Y-110260858D01*
X156067180Y-110191166D01*
X156109052Y-110135233D01*
X156174516Y-110110816D01*
X156183362Y-110110500D01*
X159475501Y-110110500D01*
X159542540Y-110130185D01*
G37*
G04 #@! TD.AperFunction*
G04 #@! TA.AperFunction,Conductor*
G36*
X129785703Y-122786095D02*
G01*
X129792181Y-122792127D01*
X134256324Y-127256271D01*
X134256331Y-127256277D01*
X134362871Y-127327464D01*
X134362870Y-127327464D01*
X134397544Y-127341826D01*
X134481256Y-127376501D01*
X134481260Y-127376501D01*
X134481261Y-127376502D01*
X134606928Y-127401500D01*
X134606931Y-127401500D01*
X140608596Y-127401500D01*
X140675635Y-127421185D01*
X140721390Y-127473989D01*
X140731334Y-127543147D01*
X140702309Y-127606703D01*
X140696277Y-127613181D01*
X140242720Y-128066738D01*
X140203678Y-128125172D01*
X140203673Y-128125179D01*
X140201248Y-128128810D01*
X140171535Y-128173278D01*
X140159092Y-128203314D01*
X140155221Y-128210101D01*
X140148222Y-128216842D01*
X140135201Y-128236330D01*
X140059353Y-128312180D01*
X139998031Y-128345666D01*
X139971671Y-128348500D01*
X90904500Y-128348500D01*
X90837461Y-128328815D01*
X90791706Y-128276011D01*
X90780500Y-128224500D01*
X90780500Y-124109617D01*
X90800185Y-124042578D01*
X90834592Y-124008902D01*
X90833874Y-124007914D01*
X90837811Y-124005053D01*
X90837816Y-124005051D01*
X91009792Y-123880104D01*
X91160104Y-123729792D01*
X91160106Y-123729788D01*
X91160109Y-123729786D01*
X91285048Y-123557820D01*
X91285047Y-123557820D01*
X91285051Y-123557816D01*
X91289514Y-123549054D01*
X91337488Y-123498259D01*
X91405308Y-123481463D01*
X91471444Y-123503999D01*
X91510486Y-123549056D01*
X91514951Y-123557820D01*
X91639890Y-123729786D01*
X91790213Y-123880109D01*
X91962179Y-124005048D01*
X91962181Y-124005049D01*
X91962184Y-124005051D01*
X92151588Y-124101557D01*
X92353757Y-124167246D01*
X92563713Y-124200500D01*
X92563714Y-124200500D01*
X92776286Y-124200500D01*
X92776287Y-124200500D01*
X92986243Y-124167246D01*
X93188412Y-124101557D01*
X93377816Y-124005051D01*
X93464478Y-123942088D01*
X93549786Y-123880109D01*
X93549788Y-123880106D01*
X93549792Y-123880104D01*
X93700104Y-123729792D01*
X93700106Y-123729788D01*
X93700109Y-123729786D01*
X93825048Y-123557820D01*
X93825047Y-123557820D01*
X93825051Y-123557816D01*
X93829514Y-123549054D01*
X93877488Y-123498259D01*
X93945308Y-123481463D01*
X94011444Y-123503999D01*
X94050486Y-123549056D01*
X94054951Y-123557820D01*
X94179890Y-123729786D01*
X94330213Y-123880109D01*
X94502179Y-124005048D01*
X94502181Y-124005049D01*
X94502184Y-124005051D01*
X94691588Y-124101557D01*
X94893757Y-124167246D01*
X95103713Y-124200500D01*
X95103714Y-124200500D01*
X95316286Y-124200500D01*
X95316287Y-124200500D01*
X95526243Y-124167246D01*
X95728412Y-124101557D01*
X95917816Y-124005051D01*
X96004478Y-123942088D01*
X96089784Y-123880110D01*
X96089784Y-123880109D01*
X96089792Y-123880104D01*
X96203717Y-123766178D01*
X96265036Y-123732696D01*
X96334728Y-123737680D01*
X96390662Y-123779551D01*
X96407577Y-123810528D01*
X96456646Y-123942088D01*
X96456649Y-123942093D01*
X96542809Y-124057187D01*
X96542812Y-124057190D01*
X96657906Y-124143350D01*
X96657913Y-124143354D01*
X96792620Y-124193596D01*
X96792627Y-124193598D01*
X96852155Y-124199999D01*
X96852172Y-124200000D01*
X97500000Y-124200000D01*
X97500000Y-123294560D01*
X97553147Y-123325245D01*
X97682857Y-123360000D01*
X97817143Y-123360000D01*
X97946853Y-123325245D01*
X98000000Y-123294560D01*
X98000000Y-124200000D01*
X98647828Y-124200000D01*
X98647844Y-124199999D01*
X98707372Y-124193598D01*
X98707379Y-124193596D01*
X98842086Y-124143354D01*
X98842093Y-124143350D01*
X98957187Y-124057190D01*
X98957190Y-124057187D01*
X99043350Y-123942093D01*
X99043354Y-123942086D01*
X99092422Y-123810529D01*
X99134293Y-123754595D01*
X99199757Y-123730178D01*
X99268030Y-123745030D01*
X99296285Y-123766181D01*
X99410213Y-123880109D01*
X99582179Y-124005048D01*
X99582181Y-124005049D01*
X99582184Y-124005051D01*
X99771588Y-124101557D01*
X99973757Y-124167246D01*
X100183713Y-124200500D01*
X100183714Y-124200500D01*
X100396286Y-124200500D01*
X100396287Y-124200500D01*
X100606243Y-124167246D01*
X100808412Y-124101557D01*
X100997816Y-124005051D01*
X101084478Y-123942088D01*
X101169786Y-123880109D01*
X101169788Y-123880106D01*
X101169792Y-123880104D01*
X101320104Y-123729792D01*
X101320106Y-123729788D01*
X101320109Y-123729786D01*
X101445048Y-123557820D01*
X101445047Y-123557820D01*
X101445051Y-123557816D01*
X101449514Y-123549054D01*
X101497488Y-123498259D01*
X101565308Y-123481463D01*
X101631444Y-123503999D01*
X101670486Y-123549056D01*
X101674951Y-123557820D01*
X101799890Y-123729786D01*
X101950213Y-123880109D01*
X102122179Y-124005048D01*
X102122181Y-124005049D01*
X102122184Y-124005051D01*
X102311588Y-124101557D01*
X102513757Y-124167246D01*
X102723713Y-124200500D01*
X102723714Y-124200500D01*
X102936286Y-124200500D01*
X102936287Y-124200500D01*
X103146243Y-124167246D01*
X103348412Y-124101557D01*
X103537816Y-124005051D01*
X103624478Y-123942088D01*
X103709786Y-123880109D01*
X103709788Y-123880106D01*
X103709792Y-123880104D01*
X103860104Y-123729792D01*
X103860106Y-123729788D01*
X103860109Y-123729786D01*
X103985048Y-123557820D01*
X103985047Y-123557820D01*
X103985051Y-123557816D01*
X103989514Y-123549054D01*
X104037488Y-123498259D01*
X104105308Y-123481463D01*
X104171444Y-123503999D01*
X104210486Y-123549056D01*
X104214951Y-123557820D01*
X104339890Y-123729786D01*
X104490213Y-123880109D01*
X104662179Y-124005048D01*
X104662181Y-124005049D01*
X104662184Y-124005051D01*
X104851588Y-124101557D01*
X105053757Y-124167246D01*
X105263713Y-124200500D01*
X105263714Y-124200500D01*
X105476286Y-124200500D01*
X105476287Y-124200500D01*
X105686243Y-124167246D01*
X105888412Y-124101557D01*
X106077816Y-124005051D01*
X106164478Y-123942088D01*
X106249786Y-123880109D01*
X106249788Y-123880106D01*
X106249792Y-123880104D01*
X106400104Y-123729792D01*
X106400106Y-123729788D01*
X106400109Y-123729786D01*
X106525048Y-123557820D01*
X106525047Y-123557820D01*
X106525051Y-123557816D01*
X106529514Y-123549054D01*
X106577488Y-123498259D01*
X106645308Y-123481463D01*
X106711444Y-123503999D01*
X106750486Y-123549056D01*
X106754951Y-123557820D01*
X106879890Y-123729786D01*
X107030213Y-123880109D01*
X107202179Y-124005048D01*
X107202181Y-124005049D01*
X107202184Y-124005051D01*
X107391588Y-124101557D01*
X107593757Y-124167246D01*
X107803713Y-124200500D01*
X107803714Y-124200500D01*
X108016286Y-124200500D01*
X108016287Y-124200500D01*
X108226243Y-124167246D01*
X108428412Y-124101557D01*
X108617816Y-124005051D01*
X108704478Y-123942088D01*
X108789784Y-123880110D01*
X108789784Y-123880109D01*
X108789792Y-123880104D01*
X108903717Y-123766178D01*
X108965036Y-123732696D01*
X109034728Y-123737680D01*
X109090662Y-123779551D01*
X109107577Y-123810528D01*
X109156646Y-123942088D01*
X109156649Y-123942093D01*
X109242809Y-124057187D01*
X109242812Y-124057190D01*
X109357906Y-124143350D01*
X109357913Y-124143354D01*
X109492620Y-124193596D01*
X109492627Y-124193598D01*
X109552155Y-124199999D01*
X109552172Y-124200000D01*
X110200000Y-124200000D01*
X110200000Y-123294560D01*
X110253147Y-123325245D01*
X110382857Y-123360000D01*
X110517143Y-123360000D01*
X110646853Y-123325245D01*
X110700000Y-123294560D01*
X110700000Y-124200000D01*
X111347828Y-124200000D01*
X111347844Y-124199999D01*
X111407372Y-124193598D01*
X111407379Y-124193596D01*
X111542086Y-124143354D01*
X111542093Y-124143350D01*
X111657187Y-124057190D01*
X111657190Y-124057187D01*
X111743350Y-123942093D01*
X111743354Y-123942086D01*
X111792422Y-123810529D01*
X111834293Y-123754595D01*
X111899757Y-123730178D01*
X111968030Y-123745030D01*
X111996285Y-123766181D01*
X112110213Y-123880109D01*
X112282179Y-124005048D01*
X112282181Y-124005049D01*
X112282184Y-124005051D01*
X112471588Y-124101557D01*
X112673757Y-124167246D01*
X112883713Y-124200500D01*
X112883714Y-124200500D01*
X113096286Y-124200500D01*
X113096287Y-124200500D01*
X113306243Y-124167246D01*
X113508412Y-124101557D01*
X113697816Y-124005051D01*
X113784478Y-123942088D01*
X113869786Y-123880109D01*
X113869788Y-123880106D01*
X113869792Y-123880104D01*
X114020104Y-123729792D01*
X114020106Y-123729788D01*
X114020109Y-123729786D01*
X114145048Y-123557820D01*
X114145047Y-123557820D01*
X114145051Y-123557816D01*
X114149514Y-123549054D01*
X114197488Y-123498259D01*
X114265308Y-123481463D01*
X114331444Y-123503999D01*
X114370486Y-123549056D01*
X114374951Y-123557820D01*
X114499890Y-123729786D01*
X114650213Y-123880109D01*
X114822179Y-124005048D01*
X114822181Y-124005049D01*
X114822184Y-124005051D01*
X115011588Y-124101557D01*
X115213757Y-124167246D01*
X115423713Y-124200500D01*
X115423714Y-124200500D01*
X115636286Y-124200500D01*
X115636287Y-124200500D01*
X115846243Y-124167246D01*
X116048412Y-124101557D01*
X116237816Y-124005051D01*
X116324478Y-123942088D01*
X116409786Y-123880109D01*
X116409788Y-123880106D01*
X116409792Y-123880104D01*
X116560104Y-123729792D01*
X116560106Y-123729788D01*
X116560109Y-123729786D01*
X116685048Y-123557820D01*
X116685047Y-123557820D01*
X116685051Y-123557816D01*
X116689514Y-123549054D01*
X116737488Y-123498259D01*
X116805308Y-123481463D01*
X116871444Y-123503999D01*
X116910486Y-123549056D01*
X116914951Y-123557820D01*
X117039890Y-123729786D01*
X117190213Y-123880109D01*
X117362179Y-124005048D01*
X117362181Y-124005049D01*
X117362184Y-124005051D01*
X117551588Y-124101557D01*
X117753757Y-124167246D01*
X117963713Y-124200500D01*
X117963714Y-124200500D01*
X118176286Y-124200500D01*
X118176287Y-124200500D01*
X118386243Y-124167246D01*
X118588412Y-124101557D01*
X118777816Y-124005051D01*
X118864478Y-123942088D01*
X118949786Y-123880109D01*
X118949788Y-123880106D01*
X118949792Y-123880104D01*
X119100104Y-123729792D01*
X119100106Y-123729788D01*
X119100109Y-123729786D01*
X119225048Y-123557820D01*
X119225047Y-123557820D01*
X119225051Y-123557816D01*
X119229514Y-123549054D01*
X119277488Y-123498259D01*
X119345308Y-123481463D01*
X119411444Y-123503999D01*
X119450486Y-123549056D01*
X119454951Y-123557820D01*
X119579890Y-123729786D01*
X119730213Y-123880109D01*
X119902179Y-124005048D01*
X119902181Y-124005049D01*
X119902184Y-124005051D01*
X120091588Y-124101557D01*
X120293757Y-124167246D01*
X120503713Y-124200500D01*
X120503714Y-124200500D01*
X120716286Y-124200500D01*
X120716287Y-124200500D01*
X120926243Y-124167246D01*
X121128412Y-124101557D01*
X121317816Y-124005051D01*
X121404478Y-123942088D01*
X121489784Y-123880110D01*
X121489784Y-123880109D01*
X121489792Y-123880104D01*
X121603717Y-123766178D01*
X121665036Y-123732696D01*
X121734728Y-123737680D01*
X121790662Y-123779551D01*
X121807577Y-123810528D01*
X121856646Y-123942088D01*
X121856649Y-123942093D01*
X121942809Y-124057187D01*
X121942812Y-124057190D01*
X122057906Y-124143350D01*
X122057913Y-124143354D01*
X122192620Y-124193596D01*
X122192627Y-124193598D01*
X122252155Y-124199999D01*
X122252172Y-124200000D01*
X122900000Y-124200000D01*
X122900000Y-123294560D01*
X122953147Y-123325245D01*
X123082857Y-123360000D01*
X123217143Y-123360000D01*
X123346853Y-123325245D01*
X123400000Y-123294560D01*
X123400000Y-124200000D01*
X124047828Y-124200000D01*
X124047844Y-124199999D01*
X124107372Y-124193598D01*
X124107379Y-124193596D01*
X124242086Y-124143354D01*
X124242093Y-124143350D01*
X124357187Y-124057190D01*
X124357190Y-124057187D01*
X124443350Y-123942093D01*
X124443354Y-123942086D01*
X124492422Y-123810529D01*
X124534293Y-123754595D01*
X124599757Y-123730178D01*
X124668030Y-123745030D01*
X124696285Y-123766181D01*
X124810213Y-123880109D01*
X124982179Y-124005048D01*
X124982181Y-124005049D01*
X124982184Y-124005051D01*
X125171588Y-124101557D01*
X125373757Y-124167246D01*
X125583713Y-124200500D01*
X125583714Y-124200500D01*
X125796286Y-124200500D01*
X125796287Y-124200500D01*
X126006243Y-124167246D01*
X126208412Y-124101557D01*
X126397816Y-124005051D01*
X126484478Y-123942088D01*
X126569786Y-123880109D01*
X126569788Y-123880106D01*
X126569792Y-123880104D01*
X126720104Y-123729792D01*
X126720106Y-123729788D01*
X126720109Y-123729786D01*
X126845048Y-123557820D01*
X126845047Y-123557820D01*
X126845051Y-123557816D01*
X126849514Y-123549054D01*
X126897488Y-123498259D01*
X126965308Y-123481463D01*
X127031444Y-123503999D01*
X127070486Y-123549056D01*
X127074951Y-123557820D01*
X127199890Y-123729786D01*
X127350213Y-123880109D01*
X127522179Y-124005048D01*
X127522181Y-124005049D01*
X127522184Y-124005051D01*
X127711588Y-124101557D01*
X127913757Y-124167246D01*
X128123713Y-124200500D01*
X128123714Y-124200500D01*
X128336286Y-124200500D01*
X128336287Y-124200500D01*
X128546243Y-124167246D01*
X128748412Y-124101557D01*
X128937816Y-124005051D01*
X129024478Y-123942088D01*
X129109786Y-123880109D01*
X129109788Y-123880106D01*
X129109792Y-123880104D01*
X129260104Y-123729792D01*
X129260106Y-123729788D01*
X129260109Y-123729786D01*
X129385048Y-123557820D01*
X129385047Y-123557820D01*
X129385051Y-123557816D01*
X129481557Y-123368412D01*
X129547246Y-123166243D01*
X129580500Y-122956287D01*
X129580500Y-122879808D01*
X129600185Y-122812769D01*
X129652989Y-122767014D01*
X129722147Y-122757070D01*
X129785703Y-122786095D01*
G37*
G04 #@! TD.AperFunction*
G04 #@! TA.AperFunction,Conductor*
G36*
X146246231Y-84170185D02*
G01*
X146266873Y-84186819D01*
X146447772Y-84367717D01*
X146481257Y-84429040D01*
X146484091Y-84455398D01*
X146484091Y-89691047D01*
X146464406Y-89758086D01*
X146447772Y-89778728D01*
X146435129Y-89791370D01*
X146435126Y-89791374D01*
X146336581Y-89938855D01*
X146336574Y-89938868D01*
X146268697Y-90102741D01*
X146268694Y-90102750D01*
X146234091Y-90276713D01*
X146234091Y-90454104D01*
X146268694Y-90628067D01*
X146268697Y-90628076D01*
X146336574Y-90791949D01*
X146336581Y-90791962D01*
X146435126Y-90939443D01*
X146435129Y-90939447D01*
X146533501Y-91037819D01*
X146566986Y-91099142D01*
X146562002Y-91168834D01*
X146520130Y-91224767D01*
X146454666Y-91249184D01*
X146445820Y-91249500D01*
X142751080Y-91249500D01*
X142606092Y-91278340D01*
X142606082Y-91278343D01*
X142469511Y-91334912D01*
X142469498Y-91334919D01*
X142346585Y-91417048D01*
X142341875Y-91420914D01*
X142340828Y-91419639D01*
X142286466Y-91449312D01*
X142284320Y-91449759D01*
X142237339Y-91459104D01*
X142237331Y-91459106D01*
X142073459Y-91526983D01*
X142073446Y-91526990D01*
X141925965Y-91625535D01*
X141925961Y-91625538D01*
X141800538Y-91750961D01*
X141800535Y-91750965D01*
X141701990Y-91898446D01*
X141701983Y-91898459D01*
X141634106Y-92062332D01*
X141634103Y-92062341D01*
X141599500Y-92236304D01*
X141599500Y-92413695D01*
X141634103Y-92587658D01*
X141634106Y-92587667D01*
X141701983Y-92751540D01*
X141701990Y-92751553D01*
X141800535Y-92899034D01*
X141800538Y-92899038D01*
X141925961Y-93024461D01*
X141925965Y-93024464D01*
X142073446Y-93123009D01*
X142073459Y-93123016D01*
X142196363Y-93173923D01*
X142237334Y-93190894D01*
X142237336Y-93190894D01*
X142237341Y-93190896D01*
X142411304Y-93225499D01*
X142411307Y-93225500D01*
X142411309Y-93225500D01*
X142588693Y-93225500D01*
X142588694Y-93225499D01*
X142646682Y-93213964D01*
X142762658Y-93190896D01*
X142762661Y-93190894D01*
X142762666Y-93190894D01*
X142926547Y-93123013D01*
X143074035Y-93024464D01*
X143199464Y-92899035D01*
X143250277Y-92822989D01*
X143261890Y-92805609D01*
X143315502Y-92760804D01*
X143364992Y-92750500D01*
X144480392Y-92750500D01*
X144547431Y-92770185D01*
X144593186Y-92822989D01*
X144603130Y-92892147D01*
X144602010Y-92898690D01*
X144599500Y-92911309D01*
X144599500Y-93088695D01*
X144634103Y-93262658D01*
X144634106Y-93262667D01*
X144701983Y-93426540D01*
X144701990Y-93426553D01*
X144800535Y-93574034D01*
X144800538Y-93574038D01*
X144925961Y-93699461D01*
X144925965Y-93699464D01*
X145073446Y-93798009D01*
X145073459Y-93798016D01*
X145196363Y-93848923D01*
X145237334Y-93865894D01*
X145237336Y-93865894D01*
X145237341Y-93865896D01*
X145411304Y-93900499D01*
X145411307Y-93900500D01*
X145411309Y-93900500D01*
X145429192Y-93900500D01*
X145496231Y-93920185D01*
X145516873Y-93936819D01*
X146813181Y-95233126D01*
X146846666Y-95294449D01*
X146849500Y-95320807D01*
X146849500Y-106276638D01*
X146829815Y-106343677D01*
X146777011Y-106389432D01*
X146707853Y-106399376D01*
X146644297Y-106370351D01*
X146637819Y-106364319D01*
X146574038Y-106300538D01*
X146574034Y-106300535D01*
X146426553Y-106201990D01*
X146426540Y-106201983D01*
X146262667Y-106134106D01*
X146262658Y-106134103D01*
X146088694Y-106099500D01*
X146088691Y-106099500D01*
X145911309Y-106099500D01*
X145911306Y-106099500D01*
X145737341Y-106134103D01*
X145737332Y-106134106D01*
X145573459Y-106201983D01*
X145573446Y-106201990D01*
X145425965Y-106300535D01*
X145425961Y-106300538D01*
X145300538Y-106425961D01*
X145300535Y-106425965D01*
X145201990Y-106573446D01*
X145201983Y-106573459D01*
X145134106Y-106737332D01*
X145134103Y-106737341D01*
X145099500Y-106911304D01*
X145099500Y-106929191D01*
X145090855Y-106958628D01*
X145084332Y-106988619D01*
X145080576Y-106993635D01*
X145079815Y-106996230D01*
X145063181Y-107016873D01*
X144988401Y-107091652D01*
X144927077Y-107125136D01*
X144857386Y-107120151D01*
X144801452Y-107078280D01*
X144797618Y-107072861D01*
X144699464Y-106925965D01*
X144699461Y-106925961D01*
X144574038Y-106800538D01*
X144574034Y-106800535D01*
X144426553Y-106701990D01*
X144426540Y-106701983D01*
X144262667Y-106634106D01*
X144262658Y-106634103D01*
X144088694Y-106599500D01*
X144088691Y-106599500D01*
X144070808Y-106599500D01*
X144003769Y-106579815D01*
X143983127Y-106563181D01*
X139435819Y-102015873D01*
X139402334Y-101954550D01*
X139399500Y-101928192D01*
X139399500Y-98509733D01*
X139419185Y-98442694D01*
X139435819Y-98422052D01*
X141171052Y-96686819D01*
X141197979Y-96672115D01*
X141223798Y-96655523D01*
X141229998Y-96654631D01*
X141232375Y-96653334D01*
X141258733Y-96650500D01*
X141325638Y-96650500D01*
X141392677Y-96670185D01*
X141413319Y-96686819D01*
X141425961Y-96699461D01*
X141425965Y-96699464D01*
X141573446Y-96798009D01*
X141573459Y-96798016D01*
X141683738Y-96843694D01*
X141737334Y-96865894D01*
X141737336Y-96865894D01*
X141737341Y-96865896D01*
X141911304Y-96900499D01*
X141911307Y-96900500D01*
X141911309Y-96900500D01*
X142088693Y-96900500D01*
X142088694Y-96900499D01*
X142146682Y-96888964D01*
X142262658Y-96865896D01*
X142262661Y-96865894D01*
X142262666Y-96865894D01*
X142426547Y-96798013D01*
X142574035Y-96699464D01*
X142699464Y-96574035D01*
X142798013Y-96426547D01*
X142865894Y-96262666D01*
X142878467Y-96199461D01*
X142900499Y-96088695D01*
X142900500Y-96088693D01*
X142900500Y-95911306D01*
X142900499Y-95911304D01*
X142865896Y-95737341D01*
X142865893Y-95737332D01*
X142865714Y-95736901D01*
X142848923Y-95696363D01*
X142798016Y-95573459D01*
X142798009Y-95573446D01*
X142699464Y-95425965D01*
X142699461Y-95425961D01*
X142574038Y-95300538D01*
X142574034Y-95300535D01*
X142426553Y-95201990D01*
X142426540Y-95201983D01*
X142262667Y-95134106D01*
X142262658Y-95134103D01*
X142088694Y-95099500D01*
X142088691Y-95099500D01*
X141911309Y-95099500D01*
X141911306Y-95099500D01*
X141737341Y-95134103D01*
X141737332Y-95134106D01*
X141573459Y-95201983D01*
X141573446Y-95201990D01*
X141425965Y-95300535D01*
X141425961Y-95300538D01*
X141413319Y-95313181D01*
X141351996Y-95346666D01*
X141325638Y-95349500D01*
X140873854Y-95349500D01*
X140748186Y-95374497D01*
X140748180Y-95374499D01*
X140629795Y-95423535D01*
X140523256Y-95494722D01*
X140523249Y-95494728D01*
X140098745Y-95919232D01*
X140037422Y-95952717D01*
X139967730Y-95947733D01*
X139911797Y-95905861D01*
X139889447Y-95855742D01*
X139865896Y-95737341D01*
X139865893Y-95737332D01*
X139865714Y-95736901D01*
X139848923Y-95696363D01*
X139798016Y-95573459D01*
X139798009Y-95573446D01*
X139699464Y-95425965D01*
X139699461Y-95425961D01*
X139686819Y-95413319D01*
X139653334Y-95351996D01*
X139650500Y-95325638D01*
X139650500Y-89774500D01*
X139653050Y-89765814D01*
X139651762Y-89756853D01*
X139662740Y-89732812D01*
X139670185Y-89707461D01*
X139677025Y-89701533D01*
X139680787Y-89693297D01*
X139703021Y-89679007D01*
X139722989Y-89661706D01*
X139733503Y-89659418D01*
X139739565Y-89655523D01*
X139774500Y-89650500D01*
X139825638Y-89650500D01*
X139892677Y-89670185D01*
X139913319Y-89686819D01*
X139925961Y-89699461D01*
X139925965Y-89699464D01*
X140073446Y-89798009D01*
X140073459Y-89798016D01*
X140196363Y-89848923D01*
X140237334Y-89865894D01*
X140237336Y-89865894D01*
X140237341Y-89865896D01*
X140411304Y-89900499D01*
X140411307Y-89900500D01*
X140411309Y-89900500D01*
X140588693Y-89900500D01*
X140588694Y-89900499D01*
X140646682Y-89888964D01*
X140762658Y-89865896D01*
X140762661Y-89865894D01*
X140762666Y-89865894D01*
X140926547Y-89798013D01*
X141074035Y-89699464D01*
X141199464Y-89574035D01*
X141298013Y-89426547D01*
X141365894Y-89262666D01*
X141367592Y-89254133D01*
X141400499Y-89088695D01*
X141400500Y-89088693D01*
X141400500Y-88911306D01*
X141400499Y-88911304D01*
X141365896Y-88737341D01*
X141365893Y-88737332D01*
X141298016Y-88573459D01*
X141298009Y-88573446D01*
X141199464Y-88425965D01*
X141199461Y-88425961D01*
X141074038Y-88300538D01*
X141074034Y-88300535D01*
X140926553Y-88201990D01*
X140926540Y-88201983D01*
X140762667Y-88134106D01*
X140762658Y-88134103D01*
X140588694Y-88099500D01*
X140588691Y-88099500D01*
X140411309Y-88099500D01*
X140411306Y-88099500D01*
X140237341Y-88134103D01*
X140237332Y-88134106D01*
X140073459Y-88201983D01*
X140073446Y-88201990D01*
X139925965Y-88300535D01*
X139925961Y-88300538D01*
X139913319Y-88313181D01*
X139851996Y-88346666D01*
X139825638Y-88349500D01*
X138935929Y-88349500D01*
X138810261Y-88374497D01*
X138810255Y-88374499D01*
X138691875Y-88423533D01*
X138691866Y-88423538D01*
X138585331Y-88494723D01*
X138585327Y-88494726D01*
X138494726Y-88585327D01*
X138494723Y-88585331D01*
X138423538Y-88691866D01*
X138423533Y-88691875D01*
X138374499Y-88810255D01*
X138374497Y-88810261D01*
X138349500Y-88935928D01*
X138349500Y-95325638D01*
X138329815Y-95392677D01*
X138313181Y-95413319D01*
X138300538Y-95425961D01*
X138300535Y-95425965D01*
X138201990Y-95573446D01*
X138201983Y-95573459D01*
X138134106Y-95737332D01*
X138134103Y-95737341D01*
X138099500Y-95911304D01*
X138099500Y-96088695D01*
X138134103Y-96262658D01*
X138134106Y-96262667D01*
X138201983Y-96426540D01*
X138201990Y-96426553D01*
X138300535Y-96574034D01*
X138300538Y-96574038D01*
X138425961Y-96699461D01*
X138425965Y-96699464D01*
X138573446Y-96798009D01*
X138573459Y-96798016D01*
X138683738Y-96843694D01*
X138737334Y-96865894D01*
X138737336Y-96865894D01*
X138737341Y-96865896D01*
X138855742Y-96889447D01*
X138917653Y-96921831D01*
X138952227Y-96982547D01*
X138948488Y-97052317D01*
X138919232Y-97098745D01*
X138243724Y-97774253D01*
X138194814Y-97847454D01*
X138172535Y-97880796D01*
X138123499Y-97999180D01*
X138123497Y-97999186D01*
X138098500Y-98124853D01*
X138098500Y-98124856D01*
X138098500Y-102313069D01*
X138098500Y-102313071D01*
X138098499Y-102313071D01*
X138123497Y-102438738D01*
X138123499Y-102438744D01*
X138172534Y-102557125D01*
X138243726Y-102663673D01*
X138243727Y-102663674D01*
X141471009Y-105890955D01*
X141504494Y-105952278D01*
X141499510Y-106021970D01*
X141457638Y-106077903D01*
X141407520Y-106100253D01*
X141237340Y-106134104D01*
X141237332Y-106134106D01*
X141073459Y-106201983D01*
X141073446Y-106201990D01*
X140925965Y-106300535D01*
X140925961Y-106300538D01*
X140800538Y-106425961D01*
X140800535Y-106425965D01*
X140701990Y-106573446D01*
X140701983Y-106573459D01*
X140634106Y-106737332D01*
X140634103Y-106737341D01*
X140599500Y-106911304D01*
X140599500Y-106929192D01*
X140579815Y-106996231D01*
X140563181Y-107016873D01*
X140266873Y-107313181D01*
X140205550Y-107346666D01*
X140179192Y-107349500D01*
X136435929Y-107349500D01*
X136310261Y-107374497D01*
X136310255Y-107374499D01*
X136191875Y-107423533D01*
X136191866Y-107423538D01*
X136085331Y-107494723D01*
X136085327Y-107494726D01*
X135994726Y-107585327D01*
X135994723Y-107585331D01*
X135923538Y-107691866D01*
X135923533Y-107691875D01*
X135874499Y-107810255D01*
X135874497Y-107810261D01*
X135849500Y-107935928D01*
X135849500Y-122064071D01*
X135874230Y-122188391D01*
X135874232Y-122188416D01*
X135874235Y-122188416D01*
X135874497Y-122189738D01*
X135874500Y-122189747D01*
X135923532Y-122308123D01*
X135994726Y-122414673D01*
X135994727Y-122414674D01*
X139468873Y-125888819D01*
X139502358Y-125950142D01*
X139497374Y-126019834D01*
X139455502Y-126075767D01*
X139390038Y-126100184D01*
X139381192Y-126100500D01*
X134991808Y-126100500D01*
X134924769Y-126080815D01*
X134904127Y-126064181D01*
X120153659Y-111313713D01*
X126649500Y-111313713D01*
X126649500Y-111526286D01*
X126676928Y-111699464D01*
X126682754Y-111736243D01*
X126747925Y-111936819D01*
X126748444Y-111938414D01*
X126844951Y-112127820D01*
X126969890Y-112299786D01*
X127083430Y-112413326D01*
X127116915Y-112474649D01*
X127111931Y-112544341D01*
X127070059Y-112600274D01*
X127039083Y-112617189D01*
X126907669Y-112666203D01*
X126907664Y-112666206D01*
X126792455Y-112752452D01*
X126792452Y-112752455D01*
X126706206Y-112867664D01*
X126706202Y-112867671D01*
X126655908Y-113002517D01*
X126649501Y-113062116D01*
X126649501Y-113062123D01*
X126649500Y-113062135D01*
X126649500Y-114857870D01*
X126649501Y-114857876D01*
X126655908Y-114917483D01*
X126706202Y-115052328D01*
X126706206Y-115052335D01*
X126792452Y-115167544D01*
X126792455Y-115167547D01*
X126907664Y-115253793D01*
X126907671Y-115253797D01*
X127039082Y-115302810D01*
X127095016Y-115344681D01*
X127119433Y-115410145D01*
X127104582Y-115478418D01*
X127083431Y-115506673D01*
X126969889Y-115620215D01*
X126844951Y-115792179D01*
X126748444Y-115981585D01*
X126682753Y-116183760D01*
X126649500Y-116393713D01*
X126649500Y-116606286D01*
X126679424Y-116795222D01*
X126682754Y-116816243D01*
X126698604Y-116865025D01*
X126748444Y-117018414D01*
X126844951Y-117207820D01*
X126969890Y-117379786D01*
X127120213Y-117530109D01*
X127292179Y-117655048D01*
X127292181Y-117655049D01*
X127292184Y-117655051D01*
X127481588Y-117751557D01*
X127683757Y-117817246D01*
X127893713Y-117850500D01*
X127893714Y-117850500D01*
X128106286Y-117850500D01*
X128106287Y-117850500D01*
X128316243Y-117817246D01*
X128518412Y-117751557D01*
X128707816Y-117655051D01*
X128734726Y-117635500D01*
X128879786Y-117530109D01*
X128879788Y-117530106D01*
X128879792Y-117530104D01*
X129030104Y-117379792D01*
X129030106Y-117379788D01*
X129030109Y-117379786D01*
X129139086Y-117229789D01*
X129155051Y-117207816D01*
X129251557Y-117018412D01*
X129317246Y-116816243D01*
X129350500Y-116606287D01*
X129350500Y-116393713D01*
X129317246Y-116183757D01*
X129251557Y-115981588D01*
X129155051Y-115792184D01*
X129155049Y-115792181D01*
X129155048Y-115792179D01*
X129030109Y-115620213D01*
X128916569Y-115506673D01*
X128883084Y-115445350D01*
X128888068Y-115375658D01*
X128929940Y-115319725D01*
X128960915Y-115302810D01*
X129092331Y-115253796D01*
X129207546Y-115167546D01*
X129293796Y-115052331D01*
X129344091Y-114917483D01*
X129350500Y-114857873D01*
X129350499Y-113062128D01*
X129344091Y-113002517D01*
X129293796Y-112867669D01*
X129293795Y-112867668D01*
X129293793Y-112867664D01*
X129207547Y-112752455D01*
X129207544Y-112752452D01*
X129092335Y-112666206D01*
X129092328Y-112666202D01*
X128960917Y-112617189D01*
X128904983Y-112575318D01*
X128880566Y-112509853D01*
X128895418Y-112441580D01*
X128916563Y-112413332D01*
X129030104Y-112299792D01*
X129155051Y-112127816D01*
X129251557Y-111938412D01*
X129317246Y-111736243D01*
X129350500Y-111526287D01*
X129350500Y-111313713D01*
X129317246Y-111103757D01*
X129251557Y-110901588D01*
X129155051Y-110712184D01*
X129155049Y-110712181D01*
X129155048Y-110712179D01*
X129030109Y-110540213D01*
X128879786Y-110389890D01*
X128707820Y-110264951D01*
X128518414Y-110168444D01*
X128518413Y-110168443D01*
X128518412Y-110168443D01*
X128316243Y-110102754D01*
X128316241Y-110102753D01*
X128316240Y-110102753D01*
X128154957Y-110077208D01*
X128106287Y-110069500D01*
X127893713Y-110069500D01*
X127845042Y-110077208D01*
X127683760Y-110102753D01*
X127481585Y-110168444D01*
X127292179Y-110264951D01*
X127120213Y-110389890D01*
X126969890Y-110540213D01*
X126844951Y-110712179D01*
X126748444Y-110901585D01*
X126682753Y-111103760D01*
X126649500Y-111313713D01*
X120153659Y-111313713D01*
X115472127Y-106632181D01*
X115438642Y-106570858D01*
X115443626Y-106501166D01*
X115485498Y-106445233D01*
X115550962Y-106420816D01*
X115559808Y-106420500D01*
X115636286Y-106420500D01*
X115636287Y-106420500D01*
X115846243Y-106387246D01*
X116048412Y-106321557D01*
X116237816Y-106225051D01*
X116324138Y-106162335D01*
X116409786Y-106100109D01*
X116409788Y-106100106D01*
X116409792Y-106100104D01*
X116560104Y-105949792D01*
X116560106Y-105949788D01*
X116560109Y-105949786D01*
X116685048Y-105777820D01*
X116685047Y-105777820D01*
X116685051Y-105777816D01*
X116689514Y-105769054D01*
X116737488Y-105718259D01*
X116805308Y-105701463D01*
X116871444Y-105723999D01*
X116910486Y-105769056D01*
X116914951Y-105777820D01*
X117039890Y-105949786D01*
X117190213Y-106100109D01*
X117362179Y-106225048D01*
X117362181Y-106225049D01*
X117362184Y-106225051D01*
X117551588Y-106321557D01*
X117753757Y-106387246D01*
X117963713Y-106420500D01*
X117963714Y-106420500D01*
X118176286Y-106420500D01*
X118176287Y-106420500D01*
X118386243Y-106387246D01*
X118588412Y-106321557D01*
X118777816Y-106225051D01*
X118864138Y-106162335D01*
X118949786Y-106100109D01*
X118949788Y-106100106D01*
X118949792Y-106100104D01*
X119100104Y-105949792D01*
X119100106Y-105949788D01*
X119100109Y-105949786D01*
X119225048Y-105777820D01*
X119225047Y-105777820D01*
X119225051Y-105777816D01*
X119229514Y-105769054D01*
X119277488Y-105718259D01*
X119345308Y-105701463D01*
X119411444Y-105723999D01*
X119450486Y-105769056D01*
X119454951Y-105777820D01*
X119579890Y-105949786D01*
X119730213Y-106100109D01*
X119902179Y-106225048D01*
X119902181Y-106225049D01*
X119902184Y-106225051D01*
X120091588Y-106321557D01*
X120293757Y-106387246D01*
X120503713Y-106420500D01*
X120503714Y-106420500D01*
X120716286Y-106420500D01*
X120716287Y-106420500D01*
X120926243Y-106387246D01*
X121128412Y-106321557D01*
X121317816Y-106225051D01*
X121404478Y-106162088D01*
X121489784Y-106100110D01*
X121489784Y-106100109D01*
X121489792Y-106100104D01*
X121603717Y-105986178D01*
X121665036Y-105952696D01*
X121734728Y-105957680D01*
X121790662Y-105999551D01*
X121807577Y-106030528D01*
X121856646Y-106162088D01*
X121856649Y-106162093D01*
X121942809Y-106277187D01*
X121942812Y-106277190D01*
X122057906Y-106363350D01*
X122057913Y-106363354D01*
X122192620Y-106413596D01*
X122192627Y-106413598D01*
X122252155Y-106419999D01*
X122252172Y-106420000D01*
X122900000Y-106420000D01*
X122900000Y-105514560D01*
X122953147Y-105545245D01*
X123082857Y-105580000D01*
X123217143Y-105580000D01*
X123346853Y-105545245D01*
X123400000Y-105514560D01*
X123400000Y-106420000D01*
X124047828Y-106420000D01*
X124047844Y-106419999D01*
X124107372Y-106413598D01*
X124107379Y-106413596D01*
X124242086Y-106363354D01*
X124242093Y-106363350D01*
X124357187Y-106277190D01*
X124357190Y-106277187D01*
X124443350Y-106162093D01*
X124443354Y-106162086D01*
X124492422Y-106030529D01*
X124534293Y-105974595D01*
X124599757Y-105950178D01*
X124668030Y-105965030D01*
X124696285Y-105986181D01*
X124810213Y-106100109D01*
X124982179Y-106225048D01*
X124982181Y-106225049D01*
X124982184Y-106225051D01*
X125171588Y-106321557D01*
X125373757Y-106387246D01*
X125583713Y-106420500D01*
X125583714Y-106420500D01*
X125796286Y-106420500D01*
X125796287Y-106420500D01*
X126006243Y-106387246D01*
X126208412Y-106321557D01*
X126397816Y-106225051D01*
X126484138Y-106162335D01*
X126569786Y-106100109D01*
X126569788Y-106100106D01*
X126569792Y-106100104D01*
X126720104Y-105949792D01*
X126720106Y-105949788D01*
X126720109Y-105949786D01*
X126845048Y-105777820D01*
X126845047Y-105777820D01*
X126845051Y-105777816D01*
X126849514Y-105769054D01*
X126897488Y-105718259D01*
X126965308Y-105701463D01*
X127031444Y-105723999D01*
X127070486Y-105769056D01*
X127074951Y-105777820D01*
X127199890Y-105949786D01*
X127350213Y-106100109D01*
X127522179Y-106225048D01*
X127522181Y-106225049D01*
X127522184Y-106225051D01*
X127711588Y-106321557D01*
X127913757Y-106387246D01*
X128123713Y-106420500D01*
X128123714Y-106420500D01*
X128336286Y-106420500D01*
X128336287Y-106420500D01*
X128546243Y-106387246D01*
X128748412Y-106321557D01*
X128937816Y-106225051D01*
X129024138Y-106162335D01*
X129109786Y-106100109D01*
X129109788Y-106100106D01*
X129109792Y-106100104D01*
X129260104Y-105949792D01*
X129260106Y-105949788D01*
X129260109Y-105949786D01*
X129385048Y-105777820D01*
X129385047Y-105777820D01*
X129385051Y-105777816D01*
X129481557Y-105588412D01*
X129547246Y-105386243D01*
X129580500Y-105176287D01*
X129580500Y-104963713D01*
X129547246Y-104753757D01*
X129481557Y-104551588D01*
X129385051Y-104362184D01*
X129385049Y-104362181D01*
X129385048Y-104362179D01*
X129260109Y-104190213D01*
X129109786Y-104039890D01*
X128933875Y-103912085D01*
X128934851Y-103910740D01*
X128892834Y-103864295D01*
X128880500Y-103810382D01*
X128880500Y-89590808D01*
X128900185Y-89523769D01*
X128916819Y-89503127D01*
X134233127Y-84186819D01*
X134294450Y-84153334D01*
X134320808Y-84150500D01*
X146179192Y-84150500D01*
X146246231Y-84170185D01*
G37*
G04 #@! TD.AperFunction*
G04 #@! TA.AperFunction,Conductor*
G36*
X110700000Y-106420000D02*
G01*
X111347828Y-106420000D01*
X111347844Y-106419999D01*
X111407372Y-106413598D01*
X111407379Y-106413596D01*
X111542086Y-106363354D01*
X111542093Y-106363350D01*
X111657187Y-106277190D01*
X111657190Y-106277187D01*
X111743350Y-106162093D01*
X111743354Y-106162086D01*
X111792422Y-106030529D01*
X111834293Y-105974595D01*
X111899757Y-105950178D01*
X111968030Y-105965030D01*
X111996285Y-105986181D01*
X112110213Y-106100109D01*
X112282179Y-106225048D01*
X112282181Y-106225049D01*
X112282184Y-106225051D01*
X112471588Y-106321557D01*
X112673757Y-106387246D01*
X112883713Y-106420500D01*
X112883714Y-106420500D01*
X113096286Y-106420500D01*
X113096287Y-106420500D01*
X113229658Y-106399376D01*
X113311055Y-106386484D01*
X113311315Y-106388128D01*
X113373852Y-106391250D01*
X113420711Y-106420657D01*
X128287873Y-121287819D01*
X128321358Y-121349142D01*
X128316374Y-121418834D01*
X128274502Y-121474767D01*
X128209038Y-121499184D01*
X128200192Y-121499500D01*
X128123713Y-121499500D01*
X128075042Y-121507208D01*
X127913760Y-121532753D01*
X127711585Y-121598444D01*
X127522179Y-121694951D01*
X127350213Y-121819890D01*
X127199890Y-121970213D01*
X127074949Y-122142182D01*
X127070484Y-122150946D01*
X127022509Y-122201742D01*
X126954688Y-122218536D01*
X126888553Y-122195998D01*
X126849516Y-122150946D01*
X126845050Y-122142182D01*
X126720109Y-121970213D01*
X126569786Y-121819890D01*
X126397820Y-121694951D01*
X126208414Y-121598444D01*
X126208413Y-121598443D01*
X126208412Y-121598443D01*
X126006243Y-121532754D01*
X126006241Y-121532753D01*
X126006240Y-121532753D01*
X125844957Y-121507208D01*
X125796287Y-121499500D01*
X125583713Y-121499500D01*
X125535042Y-121507208D01*
X125373760Y-121532753D01*
X125171585Y-121598444D01*
X124982179Y-121694951D01*
X124810215Y-121819889D01*
X124696285Y-121933819D01*
X124634962Y-121967303D01*
X124565270Y-121962319D01*
X124509337Y-121920447D01*
X124492422Y-121889470D01*
X124443354Y-121757913D01*
X124443350Y-121757906D01*
X124357190Y-121642812D01*
X124357187Y-121642809D01*
X124242093Y-121556649D01*
X124242086Y-121556645D01*
X124107379Y-121506403D01*
X124107372Y-121506401D01*
X124047844Y-121500000D01*
X123400000Y-121500000D01*
X123400000Y-122405439D01*
X123346853Y-122374755D01*
X123217143Y-122340000D01*
X123082857Y-122340000D01*
X122953147Y-122374755D01*
X122900000Y-122405439D01*
X122900000Y-121500000D01*
X122252155Y-121500000D01*
X122192627Y-121506401D01*
X122192620Y-121506403D01*
X122057913Y-121556645D01*
X122057906Y-121556649D01*
X121942812Y-121642809D01*
X121942809Y-121642812D01*
X121856649Y-121757906D01*
X121856646Y-121757912D01*
X121807577Y-121889471D01*
X121765705Y-121945404D01*
X121700241Y-121969821D01*
X121631968Y-121954969D01*
X121603714Y-121933818D01*
X121489786Y-121819890D01*
X121317820Y-121694951D01*
X121128414Y-121598444D01*
X121128413Y-121598443D01*
X121128412Y-121598443D01*
X120926243Y-121532754D01*
X120926241Y-121532753D01*
X120926240Y-121532753D01*
X120764957Y-121507208D01*
X120716287Y-121499500D01*
X120503713Y-121499500D01*
X120455042Y-121507208D01*
X120293760Y-121532753D01*
X120091585Y-121598444D01*
X119902179Y-121694951D01*
X119730213Y-121819890D01*
X119579890Y-121970213D01*
X119454949Y-122142182D01*
X119450484Y-122150946D01*
X119402509Y-122201742D01*
X119334688Y-122218536D01*
X119268553Y-122195998D01*
X119229516Y-122150946D01*
X119225050Y-122142182D01*
X119100109Y-121970213D01*
X118949786Y-121819890D01*
X118777820Y-121694951D01*
X118588414Y-121598444D01*
X118588413Y-121598443D01*
X118588412Y-121598443D01*
X118386243Y-121532754D01*
X118386241Y-121532753D01*
X118386240Y-121532753D01*
X118224957Y-121507208D01*
X118176287Y-121499500D01*
X117963713Y-121499500D01*
X117915042Y-121507208D01*
X117753760Y-121532753D01*
X117551585Y-121598444D01*
X117362179Y-121694951D01*
X117190213Y-121819890D01*
X117039890Y-121970213D01*
X116914949Y-122142182D01*
X116910484Y-122150946D01*
X116862509Y-122201742D01*
X116794688Y-122218536D01*
X116728553Y-122195998D01*
X116689516Y-122150946D01*
X116685050Y-122142182D01*
X116560109Y-121970213D01*
X116409786Y-121819890D01*
X116237820Y-121694951D01*
X116048414Y-121598444D01*
X116048413Y-121598443D01*
X116048412Y-121598443D01*
X115846243Y-121532754D01*
X115846241Y-121532753D01*
X115846240Y-121532753D01*
X115684957Y-121507208D01*
X115636287Y-121499500D01*
X115423713Y-121499500D01*
X115375042Y-121507208D01*
X115213760Y-121532753D01*
X115011585Y-121598444D01*
X114822179Y-121694951D01*
X114650213Y-121819890D01*
X114499890Y-121970213D01*
X114374949Y-122142182D01*
X114370484Y-122150946D01*
X114322509Y-122201742D01*
X114254688Y-122218536D01*
X114188553Y-122195998D01*
X114149516Y-122150946D01*
X114145050Y-122142182D01*
X114020109Y-121970213D01*
X113869786Y-121819890D01*
X113697820Y-121694951D01*
X113508414Y-121598444D01*
X113508413Y-121598443D01*
X113508412Y-121598443D01*
X113306243Y-121532754D01*
X113306241Y-121532753D01*
X113306240Y-121532753D01*
X113144957Y-121507208D01*
X113096287Y-121499500D01*
X112883713Y-121499500D01*
X112835042Y-121507208D01*
X112673760Y-121532753D01*
X112471585Y-121598444D01*
X112282179Y-121694951D01*
X112110215Y-121819889D01*
X111996285Y-121933819D01*
X111934962Y-121967303D01*
X111865270Y-121962319D01*
X111809337Y-121920447D01*
X111792422Y-121889470D01*
X111743354Y-121757913D01*
X111743350Y-121757906D01*
X111657190Y-121642812D01*
X111657187Y-121642809D01*
X111542093Y-121556649D01*
X111542086Y-121556645D01*
X111407379Y-121506403D01*
X111407372Y-121506401D01*
X111347844Y-121500000D01*
X110700000Y-121500000D01*
X110700000Y-122405439D01*
X110646853Y-122374755D01*
X110517143Y-122340000D01*
X110382857Y-122340000D01*
X110253147Y-122374755D01*
X110200000Y-122405439D01*
X110200000Y-121500000D01*
X109552155Y-121500000D01*
X109492627Y-121506401D01*
X109492620Y-121506403D01*
X109357913Y-121556645D01*
X109357906Y-121556649D01*
X109242812Y-121642809D01*
X109242809Y-121642812D01*
X109156649Y-121757906D01*
X109156646Y-121757912D01*
X109107577Y-121889471D01*
X109065705Y-121945404D01*
X109000241Y-121969821D01*
X108931968Y-121954969D01*
X108903714Y-121933818D01*
X108789786Y-121819890D01*
X108617820Y-121694951D01*
X108428414Y-121598444D01*
X108428413Y-121598443D01*
X108428412Y-121598443D01*
X108226243Y-121532754D01*
X108226241Y-121532753D01*
X108226240Y-121532753D01*
X108064957Y-121507208D01*
X108016287Y-121499500D01*
X107803713Y-121499500D01*
X107755042Y-121507208D01*
X107593760Y-121532753D01*
X107391585Y-121598444D01*
X107202179Y-121694951D01*
X107030213Y-121819890D01*
X106879890Y-121970213D01*
X106754949Y-122142182D01*
X106750484Y-122150946D01*
X106702509Y-122201742D01*
X106634688Y-122218536D01*
X106568553Y-122195998D01*
X106529516Y-122150946D01*
X106525050Y-122142182D01*
X106400109Y-121970213D01*
X106249786Y-121819890D01*
X106077820Y-121694951D01*
X105888414Y-121598444D01*
X105888413Y-121598443D01*
X105888412Y-121598443D01*
X105686243Y-121532754D01*
X105686241Y-121532753D01*
X105686240Y-121532753D01*
X105524957Y-121507208D01*
X105476287Y-121499500D01*
X105263713Y-121499500D01*
X105215042Y-121507208D01*
X105053760Y-121532753D01*
X104851585Y-121598444D01*
X104662179Y-121694951D01*
X104490213Y-121819890D01*
X104339890Y-121970213D01*
X104214949Y-122142182D01*
X104210484Y-122150946D01*
X104162509Y-122201742D01*
X104094688Y-122218536D01*
X104028553Y-122195998D01*
X103989516Y-122150946D01*
X103985050Y-122142182D01*
X103860109Y-121970213D01*
X103709786Y-121819890D01*
X103537820Y-121694951D01*
X103348414Y-121598444D01*
X103348413Y-121598443D01*
X103348412Y-121598443D01*
X103146243Y-121532754D01*
X103146241Y-121532753D01*
X103146240Y-121532753D01*
X102984957Y-121507208D01*
X102936287Y-121499500D01*
X102723713Y-121499500D01*
X102675042Y-121507208D01*
X102513760Y-121532753D01*
X102311585Y-121598444D01*
X102122179Y-121694951D01*
X101950213Y-121819890D01*
X101799890Y-121970213D01*
X101674949Y-122142182D01*
X101670484Y-122150946D01*
X101622509Y-122201742D01*
X101554688Y-122218536D01*
X101488553Y-122195998D01*
X101449516Y-122150946D01*
X101445050Y-122142182D01*
X101320109Y-121970213D01*
X101169786Y-121819890D01*
X100997820Y-121694951D01*
X100808414Y-121598444D01*
X100808413Y-121598443D01*
X100808412Y-121598443D01*
X100606243Y-121532754D01*
X100606241Y-121532753D01*
X100606240Y-121532753D01*
X100444957Y-121507208D01*
X100396287Y-121499500D01*
X100183713Y-121499500D01*
X100135042Y-121507208D01*
X99973760Y-121532753D01*
X99771585Y-121598444D01*
X99582179Y-121694951D01*
X99410215Y-121819889D01*
X99296285Y-121933819D01*
X99234962Y-121967303D01*
X99165270Y-121962319D01*
X99109337Y-121920447D01*
X99092422Y-121889470D01*
X99043354Y-121757913D01*
X99043350Y-121757906D01*
X98957190Y-121642812D01*
X98957187Y-121642809D01*
X98842093Y-121556649D01*
X98842086Y-121556645D01*
X98707379Y-121506403D01*
X98707372Y-121506401D01*
X98647844Y-121500000D01*
X98000000Y-121500000D01*
X98000000Y-122405439D01*
X97946853Y-122374755D01*
X97817143Y-122340000D01*
X97682857Y-122340000D01*
X97553147Y-122374755D01*
X97500000Y-122405439D01*
X97500000Y-121500000D01*
X96852155Y-121500000D01*
X96792627Y-121506401D01*
X96792620Y-121506403D01*
X96657913Y-121556645D01*
X96657906Y-121556649D01*
X96542812Y-121642809D01*
X96542809Y-121642812D01*
X96456649Y-121757906D01*
X96456646Y-121757912D01*
X96407577Y-121889471D01*
X96365705Y-121945404D01*
X96300241Y-121969821D01*
X96231968Y-121954969D01*
X96203714Y-121933818D01*
X96089786Y-121819890D01*
X95917820Y-121694951D01*
X95728414Y-121598444D01*
X95728413Y-121598443D01*
X95728412Y-121598443D01*
X95526243Y-121532754D01*
X95526241Y-121532753D01*
X95526240Y-121532753D01*
X95364957Y-121507208D01*
X95316287Y-121499500D01*
X95103713Y-121499500D01*
X95055042Y-121507208D01*
X94893760Y-121532753D01*
X94691585Y-121598444D01*
X94502179Y-121694951D01*
X94330213Y-121819890D01*
X94179890Y-121970213D01*
X94054949Y-122142182D01*
X94050484Y-122150946D01*
X94002509Y-122201742D01*
X93934688Y-122218536D01*
X93868553Y-122195998D01*
X93829516Y-122150946D01*
X93825050Y-122142182D01*
X93700109Y-121970213D01*
X93549786Y-121819890D01*
X93377820Y-121694951D01*
X93188414Y-121598444D01*
X93188413Y-121598443D01*
X93188412Y-121598443D01*
X92986243Y-121532754D01*
X92986241Y-121532753D01*
X92986240Y-121532753D01*
X92824957Y-121507208D01*
X92776287Y-121499500D01*
X92563713Y-121499500D01*
X92515042Y-121507208D01*
X92353760Y-121532753D01*
X92151585Y-121598444D01*
X91962179Y-121694951D01*
X91790213Y-121819890D01*
X91639890Y-121970213D01*
X91514949Y-122142182D01*
X91510484Y-122150946D01*
X91462509Y-122201742D01*
X91394688Y-122218536D01*
X91328553Y-122195998D01*
X91289516Y-122150946D01*
X91285050Y-122142182D01*
X91160109Y-121970213D01*
X91009786Y-121819890D01*
X90837820Y-121694951D01*
X90648414Y-121598444D01*
X90648413Y-121598443D01*
X90648412Y-121598443D01*
X90446243Y-121532754D01*
X90446241Y-121532753D01*
X90446240Y-121532753D01*
X90284957Y-121507208D01*
X90236287Y-121499500D01*
X90023713Y-121499500D01*
X89975042Y-121507208D01*
X89813760Y-121532753D01*
X89611585Y-121598444D01*
X89422179Y-121694951D01*
X89250213Y-121819890D01*
X89099890Y-121970213D01*
X88974949Y-122142182D01*
X88970484Y-122150946D01*
X88922509Y-122201742D01*
X88854688Y-122218536D01*
X88788553Y-122195998D01*
X88749516Y-122150946D01*
X88745050Y-122142182D01*
X88620109Y-121970213D01*
X88469786Y-121819890D01*
X88297820Y-121694951D01*
X88108414Y-121598444D01*
X88108413Y-121598443D01*
X88108412Y-121598443D01*
X87906243Y-121532754D01*
X87906241Y-121532753D01*
X87906240Y-121532753D01*
X87744957Y-121507208D01*
X87696287Y-121499500D01*
X87483713Y-121499500D01*
X87435042Y-121507208D01*
X87273760Y-121532753D01*
X87071585Y-121598444D01*
X86882179Y-121694951D01*
X86710215Y-121819889D01*
X86596285Y-121933819D01*
X86534962Y-121967303D01*
X86465270Y-121962319D01*
X86409337Y-121920447D01*
X86392422Y-121889470D01*
X86343354Y-121757913D01*
X86343350Y-121757906D01*
X86257190Y-121642812D01*
X86257187Y-121642809D01*
X86142093Y-121556649D01*
X86142086Y-121556645D01*
X86007379Y-121506403D01*
X86007372Y-121506401D01*
X85947844Y-121500000D01*
X85300000Y-121500000D01*
X85300000Y-122405439D01*
X85246853Y-122374755D01*
X85117143Y-122340000D01*
X84982857Y-122340000D01*
X84853147Y-122374755D01*
X84800000Y-122405439D01*
X84800000Y-121500000D01*
X84152155Y-121500000D01*
X84092627Y-121506401D01*
X84092620Y-121506403D01*
X83957913Y-121556645D01*
X83957906Y-121556649D01*
X83842812Y-121642809D01*
X83842809Y-121642812D01*
X83756649Y-121757906D01*
X83756646Y-121757912D01*
X83707577Y-121889471D01*
X83665705Y-121945404D01*
X83600241Y-121969821D01*
X83531968Y-121954969D01*
X83503714Y-121933818D01*
X83389786Y-121819890D01*
X83217817Y-121694949D01*
X83150418Y-121660608D01*
X83099621Y-121612634D01*
X83082826Y-121544813D01*
X83105363Y-121478678D01*
X83119025Y-121462448D01*
X93394656Y-111186819D01*
X93455979Y-111153334D01*
X93482337Y-111150500D01*
X107564071Y-111150500D01*
X107648615Y-111133682D01*
X107689744Y-111125501D01*
X107808127Y-111076465D01*
X107826679Y-111064069D01*
X107914669Y-111005277D01*
X108415277Y-110504669D01*
X108486466Y-110398126D01*
X108522862Y-110310256D01*
X108535501Y-110279744D01*
X108544501Y-110234500D01*
X108560500Y-110154071D01*
X108560500Y-106329617D01*
X108580185Y-106262578D01*
X108614592Y-106228902D01*
X108613874Y-106227914D01*
X108617811Y-106225053D01*
X108617816Y-106225051D01*
X108789792Y-106100104D01*
X108903717Y-105986178D01*
X108965036Y-105952696D01*
X109034728Y-105957680D01*
X109090662Y-105999551D01*
X109107577Y-106030528D01*
X109156646Y-106162088D01*
X109156649Y-106162093D01*
X109242809Y-106277187D01*
X109242812Y-106277190D01*
X109357906Y-106363350D01*
X109357913Y-106363354D01*
X109492620Y-106413596D01*
X109492627Y-106413598D01*
X109552155Y-106419999D01*
X109552172Y-106420000D01*
X110200000Y-106420000D01*
X110200000Y-105514560D01*
X110253147Y-105545245D01*
X110382857Y-105580000D01*
X110517143Y-105580000D01*
X110646853Y-105545245D01*
X110700000Y-105514560D01*
X110700000Y-106420000D01*
G37*
G04 #@! TD.AperFunction*
G04 #@! TA.AperFunction,Conductor*
G36*
X177943039Y-79019685D02*
G01*
X177988794Y-79072489D01*
X178000000Y-79124000D01*
X178000000Y-95912271D01*
X177980315Y-95979310D01*
X177927511Y-96025065D01*
X177858353Y-96035009D01*
X177794797Y-96005984D01*
X177758069Y-95950589D01*
X177707780Y-95795815D01*
X177593442Y-95571416D01*
X177519250Y-95469301D01*
X177519250Y-95469300D01*
X176864309Y-96124241D01*
X176845332Y-96078426D01*
X176768726Y-95963776D01*
X176671224Y-95866274D01*
X176556574Y-95789668D01*
X176510755Y-95770689D01*
X177165698Y-95115748D01*
X177063583Y-95041557D01*
X176839184Y-94927219D01*
X176599669Y-94849397D01*
X176350928Y-94810000D01*
X176099072Y-94810000D01*
X175850330Y-94849397D01*
X175610815Y-94927219D01*
X175386413Y-95041559D01*
X175284301Y-95115747D01*
X175284300Y-95115748D01*
X175939242Y-95770690D01*
X175893426Y-95789668D01*
X175778776Y-95866274D01*
X175681274Y-95963776D01*
X175604668Y-96078426D01*
X175585690Y-96124243D01*
X174930748Y-95469300D01*
X174930747Y-95469301D01*
X174856559Y-95571413D01*
X174742219Y-95795815D01*
X174664397Y-96035330D01*
X174625000Y-96284071D01*
X174625000Y-96535928D01*
X174664397Y-96784669D01*
X174742219Y-97024184D01*
X174795752Y-97129247D01*
X174808648Y-97197916D01*
X174782372Y-97262657D01*
X174725266Y-97302914D01*
X174684340Y-97308747D01*
X174684340Y-97309500D01*
X172665660Y-97309500D01*
X172665660Y-97308268D01*
X172602477Y-97292782D01*
X172554382Y-97242100D01*
X172541322Y-97173462D01*
X172554248Y-97129246D01*
X172607779Y-97024186D01*
X172685602Y-96784669D01*
X172725000Y-96535928D01*
X172725000Y-96284071D01*
X172685602Y-96035330D01*
X172607780Y-95795815D01*
X172493442Y-95571416D01*
X172419250Y-95469301D01*
X172419250Y-95469300D01*
X171764309Y-96124242D01*
X171745332Y-96078426D01*
X171668726Y-95963776D01*
X171571224Y-95866274D01*
X171456574Y-95789668D01*
X171410755Y-95770689D01*
X172065698Y-95115748D01*
X171963583Y-95041557D01*
X171739184Y-94927219D01*
X171499669Y-94849397D01*
X171250928Y-94810000D01*
X170999072Y-94810000D01*
X170750330Y-94849397D01*
X170510815Y-94927219D01*
X170286413Y-95041559D01*
X170184301Y-95115747D01*
X170184300Y-95115748D01*
X170839242Y-95770690D01*
X170793426Y-95789668D01*
X170678776Y-95866274D01*
X170581274Y-95963776D01*
X170504668Y-96078426D01*
X170485690Y-96124242D01*
X169830748Y-95469300D01*
X169830747Y-95469301D01*
X169756559Y-95571413D01*
X169642219Y-95795815D01*
X169564397Y-96035330D01*
X169525000Y-96284071D01*
X169525000Y-96535928D01*
X169564397Y-96784669D01*
X169642219Y-97024184D01*
X169756557Y-97248583D01*
X169830748Y-97350697D01*
X169830748Y-97350698D01*
X170485690Y-96695756D01*
X170504668Y-96741574D01*
X170581274Y-96856224D01*
X170678776Y-96953726D01*
X170793426Y-97030332D01*
X170839242Y-97049309D01*
X170184300Y-97704250D01*
X170286416Y-97778442D01*
X170510815Y-97892780D01*
X170750330Y-97970602D01*
X170999072Y-98010000D01*
X171250928Y-98010000D01*
X171499669Y-97970602D01*
X171739186Y-97892779D01*
X171844246Y-97839248D01*
X171912915Y-97826351D01*
X171977656Y-97852627D01*
X172017913Y-97909733D01*
X172023748Y-97950660D01*
X172024500Y-97950660D01*
X172024500Y-99969340D01*
X172023267Y-99969340D01*
X172007785Y-100032516D01*
X171957106Y-100080614D01*
X171888468Y-100093678D01*
X171844247Y-100080752D01*
X171739184Y-100027219D01*
X171499669Y-99949397D01*
X171250928Y-99910000D01*
X170999072Y-99910000D01*
X170750330Y-99949397D01*
X170510815Y-100027219D01*
X170286413Y-100141559D01*
X170184301Y-100215747D01*
X170184300Y-100215748D01*
X170839243Y-100870690D01*
X170793426Y-100889668D01*
X170678776Y-100966274D01*
X170581274Y-101063776D01*
X170504668Y-101178426D01*
X170485690Y-101224242D01*
X169830748Y-100569300D01*
X169830747Y-100569301D01*
X169756559Y-100671413D01*
X169642219Y-100895815D01*
X169564397Y-101135330D01*
X169525000Y-101384071D01*
X169525000Y-101635928D01*
X169564397Y-101884669D01*
X169642219Y-102124184D01*
X169756557Y-102348583D01*
X169830748Y-102450697D01*
X169830748Y-102450698D01*
X170485690Y-101795756D01*
X170504668Y-101841574D01*
X170581274Y-101956224D01*
X170678776Y-102053726D01*
X170793426Y-102130332D01*
X170839242Y-102149309D01*
X170184300Y-102804250D01*
X170286416Y-102878442D01*
X170510815Y-102992780D01*
X170750330Y-103070602D01*
X170999072Y-103110000D01*
X171250928Y-103110000D01*
X171499669Y-103070602D01*
X171739184Y-102992780D01*
X171963575Y-102878446D01*
X171963581Y-102878442D01*
X172065697Y-102804250D01*
X172065698Y-102804250D01*
X171410757Y-102149309D01*
X171456574Y-102130332D01*
X171571224Y-102053726D01*
X171668726Y-101956224D01*
X171745332Y-101841574D01*
X171764309Y-101795756D01*
X172419250Y-102450698D01*
X172419250Y-102450697D01*
X172493442Y-102348581D01*
X172493446Y-102348575D01*
X172607780Y-102124184D01*
X172685602Y-101884669D01*
X172725000Y-101635928D01*
X172725000Y-101384071D01*
X172685602Y-101135330D01*
X172607779Y-100895813D01*
X172554248Y-100790753D01*
X172541351Y-100722083D01*
X172567627Y-100657343D01*
X172624733Y-100617085D01*
X172665660Y-100611273D01*
X172665660Y-100610500D01*
X174684340Y-100610500D01*
X174684340Y-100611765D01*
X174747401Y-100627147D01*
X174795553Y-100677774D01*
X174808691Y-100746398D01*
X174795752Y-100790752D01*
X174742219Y-100895815D01*
X174664397Y-101135330D01*
X174625000Y-101384071D01*
X174625000Y-101635928D01*
X174664397Y-101884669D01*
X174742219Y-102124184D01*
X174856557Y-102348583D01*
X174930748Y-102450697D01*
X174930748Y-102450698D01*
X175585689Y-101795756D01*
X175604668Y-101841574D01*
X175681274Y-101956224D01*
X175778776Y-102053726D01*
X175893426Y-102130332D01*
X175939242Y-102149309D01*
X175284300Y-102804250D01*
X175386416Y-102878442D01*
X175610815Y-102992780D01*
X175850330Y-103070602D01*
X176099072Y-103110000D01*
X176350928Y-103110000D01*
X176599669Y-103070602D01*
X176839184Y-102992780D01*
X177063575Y-102878446D01*
X177063581Y-102878442D01*
X177165697Y-102804250D01*
X177165698Y-102804250D01*
X176510757Y-102149309D01*
X176556574Y-102130332D01*
X176671224Y-102053726D01*
X176768726Y-101956224D01*
X176845332Y-101841574D01*
X176864309Y-101795757D01*
X177519250Y-102450698D01*
X177519250Y-102450697D01*
X177593442Y-102348581D01*
X177593446Y-102348575D01*
X177707780Y-102124184D01*
X177758069Y-101969410D01*
X177797506Y-101911735D01*
X177861865Y-101884536D01*
X177930711Y-101896450D01*
X177982187Y-101943694D01*
X178000000Y-102007728D01*
X178000000Y-148835500D01*
X177980315Y-148902539D01*
X177927511Y-148948294D01*
X177876000Y-148959500D01*
X78224500Y-148959500D01*
X78157461Y-148939815D01*
X78111706Y-148887011D01*
X78100500Y-148835500D01*
X78100500Y-138126779D01*
X79587500Y-138126779D01*
X79587500Y-138343220D01*
X79621357Y-138556981D01*
X79688235Y-138762814D01*
X79688236Y-138762817D01*
X79786496Y-138955660D01*
X79829329Y-139014615D01*
X79829330Y-139014616D01*
X80483619Y-138360326D01*
X80501234Y-138426063D01*
X80566402Y-138538937D01*
X80658563Y-138631098D01*
X80771437Y-138696266D01*
X80837172Y-138713880D01*
X80182882Y-139368168D01*
X80241842Y-139411005D01*
X80434682Y-139509263D01*
X80434685Y-139509264D01*
X80640518Y-139576142D01*
X80854280Y-139610000D01*
X81070720Y-139610000D01*
X81284481Y-139576142D01*
X81490314Y-139509264D01*
X81490317Y-139509263D01*
X81683157Y-139411005D01*
X81705114Y-139395053D01*
X81770920Y-139371573D01*
X81838974Y-139387398D01*
X81887669Y-139437503D01*
X81902000Y-139495371D01*
X81902000Y-139607026D01*
X81933851Y-139808127D01*
X81940179Y-139848076D01*
X82015596Y-140080185D01*
X82121213Y-140287471D01*
X82126396Y-140297642D01*
X82269839Y-140495076D01*
X82269843Y-140495081D01*
X82442418Y-140667656D01*
X82442423Y-140667660D01*
X82614636Y-140792779D01*
X82639861Y-140811106D01*
X82857315Y-140921904D01*
X83089424Y-140997321D01*
X83330473Y-141035500D01*
X83330474Y-141035500D01*
X83574526Y-141035500D01*
X83574527Y-141035500D01*
X83815576Y-140997321D01*
X84047685Y-140921904D01*
X84265139Y-140811106D01*
X84462583Y-140667655D01*
X84635155Y-140495083D01*
X84778606Y-140297639D01*
X84889404Y-140080185D01*
X84964821Y-139848076D01*
X85003000Y-139607027D01*
X85003000Y-139362973D01*
X84964821Y-139121924D01*
X84889404Y-138889815D01*
X84778606Y-138672361D01*
X84725342Y-138599049D01*
X84635160Y-138474923D01*
X84635156Y-138474918D01*
X84462581Y-138302343D01*
X84462576Y-138302339D01*
X84265142Y-138158896D01*
X84265141Y-138158895D01*
X84265139Y-138158894D01*
X84047685Y-138048096D01*
X83815576Y-137972679D01*
X83815574Y-137972678D01*
X83815572Y-137972678D01*
X83647269Y-137946021D01*
X83574527Y-137934500D01*
X83330473Y-137934500D01*
X83274593Y-137943350D01*
X83089427Y-137972678D01*
X82857312Y-138048097D01*
X82639861Y-138158893D01*
X82534385Y-138235526D01*
X82468578Y-138259005D01*
X82400524Y-138243179D01*
X82351830Y-138193073D01*
X82337500Y-138135207D01*
X82337500Y-138126779D01*
X82303642Y-137913018D01*
X82236764Y-137707185D01*
X82236763Y-137707182D01*
X82138505Y-137514342D01*
X82095668Y-137455383D01*
X82095668Y-137455382D01*
X81441380Y-138109672D01*
X81423766Y-138043937D01*
X81358598Y-137931063D01*
X81266437Y-137838902D01*
X81153563Y-137773734D01*
X81087826Y-137756119D01*
X81742116Y-137101830D01*
X81742115Y-137101829D01*
X81683160Y-137058996D01*
X81490317Y-136960736D01*
X81490314Y-136960735D01*
X81284481Y-136893857D01*
X81070720Y-136860000D01*
X80854280Y-136860000D01*
X80640518Y-136893857D01*
X80434685Y-136960735D01*
X80434682Y-136960736D01*
X80241846Y-137058992D01*
X80182883Y-137101830D01*
X80837173Y-137756119D01*
X80771437Y-137773734D01*
X80658563Y-137838902D01*
X80566402Y-137931063D01*
X80501234Y-138043937D01*
X80483619Y-138109672D01*
X79829330Y-137455383D01*
X79786492Y-137514346D01*
X79688236Y-137707182D01*
X79688235Y-137707185D01*
X79621357Y-137913018D01*
X79587500Y-138126779D01*
X78100500Y-138126779D01*
X78100500Y-116574778D01*
X78699500Y-116574778D01*
X78699500Y-116795222D01*
X78709445Y-116858009D01*
X78733985Y-117012952D01*
X78802103Y-117222603D01*
X78802104Y-117222606D01*
X78857674Y-117331666D01*
X78894191Y-117403334D01*
X78902187Y-117419025D01*
X79031752Y-117597358D01*
X79031756Y-117597363D01*
X79187636Y-117753243D01*
X79187641Y-117753247D01*
X79275729Y-117817246D01*
X79365978Y-117882815D01*
X79494375Y-117948237D01*
X79562393Y-117982895D01*
X79562396Y-117982896D01*
X79667221Y-118016955D01*
X79772049Y-118051015D01*
X79989778Y-118085500D01*
X79989779Y-118085500D01*
X80210221Y-118085500D01*
X80210222Y-118085500D01*
X80427951Y-118051015D01*
X80637606Y-117982895D01*
X80834022Y-117882815D01*
X81012365Y-117753242D01*
X81168242Y-117597365D01*
X81297815Y-117419022D01*
X81397895Y-117222606D01*
X81466015Y-117012951D01*
X81500500Y-116795222D01*
X81500500Y-116574778D01*
X81466015Y-116357049D01*
X81454844Y-116322667D01*
X81453987Y-116320029D01*
X81443118Y-116286577D01*
X81879500Y-116286577D01*
X81879500Y-116483422D01*
X81910290Y-116677826D01*
X81971117Y-116865029D01*
X82046488Y-117012952D01*
X82060476Y-117040405D01*
X82176172Y-117199646D01*
X82315354Y-117338828D01*
X82474595Y-117454524D01*
X82521084Y-117478211D01*
X82649970Y-117543882D01*
X82649972Y-117543882D01*
X82649975Y-117543884D01*
X82750245Y-117576464D01*
X82837173Y-117604709D01*
X83031578Y-117635500D01*
X83031583Y-117635500D01*
X83228422Y-117635500D01*
X83422826Y-117604709D01*
X83445428Y-117597365D01*
X83610025Y-117543884D01*
X83785405Y-117454524D01*
X83944646Y-117338828D01*
X84083828Y-117199646D01*
X84199524Y-117040405D01*
X84288884Y-116865025D01*
X84349709Y-116677826D01*
X84375953Y-116512128D01*
X84380500Y-116483422D01*
X84380500Y-116286577D01*
X84349709Y-116092173D01*
X84288882Y-115904970D01*
X84235670Y-115800536D01*
X84199524Y-115729595D01*
X84083828Y-115570354D01*
X83944646Y-115431172D01*
X83785405Y-115315476D01*
X83763061Y-115304091D01*
X83610029Y-115226117D01*
X83422826Y-115165290D01*
X83228422Y-115134500D01*
X83228417Y-115134500D01*
X83031583Y-115134500D01*
X83031578Y-115134500D01*
X82837173Y-115165290D01*
X82649970Y-115226117D01*
X82474594Y-115315476D01*
X82412573Y-115360538D01*
X82315354Y-115431172D01*
X82315352Y-115431174D01*
X82315351Y-115431174D01*
X82176174Y-115570351D01*
X82176174Y-115570352D01*
X82176172Y-115570354D01*
X82137907Y-115623021D01*
X82060476Y-115729594D01*
X81971117Y-115904970D01*
X81910290Y-116092173D01*
X81879500Y-116286577D01*
X81443118Y-116286577D01*
X81397896Y-116147396D01*
X81397895Y-116147393D01*
X81353110Y-116059500D01*
X81297815Y-115950978D01*
X81264392Y-115904975D01*
X81168247Y-115772641D01*
X81168243Y-115772636D01*
X81012363Y-115616756D01*
X81012358Y-115616752D01*
X80834025Y-115487187D01*
X80834024Y-115487186D01*
X80834022Y-115487185D01*
X80751917Y-115445350D01*
X80637606Y-115387104D01*
X80637603Y-115387103D01*
X80427952Y-115318985D01*
X80319086Y-115301742D01*
X80210222Y-115284500D01*
X79989778Y-115284500D01*
X79917201Y-115295995D01*
X79772047Y-115318985D01*
X79562396Y-115387103D01*
X79562393Y-115387104D01*
X79365974Y-115487187D01*
X79187641Y-115616752D01*
X79187636Y-115616756D01*
X79031756Y-115772636D01*
X79031752Y-115772641D01*
X78902187Y-115950974D01*
X78802104Y-116147393D01*
X78802103Y-116147396D01*
X78733985Y-116357047D01*
X78709425Y-116512116D01*
X78699500Y-116574778D01*
X78100500Y-116574778D01*
X78100500Y-111124778D01*
X78699500Y-111124778D01*
X78699500Y-111345221D01*
X78733985Y-111562952D01*
X78802103Y-111772603D01*
X78802104Y-111772606D01*
X78849638Y-111865894D01*
X78886589Y-111938414D01*
X78902187Y-111969025D01*
X79031752Y-112147358D01*
X79031756Y-112147363D01*
X79187636Y-112303243D01*
X79187641Y-112303247D01*
X79265892Y-112360099D01*
X79365978Y-112432815D01*
X79475903Y-112488825D01*
X79562393Y-112532895D01*
X79562396Y-112532896D01*
X79667221Y-112566955D01*
X79772049Y-112601015D01*
X79989778Y-112635500D01*
X79989779Y-112635500D01*
X80210221Y-112635500D01*
X80210222Y-112635500D01*
X80427951Y-112601015D01*
X80637606Y-112532895D01*
X80834022Y-112432815D01*
X81012365Y-112303242D01*
X81168242Y-112147365D01*
X81297815Y-111969022D01*
X81397895Y-111772606D01*
X81466015Y-111562951D01*
X81486030Y-111436577D01*
X81879500Y-111436577D01*
X81879500Y-111633422D01*
X81910290Y-111827826D01*
X81971117Y-112015029D01*
X82038545Y-112147363D01*
X82060476Y-112190405D01*
X82176172Y-112349646D01*
X82315354Y-112488828D01*
X82474595Y-112604524D01*
X82499452Y-112617189D01*
X82649970Y-112693882D01*
X82649972Y-112693882D01*
X82649975Y-112693884D01*
X82750317Y-112726487D01*
X82837173Y-112754709D01*
X83031578Y-112785500D01*
X83031583Y-112785500D01*
X83228422Y-112785500D01*
X83422826Y-112754709D01*
X83449109Y-112746169D01*
X83610025Y-112693884D01*
X83785405Y-112604524D01*
X83944646Y-112488828D01*
X84083828Y-112349646D01*
X84199524Y-112190405D01*
X84288884Y-112015025D01*
X84349709Y-111827826D01*
X84380500Y-111633422D01*
X84380500Y-111436577D01*
X84349709Y-111242173D01*
X84311799Y-111125500D01*
X84288884Y-111054975D01*
X84288882Y-111054972D01*
X84288882Y-111054970D01*
X84199523Y-110879594D01*
X84083828Y-110720354D01*
X83944646Y-110581172D01*
X83785405Y-110465476D01*
X83610029Y-110376117D01*
X83422826Y-110315290D01*
X83228422Y-110284500D01*
X83228417Y-110284500D01*
X83031583Y-110284500D01*
X83031578Y-110284500D01*
X82837173Y-110315290D01*
X82649970Y-110376117D01*
X82474594Y-110465476D01*
X82416227Y-110507883D01*
X82315354Y-110581172D01*
X82315352Y-110581174D01*
X82315351Y-110581174D01*
X82176174Y-110720351D01*
X82176174Y-110720352D01*
X82176172Y-110720354D01*
X82126485Y-110788741D01*
X82060476Y-110879594D01*
X81971117Y-111054970D01*
X81910290Y-111242173D01*
X81879500Y-111436577D01*
X81486030Y-111436577D01*
X81487619Y-111426547D01*
X81489874Y-111412313D01*
X81489874Y-111412312D01*
X81500500Y-111345222D01*
X81500500Y-111124778D01*
X81494784Y-111088691D01*
X81466015Y-110907049D01*
X81430546Y-110797884D01*
X81397896Y-110697396D01*
X81397895Y-110697393D01*
X81344227Y-110592066D01*
X81297815Y-110500978D01*
X81243312Y-110425961D01*
X81168247Y-110322641D01*
X81168243Y-110322636D01*
X81012363Y-110166756D01*
X81012358Y-110166752D01*
X80834025Y-110037187D01*
X80834024Y-110037186D01*
X80834022Y-110037185D01*
X80771096Y-110005122D01*
X80637606Y-109937104D01*
X80637603Y-109937103D01*
X80427952Y-109868985D01*
X80234176Y-109838294D01*
X80210222Y-109834500D01*
X79989778Y-109834500D01*
X79965824Y-109838294D01*
X79772047Y-109868985D01*
X79562396Y-109937103D01*
X79562393Y-109937104D01*
X79365974Y-110037187D01*
X79187641Y-110166752D01*
X79187636Y-110166756D01*
X79031756Y-110322636D01*
X79031752Y-110322641D01*
X78902187Y-110500974D01*
X78802104Y-110697393D01*
X78802103Y-110697396D01*
X78733985Y-110907047D01*
X78699500Y-111124778D01*
X78100500Y-111124778D01*
X78100500Y-104963713D01*
X78619500Y-104963713D01*
X78619500Y-105176286D01*
X78652753Y-105386239D01*
X78718444Y-105588414D01*
X78814951Y-105777820D01*
X78939890Y-105949786D01*
X79090213Y-106100109D01*
X79262179Y-106225048D01*
X79262181Y-106225049D01*
X79262184Y-106225051D01*
X79451588Y-106321557D01*
X79653757Y-106387246D01*
X79863713Y-106420500D01*
X79863714Y-106420500D01*
X80076286Y-106420500D01*
X80076287Y-106420500D01*
X80286243Y-106387246D01*
X80488412Y-106321557D01*
X80677816Y-106225051D01*
X80764138Y-106162335D01*
X80849786Y-106100109D01*
X80849788Y-106100106D01*
X80849792Y-106100104D01*
X81000104Y-105949792D01*
X81000106Y-105949788D01*
X81000109Y-105949786D01*
X81125048Y-105777820D01*
X81125047Y-105777820D01*
X81125051Y-105777816D01*
X81129514Y-105769054D01*
X81177488Y-105718259D01*
X81245308Y-105701463D01*
X81311444Y-105723999D01*
X81350486Y-105769056D01*
X81354951Y-105777820D01*
X81479890Y-105949786D01*
X81630213Y-106100109D01*
X81802179Y-106225048D01*
X81802181Y-106225049D01*
X81802184Y-106225051D01*
X81991588Y-106321557D01*
X82193757Y-106387246D01*
X82403713Y-106420500D01*
X82403714Y-106420500D01*
X82616286Y-106420500D01*
X82616287Y-106420500D01*
X82826243Y-106387246D01*
X83028412Y-106321557D01*
X83217816Y-106225051D01*
X83304478Y-106162088D01*
X83389784Y-106100110D01*
X83389784Y-106100109D01*
X83389792Y-106100104D01*
X83503717Y-105986178D01*
X83565036Y-105952696D01*
X83634728Y-105957680D01*
X83690662Y-105999551D01*
X83707577Y-106030528D01*
X83756646Y-106162088D01*
X83756649Y-106162093D01*
X83842809Y-106277187D01*
X83842812Y-106277190D01*
X83957906Y-106363350D01*
X83957913Y-106363354D01*
X84092620Y-106413596D01*
X84092627Y-106413598D01*
X84152155Y-106419999D01*
X84152172Y-106420000D01*
X84800000Y-106420000D01*
X84800000Y-105514560D01*
X84853147Y-105545245D01*
X84982857Y-105580000D01*
X85117143Y-105580000D01*
X85246853Y-105545245D01*
X85300000Y-105514560D01*
X85300000Y-106420000D01*
X85947828Y-106420000D01*
X85947844Y-106419999D01*
X86007372Y-106413598D01*
X86007379Y-106413596D01*
X86142086Y-106363354D01*
X86142093Y-106363350D01*
X86257187Y-106277190D01*
X86257190Y-106277187D01*
X86343350Y-106162093D01*
X86343354Y-106162086D01*
X86392422Y-106030529D01*
X86434293Y-105974595D01*
X86499757Y-105950178D01*
X86568030Y-105965030D01*
X86596285Y-105986181D01*
X86710213Y-106100109D01*
X86882179Y-106225048D01*
X86882181Y-106225049D01*
X86882184Y-106225051D01*
X87071588Y-106321557D01*
X87273757Y-106387246D01*
X87483713Y-106420500D01*
X87483714Y-106420500D01*
X87696286Y-106420500D01*
X87696287Y-106420500D01*
X87906243Y-106387246D01*
X88108412Y-106321557D01*
X88297816Y-106225051D01*
X88384138Y-106162335D01*
X88469786Y-106100109D01*
X88469788Y-106100106D01*
X88469792Y-106100104D01*
X88620104Y-105949792D01*
X88620106Y-105949788D01*
X88620109Y-105949786D01*
X88745048Y-105777820D01*
X88745047Y-105777820D01*
X88745051Y-105777816D01*
X88749514Y-105769054D01*
X88797488Y-105718259D01*
X88865308Y-105701463D01*
X88931444Y-105723999D01*
X88970486Y-105769056D01*
X88974951Y-105777820D01*
X89099890Y-105949786D01*
X89250213Y-106100109D01*
X89422179Y-106225048D01*
X89422181Y-106225049D01*
X89422184Y-106225051D01*
X89611588Y-106321557D01*
X89813757Y-106387246D01*
X90023713Y-106420500D01*
X90023714Y-106420500D01*
X90236286Y-106420500D01*
X90236287Y-106420500D01*
X90446243Y-106387246D01*
X90648412Y-106321557D01*
X90837816Y-106225051D01*
X90924138Y-106162335D01*
X91009786Y-106100109D01*
X91009788Y-106100106D01*
X91009792Y-106100104D01*
X91160104Y-105949792D01*
X91160106Y-105949788D01*
X91160109Y-105949786D01*
X91285048Y-105777820D01*
X91285047Y-105777820D01*
X91285051Y-105777816D01*
X91289514Y-105769054D01*
X91337488Y-105718259D01*
X91405308Y-105701463D01*
X91471444Y-105723999D01*
X91510486Y-105769056D01*
X91514951Y-105777820D01*
X91639890Y-105949786D01*
X91790213Y-106100109D01*
X91962179Y-106225048D01*
X91962181Y-106225049D01*
X91962184Y-106225051D01*
X92151588Y-106321557D01*
X92353757Y-106387246D01*
X92563713Y-106420500D01*
X92563714Y-106420500D01*
X92776286Y-106420500D01*
X92776287Y-106420500D01*
X92986243Y-106387246D01*
X93188412Y-106321557D01*
X93377816Y-106225051D01*
X93464138Y-106162335D01*
X93549786Y-106100109D01*
X93549788Y-106100106D01*
X93549792Y-106100104D01*
X93700104Y-105949792D01*
X93700106Y-105949788D01*
X93700109Y-105949786D01*
X93825048Y-105777820D01*
X93825047Y-105777820D01*
X93825051Y-105777816D01*
X93829514Y-105769054D01*
X93877488Y-105718259D01*
X93945308Y-105701463D01*
X94011444Y-105723999D01*
X94050486Y-105769056D01*
X94054951Y-105777820D01*
X94179890Y-105949786D01*
X94330213Y-106100109D01*
X94502179Y-106225048D01*
X94502181Y-106225049D01*
X94502184Y-106225051D01*
X94691588Y-106321557D01*
X94893757Y-106387246D01*
X95103713Y-106420500D01*
X95103714Y-106420500D01*
X95316286Y-106420500D01*
X95316287Y-106420500D01*
X95526243Y-106387246D01*
X95728412Y-106321557D01*
X95917816Y-106225051D01*
X96004478Y-106162088D01*
X96089784Y-106100110D01*
X96089784Y-106100109D01*
X96089792Y-106100104D01*
X96203329Y-105986566D01*
X96264648Y-105953084D01*
X96334340Y-105958068D01*
X96390274Y-105999939D01*
X96407189Y-106030917D01*
X96456202Y-106162328D01*
X96456206Y-106162335D01*
X96542452Y-106277544D01*
X96542455Y-106277547D01*
X96657664Y-106363793D01*
X96657671Y-106363797D01*
X96792517Y-106414091D01*
X96792516Y-106414091D01*
X96799444Y-106414835D01*
X96852127Y-106420500D01*
X98647872Y-106420499D01*
X98707483Y-106414091D01*
X98842331Y-106363796D01*
X98957546Y-106277546D01*
X99043796Y-106162331D01*
X99092810Y-106030916D01*
X99134681Y-105974984D01*
X99200145Y-105950566D01*
X99268418Y-105965417D01*
X99296673Y-105986569D01*
X99410213Y-106100109D01*
X99582179Y-106225048D01*
X99582181Y-106225049D01*
X99582184Y-106225051D01*
X99771588Y-106321557D01*
X99973757Y-106387246D01*
X100183713Y-106420500D01*
X100183714Y-106420500D01*
X100396286Y-106420500D01*
X100396287Y-106420500D01*
X100529658Y-106399376D01*
X100611055Y-106386484D01*
X100611315Y-106388128D01*
X100673852Y-106391250D01*
X100720711Y-106420657D01*
X102305325Y-108005272D01*
X102305332Y-108005278D01*
X102363451Y-108044111D01*
X102363453Y-108044112D01*
X102363456Y-108044114D01*
X102411873Y-108076465D01*
X102530256Y-108125501D01*
X102530260Y-108125501D01*
X102530261Y-108125502D01*
X102655928Y-108150500D01*
X102655931Y-108150500D01*
X103010031Y-108150500D01*
X103077070Y-108170185D01*
X103122825Y-108222989D01*
X103131649Y-108250312D01*
X103134105Y-108262663D01*
X103134106Y-108262667D01*
X103201983Y-108426540D01*
X103201990Y-108426553D01*
X103300535Y-108574034D01*
X103300538Y-108574038D01*
X103425961Y-108699461D01*
X103425965Y-108699464D01*
X103573446Y-108798009D01*
X103573459Y-108798016D01*
X103661534Y-108834497D01*
X103737334Y-108865894D01*
X103737336Y-108865894D01*
X103737341Y-108865896D01*
X103911304Y-108900499D01*
X103911307Y-108900500D01*
X103911309Y-108900500D01*
X104088693Y-108900500D01*
X104088694Y-108900499D01*
X104146682Y-108888964D01*
X104262658Y-108865896D01*
X104262661Y-108865894D01*
X104262666Y-108865894D01*
X104426547Y-108798013D01*
X104574035Y-108699464D01*
X104699464Y-108574035D01*
X104798013Y-108426547D01*
X104803986Y-108412128D01*
X104828678Y-108352514D01*
X104865894Y-108262666D01*
X104868352Y-108250312D01*
X104900499Y-108088695D01*
X104900500Y-108088693D01*
X104900500Y-107911306D01*
X104900499Y-107911304D01*
X104865896Y-107737341D01*
X104865893Y-107737332D01*
X104798016Y-107573459D01*
X104798009Y-107573446D01*
X104699464Y-107425965D01*
X104699461Y-107425961D01*
X104574038Y-107300538D01*
X104574034Y-107300535D01*
X104426553Y-107201990D01*
X104426540Y-107201983D01*
X104262667Y-107134106D01*
X104262658Y-107134103D01*
X104088694Y-107099500D01*
X104088691Y-107099500D01*
X104070808Y-107099500D01*
X104003769Y-107079815D01*
X103983131Y-107063185D01*
X103914669Y-106994723D01*
X103808127Y-106923535D01*
X103689744Y-106874499D01*
X103689738Y-106874497D01*
X103564071Y-106849500D01*
X103564069Y-106849500D01*
X103040808Y-106849500D01*
X102973769Y-106829815D01*
X102953127Y-106813181D01*
X102772127Y-106632181D01*
X102738642Y-106570858D01*
X102743626Y-106501166D01*
X102785498Y-106445233D01*
X102850962Y-106420816D01*
X102859808Y-106420500D01*
X102936286Y-106420500D01*
X102936287Y-106420500D01*
X103146243Y-106387246D01*
X103348412Y-106321557D01*
X103537816Y-106225051D01*
X103624138Y-106162335D01*
X103709786Y-106100109D01*
X103709788Y-106100106D01*
X103709792Y-106100104D01*
X103860104Y-105949792D01*
X103860106Y-105949788D01*
X103860109Y-105949786D01*
X103985048Y-105777820D01*
X103985047Y-105777820D01*
X103985051Y-105777816D01*
X103989514Y-105769054D01*
X104037488Y-105718259D01*
X104105308Y-105701463D01*
X104171444Y-105723999D01*
X104210486Y-105769056D01*
X104214951Y-105777820D01*
X104339890Y-105949786D01*
X104490213Y-106100109D01*
X104662179Y-106225048D01*
X104662181Y-106225049D01*
X104662184Y-106225051D01*
X104851588Y-106321557D01*
X105053757Y-106387246D01*
X105263713Y-106420500D01*
X105263714Y-106420500D01*
X105476286Y-106420500D01*
X105476287Y-106420500D01*
X105686243Y-106387246D01*
X105888412Y-106321557D01*
X106077816Y-106225051D01*
X106164138Y-106162335D01*
X106249786Y-106100109D01*
X106249788Y-106100106D01*
X106249792Y-106100104D01*
X106400104Y-105949792D01*
X106400106Y-105949788D01*
X106400109Y-105949786D01*
X106525048Y-105777820D01*
X106525047Y-105777820D01*
X106525051Y-105777816D01*
X106529514Y-105769054D01*
X106577488Y-105718259D01*
X106645308Y-105701463D01*
X106711444Y-105723999D01*
X106750486Y-105769056D01*
X106754951Y-105777820D01*
X106879890Y-105949786D01*
X106879896Y-105949792D01*
X107030208Y-106100104D01*
X107202184Y-106225051D01*
X107202188Y-106225053D01*
X107206126Y-106227914D01*
X107205146Y-106229262D01*
X107247160Y-106275690D01*
X107259500Y-106329617D01*
X107259500Y-109725500D01*
X107239815Y-109792539D01*
X107187011Y-109838294D01*
X107135500Y-109849500D01*
X93097458Y-109849500D01*
X92971790Y-109874497D01*
X92971784Y-109874499D01*
X92853399Y-109923535D01*
X92746860Y-109994722D01*
X92746853Y-109994728D01*
X80966319Y-121775262D01*
X80904996Y-121808747D01*
X80835304Y-121803763D01*
X80805753Y-121787899D01*
X80677820Y-121694951D01*
X80488414Y-121598444D01*
X80488413Y-121598443D01*
X80488412Y-121598443D01*
X80286243Y-121532754D01*
X80286241Y-121532753D01*
X80286240Y-121532753D01*
X80124957Y-121507208D01*
X80076287Y-121499500D01*
X79863713Y-121499500D01*
X79815042Y-121507208D01*
X79653760Y-121532753D01*
X79451585Y-121598444D01*
X79262179Y-121694951D01*
X79090213Y-121819890D01*
X78939890Y-121970213D01*
X78814951Y-122142179D01*
X78718444Y-122331585D01*
X78652753Y-122533760D01*
X78619500Y-122743713D01*
X78619500Y-122956286D01*
X78652753Y-123166239D01*
X78718444Y-123368414D01*
X78814951Y-123557820D01*
X78939890Y-123729786D01*
X79090213Y-123880109D01*
X79262179Y-124005048D01*
X79262181Y-124005049D01*
X79262184Y-124005051D01*
X79451588Y-124101557D01*
X79653757Y-124167246D01*
X79863713Y-124200500D01*
X79863714Y-124200500D01*
X80076286Y-124200500D01*
X80076287Y-124200500D01*
X80286243Y-124167246D01*
X80488412Y-124101557D01*
X80488413Y-124101556D01*
X80493046Y-124100051D01*
X80493495Y-124101435D01*
X80556483Y-124094646D01*
X80618970Y-124125903D01*
X80654640Y-124185982D01*
X80658500Y-124216682D01*
X80658500Y-132297398D01*
X80638815Y-132364437D01*
X80586011Y-132410192D01*
X80572818Y-132415329D01*
X80434493Y-132460272D01*
X80434490Y-132460273D01*
X80241580Y-132558567D01*
X80141645Y-132631174D01*
X80066422Y-132685828D01*
X80066420Y-132685830D01*
X80066419Y-132685830D01*
X79913330Y-132838919D01*
X79913330Y-132838920D01*
X79913328Y-132838922D01*
X79858674Y-132914145D01*
X79786067Y-133014080D01*
X79687773Y-133206990D01*
X79687772Y-133206993D01*
X79620870Y-133412901D01*
X79597226Y-133562181D01*
X79587000Y-133626746D01*
X79587000Y-133843254D01*
X79592628Y-133878788D01*
X79620870Y-134057098D01*
X79687772Y-134263006D01*
X79687773Y-134263009D01*
X79737211Y-134360035D01*
X79786067Y-134455919D01*
X79913328Y-134631078D01*
X80066422Y-134784172D01*
X80241581Y-134911433D01*
X80289441Y-134935819D01*
X80434490Y-135009726D01*
X80434493Y-135009727D01*
X80537447Y-135043178D01*
X80640403Y-135076630D01*
X80854246Y-135110500D01*
X80854247Y-135110500D01*
X81070753Y-135110500D01*
X81070754Y-135110500D01*
X81284597Y-135076630D01*
X81490509Y-135009726D01*
X81683419Y-134911433D01*
X81858578Y-134784172D01*
X82011672Y-134631078D01*
X82138933Y-134455919D01*
X82237226Y-134263009D01*
X82304130Y-134057097D01*
X82338000Y-133843254D01*
X82338000Y-133825155D01*
X82357685Y-133758116D01*
X82410489Y-133712361D01*
X82479647Y-133702417D01*
X82534885Y-133724837D01*
X82580690Y-133758116D01*
X82639861Y-133801106D01*
X82857315Y-133911904D01*
X83089424Y-133987321D01*
X83330473Y-134025500D01*
X83330474Y-134025500D01*
X83574526Y-134025500D01*
X83574527Y-134025500D01*
X83815576Y-133987321D01*
X84047685Y-133911904D01*
X84265139Y-133801106D01*
X84462583Y-133657655D01*
X84635155Y-133485083D01*
X84778606Y-133287639D01*
X84889404Y-133070185D01*
X84964821Y-132838076D01*
X85003000Y-132597027D01*
X85003000Y-132352973D01*
X84982038Y-132220628D01*
X84990992Y-132151337D01*
X85035988Y-132097885D01*
X85102740Y-132077245D01*
X85170053Y-132095970D01*
X85192192Y-132113551D01*
X87813181Y-134734540D01*
X87846666Y-134795863D01*
X87849500Y-134822221D01*
X87849500Y-136064069D01*
X87849500Y-136064071D01*
X87849499Y-136064071D01*
X87874497Y-136189738D01*
X87874499Y-136189744D01*
X87923533Y-136308124D01*
X87923538Y-136308133D01*
X87994723Y-136414668D01*
X87994726Y-136414672D01*
X88085327Y-136505273D01*
X88085331Y-136505276D01*
X88191866Y-136576461D01*
X88191872Y-136576464D01*
X88191873Y-136576465D01*
X88310256Y-136625501D01*
X88310260Y-136625501D01*
X88310261Y-136625502D01*
X88435928Y-136650500D01*
X88435931Y-136650500D01*
X88564069Y-136650500D01*
X94276638Y-136650500D01*
X94343677Y-136670185D01*
X94389432Y-136722989D01*
X94399376Y-136792147D01*
X94370351Y-136855703D01*
X94364319Y-136862181D01*
X94300538Y-136925961D01*
X94300535Y-136925965D01*
X94201990Y-137073446D01*
X94201983Y-137073459D01*
X94134106Y-137237332D01*
X94134103Y-137237341D01*
X94099500Y-137411304D01*
X94099500Y-137588695D01*
X94134103Y-137762658D01*
X94134106Y-137762667D01*
X94201983Y-137926540D01*
X94201990Y-137926553D01*
X94300534Y-138074033D01*
X94300535Y-138074034D01*
X94300536Y-138074035D01*
X94313180Y-138086679D01*
X94346665Y-138147999D01*
X94349500Y-138174361D01*
X94349500Y-139564070D01*
X94360780Y-139620774D01*
X94360780Y-139620776D01*
X94374497Y-139689736D01*
X94374499Y-139689744D01*
X94419345Y-139798013D01*
X94423535Y-139808127D01*
X94470288Y-139878099D01*
X94494726Y-139914673D01*
X94494727Y-139914674D01*
X95494723Y-140914669D01*
X98585325Y-144005272D01*
X98585326Y-144005273D01*
X98585329Y-144005275D01*
X98585331Y-144005277D01*
X98691873Y-144076465D01*
X98810256Y-144125501D01*
X98810260Y-144125501D01*
X98810261Y-144125502D01*
X98935928Y-144150500D01*
X98935931Y-144150500D01*
X150564071Y-144150500D01*
X150648615Y-144133682D01*
X150689744Y-144125501D01*
X150808127Y-144076465D01*
X150914669Y-144005276D01*
X151005276Y-143914669D01*
X151076465Y-143808127D01*
X151125501Y-143689744D01*
X151150500Y-143564069D01*
X151150500Y-138562135D01*
X171974500Y-138562135D01*
X171974500Y-140357870D01*
X171974501Y-140357876D01*
X171980908Y-140417483D01*
X172031202Y-140552328D01*
X172031206Y-140552335D01*
X172117452Y-140667544D01*
X172117455Y-140667547D01*
X172232664Y-140753793D01*
X172232671Y-140753797D01*
X172367517Y-140804091D01*
X172367516Y-140804091D01*
X172374444Y-140804835D01*
X172427127Y-140810500D01*
X174222872Y-140810499D01*
X174282483Y-140804091D01*
X174417331Y-140753796D01*
X174532546Y-140667546D01*
X174618796Y-140552331D01*
X174669091Y-140417483D01*
X174675500Y-140357873D01*
X174675499Y-140333979D01*
X174678330Y-140320963D01*
X174688940Y-140301525D01*
X174695179Y-140280275D01*
X174711803Y-140259643D01*
X174711808Y-140259636D01*
X174711811Y-140259634D01*
X174711818Y-140259626D01*
X175382037Y-139589408D01*
X175399075Y-139652993D01*
X175464901Y-139767007D01*
X175557993Y-139860099D01*
X175672007Y-139925925D01*
X175735590Y-139942962D01*
X175103282Y-140575269D01*
X175103282Y-140575270D01*
X175157449Y-140614624D01*
X175346782Y-140711095D01*
X175548870Y-140776757D01*
X175758754Y-140810000D01*
X175971246Y-140810000D01*
X176181127Y-140776757D01*
X176181130Y-140776757D01*
X176383217Y-140711095D01*
X176572554Y-140614622D01*
X176626716Y-140575270D01*
X176626717Y-140575270D01*
X175994408Y-139942962D01*
X176057993Y-139925925D01*
X176172007Y-139860099D01*
X176265099Y-139767007D01*
X176330925Y-139652993D01*
X176347962Y-139589408D01*
X176980270Y-140221717D01*
X176980270Y-140221716D01*
X177019622Y-140167554D01*
X177116095Y-139978217D01*
X177181757Y-139776130D01*
X177181757Y-139776127D01*
X177215000Y-139566246D01*
X177215000Y-139353753D01*
X177181757Y-139143872D01*
X177181757Y-139143869D01*
X177116095Y-138941782D01*
X177019624Y-138752449D01*
X176980270Y-138698282D01*
X176980269Y-138698282D01*
X176347962Y-139330590D01*
X176330925Y-139267007D01*
X176265099Y-139152993D01*
X176172007Y-139059901D01*
X176057993Y-138994075D01*
X175994409Y-138977037D01*
X176626716Y-138344728D01*
X176572550Y-138305375D01*
X176383217Y-138208904D01*
X176181129Y-138143242D01*
X175971246Y-138110000D01*
X175758754Y-138110000D01*
X175548872Y-138143242D01*
X175548869Y-138143242D01*
X175346782Y-138208904D01*
X175157439Y-138305380D01*
X175103282Y-138344727D01*
X175103282Y-138344728D01*
X175735591Y-138977037D01*
X175672007Y-138994075D01*
X175557993Y-139059901D01*
X175464901Y-139152993D01*
X175399075Y-139267007D01*
X175382037Y-139330591D01*
X174711818Y-138660372D01*
X174678333Y-138599049D01*
X174678330Y-138599036D01*
X174675499Y-138586015D01*
X174675499Y-138562128D01*
X174669091Y-138502517D01*
X174640576Y-138426063D01*
X174618798Y-138367673D01*
X174618793Y-138367664D01*
X174532547Y-138252455D01*
X174532544Y-138252452D01*
X174417335Y-138166206D01*
X174417328Y-138166202D01*
X174282482Y-138115908D01*
X174282483Y-138115908D01*
X174222883Y-138109501D01*
X174222881Y-138109500D01*
X174222873Y-138109500D01*
X174222864Y-138109500D01*
X172427129Y-138109500D01*
X172427123Y-138109501D01*
X172367516Y-138115908D01*
X172232671Y-138166202D01*
X172232664Y-138166206D01*
X172117455Y-138252452D01*
X172117452Y-138252455D01*
X172031206Y-138367664D01*
X172031202Y-138367671D01*
X171980908Y-138502517D01*
X171974501Y-138562116D01*
X171974500Y-138562135D01*
X151150500Y-138562135D01*
X151150500Y-135758733D01*
X151170185Y-135691694D01*
X151186819Y-135671052D01*
X151922052Y-134935819D01*
X151983375Y-134902334D01*
X152009733Y-134899500D01*
X155213089Y-134899500D01*
X155297633Y-134882682D01*
X155338762Y-134874501D01*
X155457145Y-134825465D01*
X155563687Y-134754277D01*
X157976061Y-132341902D01*
X168099500Y-132341902D01*
X168099500Y-132578097D01*
X168136446Y-132811368D01*
X168209433Y-133035996D01*
X168292725Y-133199464D01*
X168316657Y-133246433D01*
X168455483Y-133437510D01*
X168622490Y-133604517D01*
X168813567Y-133743343D01*
X168940713Y-133808127D01*
X169021941Y-133849515D01*
X169072737Y-133897490D01*
X169089532Y-133965311D01*
X169066995Y-134031446D01*
X169021941Y-134070485D01*
X168813566Y-134176657D01*
X168713178Y-134249594D01*
X168622490Y-134315483D01*
X168622488Y-134315485D01*
X168622487Y-134315485D01*
X168455485Y-134482487D01*
X168455485Y-134482488D01*
X168455483Y-134482490D01*
X168395862Y-134564550D01*
X168316657Y-134673566D01*
X168209433Y-134884003D01*
X168136446Y-135108631D01*
X168099500Y-135341902D01*
X168099500Y-135578097D01*
X168136446Y-135811368D01*
X168209433Y-136035996D01*
X168316657Y-136246433D01*
X168455483Y-136437510D01*
X168622490Y-136604517D01*
X168813567Y-136743343D01*
X168909350Y-136792147D01*
X169024003Y-136850566D01*
X169024005Y-136850566D01*
X169024008Y-136850568D01*
X169144412Y-136889689D01*
X169248631Y-136923553D01*
X169481903Y-136960500D01*
X169481908Y-136960500D01*
X169718097Y-136960500D01*
X169951368Y-136923553D01*
X170175992Y-136850568D01*
X170386433Y-136743343D01*
X170577510Y-136604517D01*
X170744517Y-136437510D01*
X170883343Y-136246433D01*
X170990568Y-136035992D01*
X171063553Y-135811368D01*
X171100500Y-135578097D01*
X171100500Y-135341902D01*
X171063553Y-135108631D01*
X170999479Y-134911433D01*
X170990568Y-134884008D01*
X170990566Y-134884005D01*
X170990566Y-134884003D01*
X170883342Y-134673566D01*
X170852474Y-134631080D01*
X170744517Y-134482490D01*
X170577510Y-134315483D01*
X170386433Y-134176657D01*
X170178057Y-134070484D01*
X170127262Y-134022511D01*
X170110467Y-133954690D01*
X170133004Y-133888555D01*
X170178057Y-133849515D01*
X170386433Y-133743343D01*
X170577510Y-133604517D01*
X170744517Y-133437510D01*
X170883343Y-133246433D01*
X170990568Y-133035992D01*
X171063553Y-132811368D01*
X171100500Y-132578097D01*
X171100500Y-132341902D01*
X171063553Y-132108631D01*
X171004390Y-131926547D01*
X170990568Y-131884008D01*
X170990566Y-131884005D01*
X170990566Y-131884003D01*
X170892579Y-131691694D01*
X170883342Y-131673566D01*
X170744517Y-131482490D01*
X170577510Y-131315483D01*
X170386433Y-131176657D01*
X170359231Y-131162797D01*
X170175996Y-131069433D01*
X169951368Y-130996446D01*
X169718097Y-130959500D01*
X169718092Y-130959500D01*
X169481908Y-130959500D01*
X169481903Y-130959500D01*
X169248631Y-130996446D01*
X169024003Y-131069433D01*
X168813566Y-131176657D01*
X168717900Y-131246163D01*
X168622490Y-131315483D01*
X168622488Y-131315485D01*
X168622487Y-131315485D01*
X168455485Y-131482487D01*
X168455485Y-131482488D01*
X168455483Y-131482490D01*
X168414773Y-131538523D01*
X168316657Y-131673566D01*
X168209433Y-131884003D01*
X168136446Y-132108631D01*
X168099500Y-132341902D01*
X157976061Y-132341902D01*
X159382709Y-130935253D01*
X159444030Y-130901770D01*
X159513722Y-130906754D01*
X159569655Y-130948626D01*
X159594072Y-131014090D01*
X159594388Y-131022933D01*
X159594388Y-131059999D01*
X159594389Y-131060019D01*
X159604888Y-131162796D01*
X159604889Y-131162799D01*
X159632517Y-131246174D01*
X159660074Y-131329334D01*
X159752176Y-131478656D01*
X159876232Y-131602712D01*
X160025554Y-131694814D01*
X160192091Y-131749999D01*
X160294879Y-131760500D01*
X161494896Y-131760499D01*
X161597685Y-131749999D01*
X161764222Y-131694814D01*
X161913544Y-131602712D01*
X162037600Y-131478656D01*
X162129702Y-131329334D01*
X162144314Y-131285237D01*
X162184083Y-131227796D01*
X162248599Y-131200972D01*
X162317375Y-131213286D01*
X162362336Y-131251358D01*
X162402920Y-131307217D01*
X162547674Y-131451971D01*
X162666805Y-131538523D01*
X162713278Y-131572287D01*
X162818672Y-131625988D01*
X162895664Y-131665218D01*
X162895666Y-131665218D01*
X162895669Y-131665220D01*
X162949338Y-131682658D01*
X163090353Y-131728477D01*
X163181504Y-131742914D01*
X163292536Y-131760500D01*
X163292537Y-131760500D01*
X163497239Y-131760500D01*
X163497240Y-131760500D01*
X163699422Y-131728477D01*
X163894107Y-131665220D01*
X164076498Y-131572287D01*
X164205370Y-131478657D01*
X164242101Y-131451971D01*
X164242103Y-131451968D01*
X164242107Y-131451966D01*
X164386854Y-131307219D01*
X164386856Y-131307215D01*
X164386859Y-131307213D01*
X164455100Y-131213286D01*
X164507175Y-131141610D01*
X164600108Y-130959219D01*
X164663365Y-130764534D01*
X164695388Y-130562352D01*
X164695388Y-130357648D01*
X164692901Y-130341947D01*
X173100000Y-130341947D01*
X173100000Y-130578052D01*
X173136934Y-130811247D01*
X173209897Y-131035802D01*
X173317087Y-131246174D01*
X173377338Y-131329104D01*
X173377340Y-131329105D01*
X174035387Y-130671058D01*
X174040889Y-130691591D01*
X174119881Y-130828408D01*
X174231592Y-130940119D01*
X174368409Y-131019111D01*
X174388940Y-131024612D01*
X173730893Y-131682658D01*
X173813828Y-131742914D01*
X174024197Y-131850102D01*
X174248752Y-131923065D01*
X174248751Y-131923065D01*
X174481948Y-131960000D01*
X174718052Y-131960000D01*
X174951247Y-131923065D01*
X175175802Y-131850102D01*
X175386163Y-131742918D01*
X175386169Y-131742914D01*
X175469104Y-131682658D01*
X175469105Y-131682658D01*
X174811058Y-131024612D01*
X174831591Y-131019111D01*
X174968408Y-130940119D01*
X175080119Y-130828408D01*
X175159111Y-130691591D01*
X175164612Y-130671059D01*
X175822658Y-131329105D01*
X175822658Y-131329104D01*
X175882914Y-131246169D01*
X175882918Y-131246163D01*
X175990102Y-131035802D01*
X176063065Y-130811247D01*
X176100000Y-130578052D01*
X176100000Y-130341947D01*
X176063065Y-130108752D01*
X175990102Y-129884197D01*
X175882914Y-129673828D01*
X175822658Y-129590894D01*
X175822658Y-129590893D01*
X175164612Y-130248940D01*
X175159111Y-130228409D01*
X175080119Y-130091592D01*
X174968408Y-129979881D01*
X174831591Y-129900889D01*
X174811059Y-129895387D01*
X175469105Y-129237340D01*
X175469104Y-129237338D01*
X175386174Y-129177087D01*
X175175802Y-129069897D01*
X174951247Y-128996934D01*
X174951248Y-128996934D01*
X174718052Y-128960000D01*
X174481948Y-128960000D01*
X174248752Y-128996934D01*
X174024197Y-129069897D01*
X173813830Y-129177084D01*
X173730894Y-129237340D01*
X174388941Y-129895387D01*
X174368409Y-129900889D01*
X174231592Y-129979881D01*
X174119881Y-130091592D01*
X174040889Y-130228409D01*
X174035387Y-130248941D01*
X173377340Y-129590894D01*
X173317084Y-129673830D01*
X173209897Y-129884197D01*
X173136934Y-130108752D01*
X173100000Y-130341947D01*
X164692901Y-130341947D01*
X164685378Y-130294450D01*
X164663365Y-130155465D01*
X164633262Y-130062817D01*
X164600108Y-129960781D01*
X164600106Y-129960778D01*
X164600106Y-129960776D01*
X164561086Y-129884197D01*
X164507175Y-129778390D01*
X164481712Y-129743343D01*
X164386859Y-129612786D01*
X164242101Y-129468028D01*
X164076501Y-129347715D01*
X164076500Y-129347714D01*
X164076498Y-129347713D01*
X164016786Y-129317288D01*
X163894111Y-129254781D01*
X163699422Y-129191522D01*
X163524883Y-129163878D01*
X163497240Y-129159500D01*
X163292536Y-129159500D01*
X163268217Y-129163351D01*
X163090353Y-129191522D01*
X162895664Y-129254781D01*
X162713274Y-129347715D01*
X162547674Y-129468028D01*
X162402920Y-129612782D01*
X162402919Y-129612784D01*
X162362335Y-129668642D01*
X162307005Y-129711307D01*
X162237391Y-129717285D01*
X162175597Y-129684678D01*
X162144313Y-129634760D01*
X162129702Y-129590666D01*
X162037600Y-129441344D01*
X161913544Y-129317288D01*
X161764222Y-129225186D01*
X161597685Y-129170001D01*
X161597683Y-129170000D01*
X161494904Y-129159500D01*
X161494897Y-129159500D01*
X161457825Y-129159500D01*
X161390786Y-129139815D01*
X161345031Y-129087011D01*
X161335087Y-129017853D01*
X161364112Y-128954297D01*
X161370144Y-128947819D01*
X163141306Y-127176657D01*
X164976061Y-125341902D01*
X168099500Y-125341902D01*
X168099500Y-125578097D01*
X168136446Y-125811368D01*
X168209433Y-126035996D01*
X168292725Y-126199464D01*
X168316657Y-126246433D01*
X168455483Y-126437510D01*
X168622490Y-126604517D01*
X168813567Y-126743343D01*
X168925813Y-126800535D01*
X169021941Y-126849515D01*
X169072737Y-126897490D01*
X169089532Y-126965311D01*
X169066995Y-127031446D01*
X169021941Y-127070485D01*
X168813566Y-127176657D01*
X168730043Y-127237341D01*
X168622490Y-127315483D01*
X168622488Y-127315485D01*
X168622487Y-127315485D01*
X168455485Y-127482487D01*
X168455485Y-127482488D01*
X168455483Y-127482490D01*
X168411413Y-127543147D01*
X168316657Y-127673566D01*
X168209433Y-127884003D01*
X168136446Y-128108631D01*
X168099500Y-128341902D01*
X168099500Y-128578097D01*
X168136446Y-128811368D01*
X168209433Y-129035996D01*
X168248042Y-129111769D01*
X168316657Y-129246433D01*
X168455483Y-129437510D01*
X168622490Y-129604517D01*
X168813567Y-129743343D01*
X168840769Y-129757203D01*
X169024003Y-129850566D01*
X169024005Y-129850566D01*
X169024008Y-129850568D01*
X169071183Y-129865896D01*
X169248631Y-129923553D01*
X169481903Y-129960500D01*
X169481908Y-129960500D01*
X169718097Y-129960500D01*
X169951368Y-129923553D01*
X170021120Y-129900889D01*
X170175992Y-129850568D01*
X170386433Y-129743343D01*
X170577510Y-129604517D01*
X170744517Y-129437510D01*
X170883343Y-129246433D01*
X170990568Y-129035992D01*
X171063553Y-128811368D01*
X171075279Y-128737332D01*
X171100500Y-128578097D01*
X171100500Y-128341902D01*
X171063553Y-128108631D01*
X171004390Y-127926547D01*
X170990568Y-127884008D01*
X170990566Y-127884005D01*
X170990566Y-127884003D01*
X170883342Y-127673566D01*
X170744517Y-127482490D01*
X170577510Y-127315483D01*
X170386433Y-127176657D01*
X170178057Y-127070484D01*
X170127262Y-127022511D01*
X170110467Y-126954690D01*
X170133004Y-126888555D01*
X170178057Y-126849515D01*
X170386433Y-126743343D01*
X170577510Y-126604517D01*
X170744517Y-126437510D01*
X170883343Y-126246433D01*
X170990568Y-126035992D01*
X171063553Y-125811368D01*
X171064374Y-125806182D01*
X171100500Y-125578097D01*
X171100500Y-125341902D01*
X171063553Y-125108631D01*
X171005367Y-124929554D01*
X170990568Y-124884008D01*
X170990566Y-124884005D01*
X170990566Y-124884003D01*
X170897825Y-124701990D01*
X170883343Y-124673567D01*
X170744517Y-124482490D01*
X170577510Y-124315483D01*
X170386433Y-124176657D01*
X170367963Y-124167246D01*
X170175996Y-124069433D01*
X169951368Y-123996446D01*
X169718097Y-123959500D01*
X169718092Y-123959500D01*
X169481908Y-123959500D01*
X169481903Y-123959500D01*
X169248631Y-123996446D01*
X169024003Y-124069433D01*
X168813566Y-124176657D01*
X168758477Y-124216682D01*
X168622490Y-124315483D01*
X168622488Y-124315485D01*
X168622487Y-124315485D01*
X168455485Y-124482487D01*
X168455485Y-124482488D01*
X168455483Y-124482490D01*
X168414357Y-124539095D01*
X168316657Y-124673566D01*
X168209433Y-124884003D01*
X168136446Y-125108631D01*
X168099500Y-125341902D01*
X164976061Y-125341902D01*
X174600285Y-115717676D01*
X174661606Y-115684193D01*
X174731298Y-115689177D01*
X174760850Y-115705042D01*
X174813562Y-115743340D01*
X174813564Y-115743341D01*
X174813567Y-115743343D01*
X174908760Y-115791846D01*
X175024003Y-115850566D01*
X175024005Y-115850566D01*
X175024008Y-115850568D01*
X175144412Y-115889689D01*
X175248631Y-115923553D01*
X175481903Y-115960500D01*
X175481908Y-115960500D01*
X175718097Y-115960500D01*
X175951368Y-115923553D01*
X176175992Y-115850568D01*
X176386433Y-115743343D01*
X176577510Y-115604517D01*
X176744517Y-115437510D01*
X176883343Y-115246433D01*
X176990568Y-115035992D01*
X177063553Y-114811368D01*
X177100500Y-114578097D01*
X177100500Y-114341902D01*
X177063553Y-114108631D01*
X176990566Y-113884003D01*
X176883342Y-113673566D01*
X176744517Y-113482490D01*
X176577510Y-113315483D01*
X176386433Y-113176657D01*
X176175996Y-113069433D01*
X175951368Y-112996446D01*
X175718097Y-112959500D01*
X175718092Y-112959500D01*
X175481908Y-112959500D01*
X175481903Y-112959500D01*
X175248631Y-112996446D01*
X175024003Y-113069433D01*
X174813566Y-113176657D01*
X174704550Y-113255862D01*
X174622490Y-113315483D01*
X174622488Y-113315485D01*
X174622487Y-113315485D01*
X174455485Y-113482487D01*
X174455485Y-113482488D01*
X174455483Y-113482490D01*
X174395862Y-113564550D01*
X174316657Y-113673566D01*
X174209433Y-113884003D01*
X174136447Y-114108630D01*
X174098901Y-114345680D01*
X174068971Y-114408814D01*
X174064109Y-114413962D01*
X170912180Y-117565892D01*
X170850857Y-117599377D01*
X170781165Y-117594393D01*
X170725232Y-117552521D01*
X170700815Y-117487057D01*
X170700499Y-117478211D01*
X170700499Y-116512129D01*
X170700498Y-116512123D01*
X170700497Y-116512116D01*
X170694091Y-116452517D01*
X170654428Y-116346176D01*
X170643797Y-116317671D01*
X170643793Y-116317664D01*
X170557547Y-116202455D01*
X170557544Y-116202452D01*
X170442335Y-116116206D01*
X170442328Y-116116202D01*
X170307482Y-116065908D01*
X170307483Y-116065908D01*
X170247883Y-116059501D01*
X170247881Y-116059500D01*
X170247873Y-116059500D01*
X170247864Y-116059500D01*
X166952129Y-116059500D01*
X166952123Y-116059501D01*
X166892516Y-116065908D01*
X166757671Y-116116202D01*
X166757664Y-116116206D01*
X166642455Y-116202452D01*
X166642452Y-116202455D01*
X166556206Y-116317664D01*
X166556202Y-116317671D01*
X166505908Y-116452517D01*
X166499501Y-116512116D01*
X166499501Y-116512123D01*
X166499500Y-116512135D01*
X166499500Y-118607870D01*
X166499501Y-118607876D01*
X166505908Y-118667483D01*
X166556202Y-118802328D01*
X166556206Y-118802335D01*
X166642452Y-118917544D01*
X166642455Y-118917547D01*
X166757664Y-119003793D01*
X166757671Y-119003797D01*
X166892517Y-119054091D01*
X166892516Y-119054091D01*
X166899444Y-119054835D01*
X166952127Y-119060500D01*
X169118210Y-119060499D01*
X169185249Y-119080184D01*
X169231004Y-119132987D01*
X169240948Y-119202146D01*
X169211923Y-119265702D01*
X169205891Y-119272180D01*
X154915891Y-133562181D01*
X154854568Y-133595666D01*
X154828210Y-133598500D01*
X151624854Y-133598500D01*
X151499186Y-133623497D01*
X151499180Y-133623499D01*
X151380799Y-133672534D01*
X151274251Y-133743726D01*
X149994724Y-135023253D01*
X149936428Y-135110501D01*
X149923535Y-135129797D01*
X149874499Y-135248180D01*
X149874497Y-135248186D01*
X149849500Y-135373853D01*
X149849500Y-142725500D01*
X149829815Y-142792539D01*
X149777011Y-142838294D01*
X149725500Y-142849500D01*
X146772352Y-142849500D01*
X146766328Y-142847731D01*
X146760160Y-142848899D01*
X146733202Y-142838004D01*
X146705313Y-142829815D01*
X146701203Y-142825071D01*
X146695381Y-142822719D01*
X146678589Y-142798974D01*
X146659558Y-142777011D01*
X146658664Y-142770799D01*
X146655039Y-142765672D01*
X146653751Y-142736625D01*
X146649614Y-142707853D01*
X146652222Y-142702142D01*
X146651944Y-142695871D01*
X146666560Y-142670744D01*
X146678639Y-142644297D01*
X146684717Y-142639533D01*
X146687077Y-142635477D01*
X146703427Y-142624869D01*
X146715894Y-142615099D01*
X146720315Y-142612837D01*
X146808127Y-142576465D01*
X146856544Y-142544114D01*
X146862555Y-142540097D01*
X146862558Y-142540096D01*
X146893463Y-142519446D01*
X146914669Y-142505277D01*
X147233127Y-142186819D01*
X147294450Y-142153334D01*
X147320808Y-142150500D01*
X147564071Y-142150500D01*
X147648615Y-142133682D01*
X147689744Y-142125501D01*
X147808127Y-142076465D01*
X147914669Y-142005276D01*
X148005276Y-141914669D01*
X148076465Y-141808127D01*
X148125501Y-141689744D01*
X148147368Y-141579815D01*
X148150500Y-141564071D01*
X148150500Y-137935928D01*
X148125502Y-137810261D01*
X148125501Y-137810260D01*
X148125501Y-137810256D01*
X148076465Y-137691873D01*
X148005277Y-137585331D01*
X148005275Y-137585329D01*
X148005273Y-137585326D01*
X148005272Y-137585325D01*
X144028990Y-133609044D01*
X143995505Y-133547721D01*
X144000489Y-133478029D01*
X144042361Y-133422096D01*
X144092478Y-133399746D01*
X144166716Y-133384979D01*
X144262658Y-133365896D01*
X144262661Y-133365894D01*
X144262666Y-133365894D01*
X144426547Y-133298013D01*
X144574035Y-133199464D01*
X144611033Y-133162464D01*
X144672355Y-133128979D01*
X144674476Y-133128537D01*
X144689744Y-133125501D01*
X144808127Y-133076465D01*
X144817526Y-133070185D01*
X144819315Y-133068990D01*
X144868700Y-133035992D01*
X144914669Y-133005277D01*
X152390956Y-125528987D01*
X152452277Y-125495504D01*
X152521969Y-125500488D01*
X152577902Y-125542360D01*
X152600252Y-125592478D01*
X152634104Y-125762659D01*
X152634106Y-125762667D01*
X152701983Y-125926540D01*
X152701990Y-125926553D01*
X152800535Y-126074034D01*
X152800538Y-126074038D01*
X152925961Y-126199461D01*
X152925965Y-126199464D01*
X153073446Y-126298009D01*
X153073459Y-126298016D01*
X153196363Y-126348923D01*
X153237334Y-126365894D01*
X153237336Y-126365894D01*
X153237341Y-126365896D01*
X153411304Y-126400499D01*
X153411307Y-126400500D01*
X153411309Y-126400500D01*
X153429192Y-126400500D01*
X153496231Y-126420185D01*
X153516873Y-126436819D01*
X154994724Y-127914669D01*
X155085331Y-128005276D01*
X155085332Y-128005277D01*
X155191866Y-128076461D01*
X155191872Y-128076464D01*
X155191873Y-128076465D01*
X155310256Y-128125501D01*
X155310260Y-128125501D01*
X155310261Y-128125502D01*
X155435928Y-128150500D01*
X155435931Y-128150500D01*
X156325638Y-128150500D01*
X156392677Y-128170185D01*
X156413319Y-128186819D01*
X156425961Y-128199461D01*
X156425965Y-128199464D01*
X156573446Y-128298009D01*
X156573459Y-128298016D01*
X156679426Y-128341908D01*
X156737334Y-128365894D01*
X156737336Y-128365894D01*
X156737341Y-128365896D01*
X156911304Y-128400499D01*
X156911307Y-128400500D01*
X156911309Y-128400500D01*
X157088693Y-128400500D01*
X157088694Y-128400499D01*
X157146682Y-128388964D01*
X157262658Y-128365896D01*
X157262661Y-128365894D01*
X157262666Y-128365894D01*
X157426547Y-128298013D01*
X157574035Y-128199464D01*
X157699464Y-128074035D01*
X157798013Y-127926547D01*
X157865894Y-127762666D01*
X157900500Y-127588691D01*
X157900500Y-127411309D01*
X157900500Y-127411306D01*
X157900499Y-127411304D01*
X157865896Y-127237341D01*
X157865893Y-127237332D01*
X157798016Y-127073459D01*
X157798009Y-127073446D01*
X157699464Y-126925965D01*
X157699461Y-126925961D01*
X157574038Y-126800538D01*
X157574034Y-126800535D01*
X157426553Y-126701990D01*
X157426540Y-126701983D01*
X157262667Y-126634106D01*
X157262658Y-126634103D01*
X157088694Y-126599500D01*
X157088691Y-126599500D01*
X156911309Y-126599500D01*
X156911306Y-126599500D01*
X156737341Y-126634103D01*
X156737332Y-126634106D01*
X156573459Y-126701983D01*
X156573446Y-126701990D01*
X156425965Y-126800535D01*
X156425961Y-126800538D01*
X156413319Y-126813181D01*
X156351996Y-126846666D01*
X156325638Y-126849500D01*
X155820807Y-126849500D01*
X155753768Y-126829815D01*
X155733126Y-126813181D01*
X154436819Y-125516873D01*
X154403334Y-125455550D01*
X154400500Y-125429192D01*
X154400500Y-125411306D01*
X154400499Y-125411304D01*
X154365896Y-125237341D01*
X154365893Y-125237332D01*
X154298016Y-125073459D01*
X154298009Y-125073446D01*
X154199464Y-124925965D01*
X154199461Y-124925961D01*
X154074038Y-124800538D01*
X154074034Y-124800535D01*
X153926553Y-124701990D01*
X153926540Y-124701983D01*
X153762667Y-124634106D01*
X153762659Y-124634104D01*
X153592478Y-124600252D01*
X153530567Y-124567867D01*
X153495993Y-124507151D01*
X153499734Y-124437381D01*
X153528987Y-124390956D01*
X161605276Y-116314669D01*
X161676465Y-116208127D01*
X161725501Y-116089744D01*
X161727040Y-116082006D01*
X161750500Y-115964069D01*
X161750500Y-115881250D01*
X161751365Y-115873967D01*
X161762327Y-115848312D01*
X161770185Y-115821552D01*
X161776016Y-115816276D01*
X161778819Y-115809717D01*
X161796563Y-115797686D01*
X161818206Y-115778106D01*
X161886431Y-115743344D01*
X161886430Y-115743344D01*
X161886433Y-115743343D01*
X162077510Y-115604517D01*
X162244517Y-115437510D01*
X162383343Y-115246433D01*
X162490568Y-115035992D01*
X162563553Y-114811368D01*
X162600500Y-114578097D01*
X162600500Y-114341902D01*
X162563553Y-114108631D01*
X162490566Y-113884003D01*
X162383342Y-113673566D01*
X162244517Y-113482490D01*
X162077510Y-113315483D01*
X162021259Y-113274614D01*
X161978595Y-113219284D01*
X161973902Y-113187455D01*
X161229408Y-112442962D01*
X161292993Y-112425925D01*
X161407007Y-112360099D01*
X161500099Y-112267007D01*
X161565925Y-112152993D01*
X161582962Y-112089409D01*
X162322658Y-112829105D01*
X162322658Y-112829104D01*
X162382914Y-112746169D01*
X162382918Y-112746163D01*
X162490102Y-112535802D01*
X162563065Y-112311247D01*
X162600000Y-112078052D01*
X162600000Y-111841947D01*
X162563065Y-111608752D01*
X162490102Y-111384197D01*
X162382914Y-111173828D01*
X162313394Y-111078142D01*
X162289914Y-111012335D01*
X162305739Y-110944281D01*
X162339401Y-110905989D01*
X162342329Y-110903796D01*
X162342331Y-110903796D01*
X162457546Y-110817546D01*
X162543796Y-110702331D01*
X162594091Y-110567483D01*
X162600500Y-110507873D01*
X162600499Y-109341947D01*
X174100000Y-109341947D01*
X174100000Y-109578052D01*
X174136934Y-109811247D01*
X174209897Y-110035802D01*
X174317087Y-110246174D01*
X174377338Y-110329104D01*
X174377340Y-110329105D01*
X175117037Y-109589408D01*
X175134075Y-109652993D01*
X175199901Y-109767007D01*
X175292993Y-109860099D01*
X175407007Y-109925925D01*
X175470590Y-109942962D01*
X174730893Y-110682658D01*
X174813828Y-110742914D01*
X175024197Y-110850102D01*
X175248752Y-110923065D01*
X175248751Y-110923065D01*
X175481948Y-110960000D01*
X175718052Y-110960000D01*
X175951247Y-110923065D01*
X176175802Y-110850102D01*
X176386163Y-110742918D01*
X176386169Y-110742914D01*
X176469104Y-110682658D01*
X176469105Y-110682658D01*
X175729408Y-109942962D01*
X175792993Y-109925925D01*
X175907007Y-109860099D01*
X176000099Y-109767007D01*
X176065925Y-109652993D01*
X176082962Y-109589409D01*
X176822658Y-110329105D01*
X176822658Y-110329104D01*
X176882914Y-110246169D01*
X176882918Y-110246163D01*
X176990102Y-110035802D01*
X177063065Y-109811247D01*
X177100000Y-109578052D01*
X177100000Y-109341947D01*
X177063065Y-109108752D01*
X176990102Y-108884197D01*
X176882914Y-108673828D01*
X176822658Y-108590894D01*
X176822658Y-108590893D01*
X176082962Y-109330590D01*
X176065925Y-109267007D01*
X176000099Y-109152993D01*
X175907007Y-109059901D01*
X175792993Y-108994075D01*
X175729409Y-108977037D01*
X176469105Y-108237340D01*
X176469104Y-108237338D01*
X176386174Y-108177087D01*
X176175802Y-108069897D01*
X175951247Y-107996934D01*
X175951248Y-107996934D01*
X175718052Y-107960000D01*
X175481948Y-107960000D01*
X175248752Y-107996934D01*
X175024197Y-108069897D01*
X174813830Y-108177084D01*
X174730894Y-108237340D01*
X175470591Y-108977037D01*
X175407007Y-108994075D01*
X175292993Y-109059901D01*
X175199901Y-109152993D01*
X175134075Y-109267007D01*
X175117037Y-109330591D01*
X174377340Y-108590894D01*
X174317084Y-108673830D01*
X174209897Y-108884197D01*
X174136934Y-109108752D01*
X174100000Y-109341947D01*
X162600499Y-109341947D01*
X162600499Y-108412128D01*
X162594091Y-108352517D01*
X162594090Y-108352514D01*
X162584922Y-108327931D01*
X162543797Y-108217671D01*
X162543793Y-108217664D01*
X162457547Y-108102455D01*
X162457544Y-108102452D01*
X162342335Y-108016206D01*
X162342328Y-108016202D01*
X162207482Y-107965908D01*
X162207483Y-107965908D01*
X162147883Y-107959501D01*
X162147881Y-107959500D01*
X162147873Y-107959500D01*
X162147864Y-107959500D01*
X160052129Y-107959500D01*
X160052123Y-107959501D01*
X159992516Y-107965908D01*
X159857671Y-108016202D01*
X159857664Y-108016206D01*
X159742455Y-108102452D01*
X159742452Y-108102455D01*
X159656206Y-108217664D01*
X159656202Y-108217671D01*
X159605908Y-108352517D01*
X159599501Y-108412116D01*
X159599501Y-108412123D01*
X159599500Y-108412135D01*
X159599500Y-108685500D01*
X159579815Y-108752539D01*
X159527011Y-108798294D01*
X159475500Y-108809500D01*
X154975929Y-108809500D01*
X154850261Y-108834497D01*
X154850255Y-108834499D01*
X154774462Y-108865894D01*
X154774461Y-108865894D01*
X154731876Y-108883532D01*
X154625326Y-108954726D01*
X141950955Y-121629097D01*
X141921233Y-121673579D01*
X141921234Y-121673580D01*
X141879765Y-121735643D01*
X141830730Y-121854024D01*
X141830728Y-121854030D01*
X141805731Y-121979697D01*
X141805731Y-123387646D01*
X141786046Y-123454685D01*
X141733242Y-123500440D01*
X141664084Y-123510384D01*
X141600528Y-123481359D01*
X141594050Y-123475327D01*
X138186819Y-120068096D01*
X138153334Y-120006773D01*
X138150500Y-119980415D01*
X138150500Y-117774500D01*
X138170185Y-117707461D01*
X138222989Y-117661706D01*
X138274500Y-117650500D01*
X143564071Y-117650500D01*
X143672822Y-117628867D01*
X143689744Y-117625501D01*
X143808127Y-117576465D01*
X143828948Y-117562553D01*
X143914669Y-117505277D01*
X143983128Y-117436817D01*
X144044449Y-117403334D01*
X144070808Y-117400500D01*
X144088693Y-117400500D01*
X144088694Y-117400499D01*
X144146682Y-117388964D01*
X144262658Y-117365896D01*
X144262661Y-117365894D01*
X144262666Y-117365894D01*
X144426547Y-117298013D01*
X144574035Y-117199464D01*
X144699464Y-117074035D01*
X144798013Y-116926547D01*
X144821222Y-116870514D01*
X144865060Y-116816113D01*
X144931354Y-116794047D01*
X144999053Y-116811325D01*
X145004673Y-116814866D01*
X145006728Y-116816239D01*
X145069247Y-116858013D01*
X145069249Y-116858014D01*
X145069253Y-116858016D01*
X145192157Y-116908923D01*
X145233128Y-116925894D01*
X145233130Y-116925894D01*
X145233135Y-116925896D01*
X145407098Y-116960499D01*
X145407101Y-116960500D01*
X145407103Y-116960500D01*
X145584487Y-116960500D01*
X145584488Y-116960499D01*
X145642476Y-116948964D01*
X145758452Y-116925896D01*
X145758455Y-116925894D01*
X145758460Y-116925894D01*
X145922341Y-116858013D01*
X146069829Y-116759464D01*
X146195258Y-116634035D01*
X146293807Y-116486547D01*
X146295104Y-116483417D01*
X146303752Y-116462535D01*
X146361688Y-116322666D01*
X146363890Y-116311600D01*
X146396293Y-116148695D01*
X146396294Y-116148693D01*
X146396294Y-115971306D01*
X146396293Y-115971304D01*
X146361690Y-115797341D01*
X146361687Y-115797332D01*
X146359763Y-115792688D01*
X146333630Y-115729595D01*
X146293810Y-115633459D01*
X146293803Y-115633446D01*
X146195258Y-115485965D01*
X146195255Y-115485961D01*
X146069832Y-115360538D01*
X146069828Y-115360535D01*
X145922347Y-115261990D01*
X145922334Y-115261983D01*
X145758461Y-115194106D01*
X145758455Y-115194104D01*
X145750307Y-115192484D01*
X145688397Y-115160098D01*
X145653823Y-115099382D01*
X145650500Y-115070867D01*
X145650500Y-109820808D01*
X145670185Y-109753769D01*
X145686819Y-109733127D01*
X148005273Y-107414673D01*
X148005277Y-107414669D01*
X148076465Y-107308127D01*
X148125501Y-107189744D01*
X148136568Y-107134106D01*
X148150500Y-107064069D01*
X148150500Y-105312135D01*
X166499500Y-105312135D01*
X166499500Y-107407870D01*
X166499501Y-107407876D01*
X166505908Y-107467483D01*
X166556202Y-107602328D01*
X166556206Y-107602335D01*
X166642452Y-107717544D01*
X166642455Y-107717547D01*
X166757664Y-107803793D01*
X166757671Y-107803797D01*
X166892517Y-107854091D01*
X166892516Y-107854091D01*
X166899444Y-107854835D01*
X166952127Y-107860500D01*
X170247872Y-107860499D01*
X170307483Y-107854091D01*
X170442331Y-107803796D01*
X170557546Y-107717546D01*
X170643796Y-107602331D01*
X170694091Y-107467483D01*
X170700500Y-107407873D01*
X170700499Y-105312128D01*
X170694091Y-105252517D01*
X170651059Y-105137143D01*
X170643797Y-105117671D01*
X170643793Y-105117664D01*
X170557547Y-105002455D01*
X170557544Y-105002452D01*
X170442335Y-104916206D01*
X170442328Y-104916202D01*
X170307482Y-104865908D01*
X170307483Y-104865908D01*
X170247883Y-104859501D01*
X170247881Y-104859500D01*
X170247873Y-104859500D01*
X170247864Y-104859500D01*
X166952129Y-104859500D01*
X166952123Y-104859501D01*
X166892516Y-104865908D01*
X166757671Y-104916202D01*
X166757664Y-104916206D01*
X166642455Y-105002452D01*
X166642452Y-105002455D01*
X166556206Y-105117664D01*
X166556202Y-105117671D01*
X166505908Y-105252517D01*
X166499501Y-105312116D01*
X166499501Y-105312123D01*
X166499500Y-105312135D01*
X148150500Y-105312135D01*
X148150500Y-95411304D01*
X158599500Y-95411304D01*
X158599500Y-95588695D01*
X158634103Y-95762658D01*
X158634106Y-95762667D01*
X158701983Y-95926540D01*
X158701990Y-95926553D01*
X158800535Y-96074034D01*
X158800538Y-96074038D01*
X158925961Y-96199461D01*
X158925965Y-96199464D01*
X159073446Y-96298009D01*
X159073459Y-96298016D01*
X159177369Y-96341056D01*
X159237334Y-96365894D01*
X159237336Y-96365894D01*
X159237341Y-96365896D01*
X159411304Y-96400499D01*
X159411307Y-96400500D01*
X159411309Y-96400500D01*
X159588693Y-96400500D01*
X159588694Y-96400499D01*
X159646682Y-96388964D01*
X159762658Y-96365896D01*
X159762661Y-96365894D01*
X159762666Y-96365894D01*
X159926547Y-96298013D01*
X160074035Y-96199464D01*
X160074038Y-96199461D01*
X160081976Y-96191524D01*
X160199461Y-96074038D01*
X160199464Y-96074035D01*
X160298013Y-95926547D01*
X160365894Y-95762666D01*
X160370932Y-95737341D01*
X160393889Y-95621927D01*
X160400500Y-95588691D01*
X160400500Y-95411309D01*
X160400500Y-95411306D01*
X160400499Y-95411304D01*
X160365896Y-95237341D01*
X160365894Y-95237336D01*
X160365894Y-95237334D01*
X160343916Y-95184275D01*
X160336450Y-95114808D01*
X160367726Y-95052330D01*
X160370770Y-95049174D01*
X163483127Y-91936819D01*
X163544450Y-91903334D01*
X163570808Y-91900500D01*
X163588693Y-91900500D01*
X163588694Y-91900499D01*
X163646682Y-91888964D01*
X163762658Y-91865896D01*
X163762661Y-91865894D01*
X163762666Y-91865894D01*
X163923056Y-91799459D01*
X163926540Y-91798016D01*
X163926540Y-91798015D01*
X163926547Y-91798013D01*
X164074035Y-91699464D01*
X164199464Y-91574035D01*
X164298013Y-91426547D01*
X164365894Y-91262666D01*
X164377964Y-91201989D01*
X164400499Y-91088695D01*
X164400500Y-91088693D01*
X164400500Y-90911306D01*
X164400499Y-90911304D01*
X164365896Y-90737341D01*
X164365893Y-90737332D01*
X164298016Y-90573459D01*
X164298009Y-90573446D01*
X164199464Y-90425965D01*
X164199461Y-90425961D01*
X164074038Y-90300538D01*
X164074034Y-90300535D01*
X163926553Y-90201990D01*
X163926540Y-90201983D01*
X163762667Y-90134106D01*
X163762658Y-90134103D01*
X163588694Y-90099500D01*
X163588691Y-90099500D01*
X163411309Y-90099500D01*
X163411306Y-90099500D01*
X163237341Y-90134103D01*
X163237332Y-90134106D01*
X163073459Y-90201983D01*
X163073446Y-90201990D01*
X162925965Y-90300535D01*
X162925961Y-90300538D01*
X162800538Y-90425961D01*
X162800535Y-90425965D01*
X162701990Y-90573446D01*
X162701983Y-90573459D01*
X162634106Y-90737332D01*
X162634103Y-90737341D01*
X162599500Y-90911304D01*
X162599500Y-90929192D01*
X162579815Y-90996231D01*
X162563181Y-91016873D01*
X158994722Y-94585331D01*
X158994718Y-94585336D01*
X158951648Y-94649797D01*
X158951645Y-94649802D01*
X158945571Y-94658894D01*
X158923535Y-94691873D01*
X158874499Y-94810256D01*
X158868838Y-94838709D01*
X158863422Y-94851066D01*
X158849275Y-94867904D01*
X158839082Y-94887390D01*
X158837537Y-94888962D01*
X158800538Y-94925962D01*
X158800533Y-94925968D01*
X158701990Y-95073446D01*
X158701983Y-95073459D01*
X158634106Y-95237332D01*
X158634103Y-95237341D01*
X158599500Y-95411304D01*
X148150500Y-95411304D01*
X148150500Y-94935931D01*
X148150500Y-94935928D01*
X148125502Y-94810261D01*
X148125501Y-94810260D01*
X148125501Y-94810256D01*
X148076465Y-94691873D01*
X148076464Y-94691872D01*
X148076461Y-94691866D01*
X148005277Y-94585332D01*
X147963882Y-94543937D01*
X147914669Y-94494724D01*
X146436819Y-93016873D01*
X146424667Y-92994619D01*
X146409108Y-92974588D01*
X146406649Y-92961621D01*
X146403334Y-92955550D01*
X146400993Y-92940239D01*
X146400500Y-92934727D01*
X146400500Y-92911309D01*
X146396693Y-92892173D01*
X146396101Y-92885547D01*
X146401673Y-92857540D01*
X146404219Y-92829099D01*
X146408403Y-92823712D01*
X146409735Y-92817021D01*
X146429565Y-92796470D01*
X146447082Y-92773922D01*
X146453513Y-92771652D01*
X146458252Y-92766743D01*
X146486047Y-92760176D01*
X146512972Y-92750678D01*
X146519608Y-92750500D01*
X153964730Y-92750500D01*
X154031769Y-92770185D01*
X154033622Y-92771399D01*
X154073447Y-92798010D01*
X154073450Y-92798011D01*
X154073453Y-92798013D01*
X154237334Y-92865894D01*
X154237336Y-92865894D01*
X154237341Y-92865896D01*
X154411304Y-92900499D01*
X154411307Y-92900500D01*
X154411309Y-92900500D01*
X154588693Y-92900500D01*
X154588694Y-92900499D01*
X154646682Y-92888964D01*
X154762658Y-92865896D01*
X154762661Y-92865894D01*
X154762666Y-92865894D01*
X154926547Y-92798013D01*
X155074035Y-92699464D01*
X155199464Y-92574035D01*
X155298013Y-92426547D01*
X155365894Y-92262666D01*
X155400500Y-92088691D01*
X155400500Y-91911309D01*
X155400500Y-91911306D01*
X155400499Y-91911304D01*
X155365896Y-91737341D01*
X155365893Y-91737332D01*
X155298016Y-91573459D01*
X155298009Y-91573446D01*
X155199464Y-91425965D01*
X155199461Y-91425961D01*
X155074038Y-91300538D01*
X155074034Y-91300535D01*
X154926553Y-91201990D01*
X154926540Y-91201983D01*
X154762667Y-91134106D01*
X154762658Y-91134103D01*
X154588694Y-91099500D01*
X154588691Y-91099500D01*
X154411309Y-91099500D01*
X154411306Y-91099500D01*
X154237341Y-91134103D01*
X154237332Y-91134106D01*
X154073452Y-91201987D01*
X154073447Y-91201989D01*
X154033622Y-91228601D01*
X153966945Y-91249480D01*
X153964730Y-91249500D01*
X147823362Y-91249500D01*
X147756323Y-91229815D01*
X147710568Y-91177011D01*
X147700624Y-91107853D01*
X147729649Y-91044297D01*
X147735681Y-91037819D01*
X147834052Y-90939447D01*
X147834055Y-90939444D01*
X147932604Y-90791956D01*
X148000485Y-90628075D01*
X148011352Y-90573446D01*
X148035090Y-90454104D01*
X148035091Y-90454102D01*
X148035091Y-90276715D01*
X148035090Y-90276713D01*
X148000487Y-90102750D01*
X148000484Y-90102741D01*
X147932607Y-89938868D01*
X147932600Y-89938855D01*
X147834055Y-89791374D01*
X147834052Y-89791370D01*
X147821410Y-89778728D01*
X147787925Y-89717405D01*
X147785091Y-89691047D01*
X147785091Y-84070519D01*
X147760093Y-83944852D01*
X147760092Y-83944851D01*
X147760092Y-83944847D01*
X147711056Y-83826464D01*
X147711055Y-83826463D01*
X147711052Y-83826457D01*
X147639868Y-83719923D01*
X147639867Y-83719922D01*
X147549260Y-83629315D01*
X146914674Y-82994727D01*
X146914673Y-82994726D01*
X146914669Y-82994723D01*
X146808127Y-82923535D01*
X146689744Y-82874499D01*
X146689738Y-82874497D01*
X146564071Y-82849500D01*
X146564069Y-82849500D01*
X133935931Y-82849500D01*
X133935929Y-82849500D01*
X133810261Y-82874497D01*
X133810255Y-82874499D01*
X133691870Y-82923535D01*
X133585331Y-82994722D01*
X133585324Y-82994728D01*
X127724726Y-88855326D01*
X127724723Y-88855331D01*
X127687321Y-88911309D01*
X127674160Y-88931006D01*
X127674158Y-88931008D01*
X127653539Y-88961864D01*
X127653533Y-88961875D01*
X127604499Y-89080255D01*
X127604497Y-89080261D01*
X127579500Y-89205928D01*
X127579500Y-103810382D01*
X127559815Y-103877421D01*
X127525408Y-103911099D01*
X127526125Y-103912085D01*
X127350213Y-104039890D01*
X127199890Y-104190213D01*
X127074949Y-104362182D01*
X127070484Y-104370946D01*
X127022509Y-104421742D01*
X126954688Y-104438536D01*
X126888553Y-104415998D01*
X126849516Y-104370946D01*
X126845050Y-104362182D01*
X126720109Y-104190213D01*
X126569786Y-104039890D01*
X126397820Y-103914951D01*
X126208414Y-103818444D01*
X126208413Y-103818443D01*
X126208412Y-103818443D01*
X126006243Y-103752754D01*
X126006241Y-103752753D01*
X126006240Y-103752753D01*
X125844957Y-103727208D01*
X125796287Y-103719500D01*
X125583713Y-103719500D01*
X125535042Y-103727208D01*
X125373760Y-103752753D01*
X125171585Y-103818444D01*
X124982179Y-103914951D01*
X124810215Y-104039889D01*
X124696285Y-104153819D01*
X124634962Y-104187303D01*
X124565270Y-104182319D01*
X124509337Y-104140447D01*
X124492422Y-104109470D01*
X124443354Y-103977913D01*
X124443350Y-103977906D01*
X124357190Y-103862812D01*
X124357187Y-103862809D01*
X124242093Y-103776649D01*
X124242086Y-103776645D01*
X124107379Y-103726403D01*
X124107372Y-103726401D01*
X124047844Y-103720000D01*
X123400000Y-103720000D01*
X123400000Y-104625439D01*
X123346853Y-104594755D01*
X123217143Y-104560000D01*
X123082857Y-104560000D01*
X122953147Y-104594755D01*
X122900000Y-104625439D01*
X122900000Y-103720000D01*
X122252155Y-103720000D01*
X122192627Y-103726401D01*
X122192620Y-103726403D01*
X122057913Y-103776645D01*
X122057906Y-103776649D01*
X121942812Y-103862809D01*
X121942809Y-103862812D01*
X121856649Y-103977906D01*
X121856646Y-103977912D01*
X121807577Y-104109471D01*
X121765705Y-104165404D01*
X121700241Y-104189821D01*
X121631968Y-104174969D01*
X121603714Y-104153818D01*
X121489794Y-104039898D01*
X121489788Y-104039893D01*
X121411615Y-103983097D01*
X121368949Y-103927767D01*
X121360500Y-103882779D01*
X121360500Y-89622229D01*
X121380185Y-89555190D01*
X121396814Y-89534553D01*
X123601194Y-87330172D01*
X123662515Y-87296689D01*
X123708265Y-87295382D01*
X123803713Y-87310500D01*
X123803715Y-87310500D01*
X124016286Y-87310500D01*
X124016287Y-87310500D01*
X124226243Y-87277246D01*
X124428412Y-87211557D01*
X124617816Y-87115051D01*
X124674270Y-87074035D01*
X124789786Y-86990109D01*
X124789788Y-86990106D01*
X124789792Y-86990104D01*
X124940104Y-86839792D01*
X124940106Y-86839788D01*
X124940109Y-86839786D01*
X125065048Y-86667820D01*
X125065047Y-86667820D01*
X125065051Y-86667816D01*
X125161557Y-86478412D01*
X125227246Y-86276243D01*
X125260500Y-86066287D01*
X125260500Y-85853713D01*
X125227246Y-85643757D01*
X125161557Y-85441588D01*
X125065051Y-85252184D01*
X125065049Y-85252181D01*
X125065048Y-85252179D01*
X124940109Y-85080213D01*
X124789786Y-84929890D01*
X124617820Y-84804951D01*
X124428414Y-84708444D01*
X124428413Y-84708443D01*
X124428412Y-84708443D01*
X124226243Y-84642754D01*
X124226241Y-84642753D01*
X124226240Y-84642753D01*
X124064957Y-84617208D01*
X124016287Y-84609500D01*
X123803713Y-84609500D01*
X123755042Y-84617208D01*
X123593760Y-84642753D01*
X123391585Y-84708444D01*
X123202179Y-84804951D01*
X123030213Y-84929890D01*
X122879890Y-85080213D01*
X122754949Y-85252182D01*
X122750484Y-85260946D01*
X122702509Y-85311742D01*
X122634688Y-85328536D01*
X122568553Y-85305998D01*
X122529516Y-85260946D01*
X122525050Y-85252182D01*
X122400109Y-85080213D01*
X122249786Y-84929890D01*
X122077820Y-84804951D01*
X121888414Y-84708444D01*
X121888413Y-84708443D01*
X121888412Y-84708443D01*
X121686243Y-84642754D01*
X121686241Y-84642753D01*
X121686240Y-84642753D01*
X121524957Y-84617208D01*
X121476287Y-84609500D01*
X121263713Y-84609500D01*
X121215042Y-84617208D01*
X121053760Y-84642753D01*
X120851585Y-84708444D01*
X120662179Y-84804951D01*
X120490213Y-84929890D01*
X120339890Y-85080213D01*
X120214949Y-85252182D01*
X120210484Y-85260946D01*
X120162509Y-85311742D01*
X120094688Y-85328536D01*
X120028553Y-85305998D01*
X119989516Y-85260946D01*
X119985050Y-85252182D01*
X119860109Y-85080213D01*
X119709786Y-84929890D01*
X119537820Y-84804951D01*
X119348414Y-84708444D01*
X119348413Y-84708443D01*
X119348412Y-84708443D01*
X119146243Y-84642754D01*
X119146241Y-84642753D01*
X119146240Y-84642753D01*
X118984957Y-84617208D01*
X118936287Y-84609500D01*
X118723713Y-84609500D01*
X118675042Y-84617208D01*
X118513760Y-84642753D01*
X118311585Y-84708444D01*
X118122179Y-84804951D01*
X117950215Y-84929889D01*
X117836285Y-85043819D01*
X117774962Y-85077303D01*
X117705270Y-85072319D01*
X117649337Y-85030447D01*
X117632422Y-84999470D01*
X117583354Y-84867913D01*
X117583350Y-84867906D01*
X117497190Y-84752812D01*
X117497187Y-84752809D01*
X117382093Y-84666649D01*
X117382086Y-84666645D01*
X117247379Y-84616403D01*
X117247372Y-84616401D01*
X117187844Y-84610000D01*
X116540000Y-84610000D01*
X116540000Y-85526988D01*
X116482993Y-85494075D01*
X116355826Y-85460000D01*
X116224174Y-85460000D01*
X116097007Y-85494075D01*
X116040000Y-85526988D01*
X116040000Y-84610000D01*
X115392155Y-84610000D01*
X115332627Y-84616401D01*
X115332620Y-84616403D01*
X115197913Y-84666645D01*
X115197906Y-84666649D01*
X115082812Y-84752809D01*
X115082809Y-84752812D01*
X114996649Y-84867906D01*
X114996645Y-84867913D01*
X114946403Y-85002620D01*
X114946401Y-85002627D01*
X114940000Y-85062155D01*
X114940000Y-85710000D01*
X115856988Y-85710000D01*
X115824075Y-85767007D01*
X115790000Y-85894174D01*
X115790000Y-86025826D01*
X115824075Y-86152993D01*
X115856988Y-86210000D01*
X114940000Y-86210000D01*
X114940000Y-86857844D01*
X114946401Y-86917372D01*
X114946403Y-86917379D01*
X114996645Y-87052086D01*
X114996649Y-87052093D01*
X115082809Y-87167187D01*
X115082812Y-87167190D01*
X115197906Y-87253350D01*
X115197913Y-87253354D01*
X115332620Y-87303596D01*
X115332627Y-87303598D01*
X115392155Y-87309999D01*
X115392172Y-87310000D01*
X116040000Y-87310000D01*
X116040000Y-86393012D01*
X116097007Y-86425925D01*
X116224174Y-86460000D01*
X116355826Y-86460000D01*
X116482993Y-86425925D01*
X116540000Y-86393012D01*
X116540000Y-87310000D01*
X117187828Y-87310000D01*
X117187844Y-87309999D01*
X117247372Y-87303598D01*
X117247379Y-87303596D01*
X117382086Y-87253354D01*
X117382093Y-87253350D01*
X117497187Y-87167190D01*
X117497190Y-87167187D01*
X117583350Y-87052093D01*
X117583354Y-87052086D01*
X117632422Y-86920529D01*
X117674293Y-86864595D01*
X117739757Y-86840178D01*
X117808030Y-86855030D01*
X117836285Y-86876181D01*
X117950213Y-86990109D01*
X118122179Y-87115048D01*
X118122181Y-87115049D01*
X118122184Y-87115051D01*
X118311588Y-87211557D01*
X118513757Y-87277246D01*
X118685712Y-87304481D01*
X118748847Y-87334410D01*
X118785778Y-87393722D01*
X118784780Y-87463584D01*
X118753995Y-87514635D01*
X117487050Y-88781580D01*
X117487044Y-88781588D01*
X117437812Y-88855268D01*
X117437813Y-88855269D01*
X117404921Y-88904496D01*
X117404914Y-88904508D01*
X117348342Y-89041086D01*
X117348340Y-89041092D01*
X117319500Y-89186079D01*
X117319500Y-103882779D01*
X117299815Y-103949818D01*
X117268385Y-103983097D01*
X117190211Y-104039893D01*
X117190205Y-104039898D01*
X117039890Y-104190213D01*
X116914949Y-104362182D01*
X116910484Y-104370946D01*
X116862509Y-104421742D01*
X116794688Y-104438536D01*
X116728553Y-104415998D01*
X116689516Y-104370946D01*
X116685050Y-104362182D01*
X116560109Y-104190213D01*
X116409786Y-104039890D01*
X116237820Y-103914951D01*
X116048414Y-103818444D01*
X116048413Y-103818443D01*
X116048412Y-103818443D01*
X115846243Y-103752754D01*
X115846241Y-103752753D01*
X115846240Y-103752753D01*
X115684957Y-103727208D01*
X115636287Y-103719500D01*
X115423713Y-103719500D01*
X115375042Y-103727208D01*
X115213760Y-103752753D01*
X115011585Y-103818444D01*
X114822179Y-103914951D01*
X114650213Y-104039890D01*
X114499890Y-104190213D01*
X114374949Y-104362182D01*
X114370484Y-104370946D01*
X114322509Y-104421742D01*
X114254688Y-104438536D01*
X114188553Y-104415998D01*
X114149516Y-104370946D01*
X114145050Y-104362182D01*
X114020109Y-104190213D01*
X113869786Y-104039890D01*
X113697820Y-103914951D01*
X113508414Y-103818444D01*
X113508413Y-103818443D01*
X113508412Y-103818443D01*
X113306243Y-103752754D01*
X113306241Y-103752753D01*
X113306240Y-103752753D01*
X113144957Y-103727208D01*
X113096287Y-103719500D01*
X112883713Y-103719500D01*
X112835042Y-103727208D01*
X112673760Y-103752753D01*
X112471585Y-103818444D01*
X112282179Y-103914951D01*
X112110215Y-104039889D01*
X111996285Y-104153819D01*
X111934962Y-104187303D01*
X111865270Y-104182319D01*
X111809337Y-104140447D01*
X111792422Y-104109470D01*
X111743354Y-103977913D01*
X111743350Y-103977906D01*
X111657190Y-103862812D01*
X111657187Y-103862809D01*
X111542093Y-103776649D01*
X111542086Y-103776645D01*
X111407379Y-103726403D01*
X111407372Y-103726401D01*
X111347844Y-103720000D01*
X110700000Y-103720000D01*
X110700000Y-104625439D01*
X110646853Y-104594755D01*
X110517143Y-104560000D01*
X110382857Y-104560000D01*
X110253147Y-104594755D01*
X110200000Y-104625439D01*
X110200000Y-103720000D01*
X109552155Y-103720000D01*
X109492627Y-103726401D01*
X109492620Y-103726403D01*
X109357913Y-103776645D01*
X109357906Y-103776649D01*
X109242812Y-103862809D01*
X109242809Y-103862812D01*
X109156649Y-103977906D01*
X109156646Y-103977912D01*
X109107577Y-104109471D01*
X109065705Y-104165404D01*
X109000241Y-104189821D01*
X108931968Y-104174969D01*
X108903714Y-104153818D01*
X108789786Y-104039890D01*
X108617820Y-103914951D01*
X108428414Y-103818444D01*
X108428413Y-103818443D01*
X108428412Y-103818443D01*
X108226243Y-103752754D01*
X108226241Y-103752753D01*
X108226240Y-103752753D01*
X108064957Y-103727208D01*
X108016287Y-103719500D01*
X107803713Y-103719500D01*
X107755042Y-103727208D01*
X107593760Y-103752753D01*
X107391585Y-103818444D01*
X107202179Y-103914951D01*
X107030213Y-104039890D01*
X106879890Y-104190213D01*
X106754949Y-104362182D01*
X106750484Y-104370946D01*
X106702509Y-104421742D01*
X106634688Y-104438536D01*
X106568553Y-104415998D01*
X106529516Y-104370946D01*
X106525050Y-104362182D01*
X106400109Y-104190213D01*
X106249786Y-104039890D01*
X106077820Y-103914951D01*
X105888414Y-103818444D01*
X105888413Y-103818443D01*
X105888412Y-103818443D01*
X105686243Y-103752754D01*
X105686241Y-103752753D01*
X105686240Y-103752753D01*
X105524957Y-103727208D01*
X105476287Y-103719500D01*
X105263713Y-103719500D01*
X105215042Y-103727208D01*
X105053760Y-103752753D01*
X104851585Y-103818444D01*
X104662179Y-103914951D01*
X104490213Y-104039890D01*
X104339890Y-104190213D01*
X104214949Y-104362182D01*
X104210484Y-104370946D01*
X104162509Y-104421742D01*
X104094688Y-104438536D01*
X104028553Y-104415998D01*
X103989516Y-104370946D01*
X103985050Y-104362182D01*
X103860109Y-104190213D01*
X103709786Y-104039890D01*
X103537820Y-103914951D01*
X103348414Y-103818444D01*
X103348413Y-103818443D01*
X103348412Y-103818443D01*
X103146243Y-103752754D01*
X103146241Y-103752753D01*
X103146240Y-103752753D01*
X102984957Y-103727208D01*
X102936287Y-103719500D01*
X102723713Y-103719500D01*
X102675042Y-103727208D01*
X102513760Y-103752753D01*
X102311585Y-103818444D01*
X102122179Y-103914951D01*
X101950213Y-104039890D01*
X101799890Y-104190213D01*
X101674949Y-104362182D01*
X101670484Y-104370946D01*
X101622509Y-104421742D01*
X101554688Y-104438536D01*
X101488553Y-104415998D01*
X101449516Y-104370946D01*
X101445050Y-104362182D01*
X101320109Y-104190213D01*
X101169786Y-104039890D01*
X100997820Y-103914951D01*
X100808414Y-103818444D01*
X100808413Y-103818443D01*
X100808412Y-103818443D01*
X100606243Y-103752754D01*
X100606241Y-103752753D01*
X100606240Y-103752753D01*
X100444957Y-103727208D01*
X100396287Y-103719500D01*
X100183713Y-103719500D01*
X100135042Y-103727208D01*
X99973760Y-103752753D01*
X99771585Y-103818444D01*
X99582179Y-103914951D01*
X99410215Y-104039889D01*
X99296673Y-104153431D01*
X99235350Y-104186915D01*
X99165658Y-104181931D01*
X99109725Y-104140059D01*
X99092810Y-104109082D01*
X99043797Y-103977671D01*
X99043793Y-103977664D01*
X98957547Y-103862455D01*
X98957544Y-103862452D01*
X98842335Y-103776206D01*
X98842328Y-103776202D01*
X98707482Y-103725908D01*
X98707483Y-103725908D01*
X98647883Y-103719501D01*
X98647881Y-103719500D01*
X98647873Y-103719500D01*
X98647864Y-103719500D01*
X96852129Y-103719500D01*
X96852123Y-103719501D01*
X96792516Y-103725908D01*
X96657671Y-103776202D01*
X96657664Y-103776206D01*
X96542455Y-103862452D01*
X96542452Y-103862455D01*
X96456206Y-103977664D01*
X96456203Y-103977669D01*
X96407189Y-104109083D01*
X96365317Y-104165016D01*
X96299853Y-104189433D01*
X96231580Y-104174581D01*
X96203326Y-104153430D01*
X96089786Y-104039890D01*
X95917820Y-103914951D01*
X95728414Y-103818444D01*
X95728413Y-103818443D01*
X95728412Y-103818443D01*
X95526243Y-103752754D01*
X95526241Y-103752753D01*
X95526240Y-103752753D01*
X95364957Y-103727208D01*
X95316287Y-103719500D01*
X95103713Y-103719500D01*
X95055042Y-103727208D01*
X94893760Y-103752753D01*
X94691585Y-103818444D01*
X94502179Y-103914951D01*
X94330213Y-104039890D01*
X94179890Y-104190213D01*
X94054949Y-104362182D01*
X94050484Y-104370946D01*
X94002509Y-104421742D01*
X93934688Y-104438536D01*
X93868553Y-104415998D01*
X93829516Y-104370946D01*
X93825050Y-104362182D01*
X93700109Y-104190213D01*
X93549786Y-104039890D01*
X93377820Y-103914951D01*
X93188414Y-103818444D01*
X93188413Y-103818443D01*
X93188412Y-103818443D01*
X92986243Y-103752754D01*
X92986241Y-103752753D01*
X92986240Y-103752753D01*
X92824957Y-103727208D01*
X92776287Y-103719500D01*
X92563713Y-103719500D01*
X92515042Y-103727208D01*
X92353760Y-103752753D01*
X92151585Y-103818444D01*
X91962179Y-103914951D01*
X91790213Y-104039890D01*
X91639890Y-104190213D01*
X91514949Y-104362182D01*
X91510484Y-104370946D01*
X91462509Y-104421742D01*
X91394688Y-104438536D01*
X91328553Y-104415998D01*
X91289516Y-104370946D01*
X91285050Y-104362182D01*
X91160109Y-104190213D01*
X91009786Y-104039890D01*
X90837820Y-103914951D01*
X90648414Y-103818444D01*
X90648413Y-103818443D01*
X90648412Y-103818443D01*
X90446243Y-103752754D01*
X90446241Y-103752753D01*
X90446240Y-103752753D01*
X90284957Y-103727208D01*
X90236287Y-103719500D01*
X90023713Y-103719500D01*
X89975042Y-103727208D01*
X89813760Y-103752753D01*
X89611585Y-103818444D01*
X89422179Y-103914951D01*
X89250213Y-104039890D01*
X89099890Y-104190213D01*
X88974949Y-104362182D01*
X88970484Y-104370946D01*
X88922509Y-104421742D01*
X88854688Y-104438536D01*
X88788553Y-104415998D01*
X88749516Y-104370946D01*
X88745050Y-104362182D01*
X88620109Y-104190213D01*
X88469786Y-104039890D01*
X88297820Y-103914951D01*
X88108414Y-103818444D01*
X88108413Y-103818443D01*
X88108412Y-103818443D01*
X87906243Y-103752754D01*
X87906241Y-103752753D01*
X87906240Y-103752753D01*
X87744957Y-103727208D01*
X87696287Y-103719500D01*
X87483713Y-103719500D01*
X87435042Y-103727208D01*
X87273760Y-103752753D01*
X87071585Y-103818444D01*
X86882179Y-103914951D01*
X86710215Y-104039889D01*
X86596285Y-104153819D01*
X86534962Y-104187303D01*
X86465270Y-104182319D01*
X86409337Y-104140447D01*
X86392422Y-104109470D01*
X86343354Y-103977913D01*
X86343350Y-103977906D01*
X86257190Y-103862812D01*
X86257187Y-103862809D01*
X86142093Y-103776649D01*
X86142086Y-103776645D01*
X86007379Y-103726403D01*
X86007372Y-103726401D01*
X85947844Y-103720000D01*
X85300000Y-103720000D01*
X85300000Y-104625439D01*
X85246853Y-104594755D01*
X85117143Y-104560000D01*
X84982857Y-104560000D01*
X84853147Y-104594755D01*
X84800000Y-104625439D01*
X84800000Y-103720000D01*
X84152155Y-103720000D01*
X84092627Y-103726401D01*
X84092620Y-103726403D01*
X83957913Y-103776645D01*
X83957906Y-103776649D01*
X83842812Y-103862809D01*
X83842809Y-103862812D01*
X83756649Y-103977906D01*
X83756646Y-103977912D01*
X83707577Y-104109471D01*
X83665705Y-104165404D01*
X83600241Y-104189821D01*
X83531968Y-104174969D01*
X83503714Y-104153818D01*
X83389786Y-104039890D01*
X83217820Y-103914951D01*
X83028414Y-103818444D01*
X83028413Y-103818443D01*
X83028412Y-103818443D01*
X82826243Y-103752754D01*
X82826241Y-103752753D01*
X82826240Y-103752753D01*
X82664957Y-103727208D01*
X82616287Y-103719500D01*
X82403713Y-103719500D01*
X82355042Y-103727208D01*
X82193760Y-103752753D01*
X81991585Y-103818444D01*
X81802179Y-103914951D01*
X81630213Y-104039890D01*
X81479890Y-104190213D01*
X81354949Y-104362182D01*
X81350484Y-104370946D01*
X81302509Y-104421742D01*
X81234688Y-104438536D01*
X81168553Y-104415998D01*
X81129516Y-104370946D01*
X81125050Y-104362182D01*
X81000109Y-104190213D01*
X80849786Y-104039890D01*
X80677820Y-103914951D01*
X80488414Y-103818444D01*
X80488413Y-103818443D01*
X80488412Y-103818443D01*
X80286243Y-103752754D01*
X80286241Y-103752753D01*
X80286240Y-103752753D01*
X80124957Y-103727208D01*
X80076287Y-103719500D01*
X79863713Y-103719500D01*
X79815042Y-103727208D01*
X79653760Y-103752753D01*
X79451585Y-103818444D01*
X79262179Y-103914951D01*
X79090213Y-104039890D01*
X78939890Y-104190213D01*
X78814951Y-104362179D01*
X78718444Y-104551585D01*
X78652753Y-104753760D01*
X78619500Y-104963713D01*
X78100500Y-104963713D01*
X78100500Y-94626779D01*
X79587500Y-94626779D01*
X79587500Y-94843220D01*
X79621357Y-95056981D01*
X79688235Y-95262814D01*
X79688236Y-95262817D01*
X79786496Y-95455660D01*
X79829329Y-95514615D01*
X79829330Y-95514616D01*
X80483619Y-94860326D01*
X80501234Y-94926063D01*
X80566402Y-95038937D01*
X80658563Y-95131098D01*
X80771437Y-95196266D01*
X80837172Y-95213880D01*
X80182882Y-95868168D01*
X80241842Y-95911005D01*
X80434682Y-96009263D01*
X80434685Y-96009264D01*
X80640518Y-96076142D01*
X80854280Y-96110000D01*
X81070720Y-96110000D01*
X81284481Y-96076142D01*
X81490314Y-96009264D01*
X81490317Y-96009263D01*
X81683157Y-95911005D01*
X81705114Y-95895053D01*
X81770920Y-95871573D01*
X81838974Y-95887398D01*
X81887669Y-95937503D01*
X81902000Y-95995371D01*
X81902000Y-96107026D01*
X81932249Y-96298013D01*
X81940179Y-96348076D01*
X82015596Y-96580185D01*
X82125788Y-96796450D01*
X82126396Y-96797642D01*
X82269839Y-96995076D01*
X82269843Y-96995081D01*
X82442418Y-97167656D01*
X82442423Y-97167660D01*
X82544882Y-97242100D01*
X82639861Y-97311106D01*
X82857315Y-97421904D01*
X83089424Y-97497321D01*
X83330473Y-97535500D01*
X83330474Y-97535500D01*
X83574526Y-97535500D01*
X83574527Y-97535500D01*
X83815576Y-97497321D01*
X84047685Y-97421904D01*
X84265139Y-97311106D01*
X84462583Y-97167655D01*
X84635155Y-96995083D01*
X84778606Y-96797639D01*
X84889404Y-96580185D01*
X84964821Y-96348076D01*
X85003000Y-96107027D01*
X85003000Y-95862973D01*
X84964821Y-95621924D01*
X84889404Y-95389815D01*
X84778606Y-95172361D01*
X84737474Y-95115747D01*
X84635160Y-94974923D01*
X84635156Y-94974918D01*
X84462581Y-94802343D01*
X84462576Y-94802339D01*
X84265142Y-94658896D01*
X84265141Y-94658895D01*
X84265139Y-94658894D01*
X84047685Y-94548096D01*
X83815576Y-94472679D01*
X83815574Y-94472678D01*
X83815572Y-94472678D01*
X83647269Y-94446021D01*
X83574527Y-94434500D01*
X83330473Y-94434500D01*
X83274593Y-94443350D01*
X83089427Y-94472678D01*
X82857312Y-94548097D01*
X82639861Y-94658893D01*
X82534385Y-94735526D01*
X82468578Y-94759005D01*
X82400524Y-94743179D01*
X82351830Y-94693073D01*
X82337500Y-94635207D01*
X82337500Y-94626779D01*
X82303642Y-94413018D01*
X82236764Y-94207185D01*
X82236763Y-94207182D01*
X82138505Y-94014342D01*
X82095668Y-93955383D01*
X82095668Y-93955382D01*
X81441380Y-94609672D01*
X81423766Y-94543937D01*
X81358598Y-94431063D01*
X81266437Y-94338902D01*
X81153563Y-94273734D01*
X81087826Y-94256119D01*
X81742116Y-93601830D01*
X81742115Y-93601829D01*
X81683160Y-93558996D01*
X81490317Y-93460736D01*
X81490314Y-93460735D01*
X81284481Y-93393857D01*
X81070720Y-93360000D01*
X80854280Y-93360000D01*
X80640518Y-93393857D01*
X80434685Y-93460735D01*
X80434682Y-93460736D01*
X80241846Y-93558992D01*
X80182883Y-93601830D01*
X80837173Y-94256119D01*
X80771437Y-94273734D01*
X80658563Y-94338902D01*
X80566402Y-94431063D01*
X80501234Y-94543937D01*
X80483619Y-94609672D01*
X79829330Y-93955383D01*
X79786492Y-94014346D01*
X79688236Y-94207182D01*
X79688235Y-94207185D01*
X79621357Y-94413018D01*
X79587500Y-94626779D01*
X78100500Y-94626779D01*
X78100500Y-90126746D01*
X79587000Y-90126746D01*
X79587000Y-90343253D01*
X79620870Y-90557098D01*
X79687772Y-90763006D01*
X79687773Y-90763009D01*
X79777674Y-90939447D01*
X79786067Y-90955919D01*
X79913328Y-91131078D01*
X80066422Y-91284172D01*
X80241581Y-91411433D01*
X80316800Y-91449759D01*
X80434490Y-91509726D01*
X80434493Y-91509727D01*
X80537447Y-91543178D01*
X80640403Y-91576630D01*
X80854246Y-91610500D01*
X80854247Y-91610500D01*
X81070753Y-91610500D01*
X81070754Y-91610500D01*
X81284597Y-91576630D01*
X81490509Y-91509726D01*
X81683419Y-91411433D01*
X81858578Y-91284172D01*
X82011672Y-91131078D01*
X82138933Y-90955919D01*
X82237226Y-90763009D01*
X82304130Y-90557097D01*
X82338000Y-90343254D01*
X82338000Y-90325155D01*
X82357685Y-90258116D01*
X82410489Y-90212361D01*
X82479647Y-90202417D01*
X82534885Y-90224837D01*
X82639861Y-90301106D01*
X82857315Y-90411904D01*
X83089424Y-90487321D01*
X83330473Y-90525500D01*
X83330474Y-90525500D01*
X83574526Y-90525500D01*
X83574527Y-90525500D01*
X83815576Y-90487321D01*
X84047685Y-90411904D01*
X84265139Y-90301106D01*
X84462583Y-90157655D01*
X84635155Y-89985083D01*
X84778606Y-89787639D01*
X84889404Y-89570185D01*
X84964821Y-89338076D01*
X85003000Y-89097027D01*
X85003000Y-88852973D01*
X84964821Y-88611924D01*
X84889404Y-88379815D01*
X84778606Y-88162361D01*
X84732935Y-88099500D01*
X84635160Y-87964923D01*
X84635156Y-87964918D01*
X84462581Y-87792343D01*
X84462576Y-87792339D01*
X84265142Y-87648896D01*
X84265141Y-87648895D01*
X84265139Y-87648894D01*
X84047685Y-87538096D01*
X83815576Y-87462679D01*
X83815574Y-87462678D01*
X83815572Y-87462678D01*
X83647269Y-87436021D01*
X83574527Y-87424500D01*
X83330473Y-87424500D01*
X83274593Y-87433350D01*
X83089427Y-87462678D01*
X82857312Y-87538097D01*
X82639857Y-87648896D01*
X82442423Y-87792339D01*
X82442418Y-87792343D01*
X82269843Y-87964918D01*
X82269839Y-87964923D01*
X82126396Y-88162357D01*
X82015597Y-88379812D01*
X82015596Y-88379814D01*
X82015596Y-88379815D01*
X82000602Y-88425961D01*
X81940178Y-88611927D01*
X81902000Y-88852973D01*
X81902000Y-88974011D01*
X81882315Y-89041050D01*
X81829511Y-89086805D01*
X81760353Y-89096749D01*
X81705116Y-89074330D01*
X81683421Y-89058568D01*
X81490509Y-88960273D01*
X81490506Y-88960272D01*
X81284598Y-88893370D01*
X81177675Y-88876435D01*
X81070754Y-88859500D01*
X80854246Y-88859500D01*
X80782965Y-88870790D01*
X80640401Y-88893370D01*
X80434493Y-88960272D01*
X80434490Y-88960273D01*
X80241580Y-89058567D01*
X80141645Y-89131174D01*
X80066422Y-89185828D01*
X80066420Y-89185830D01*
X80066419Y-89185830D01*
X79913330Y-89338919D01*
X79913330Y-89338920D01*
X79913328Y-89338922D01*
X79858674Y-89414145D01*
X79786067Y-89514080D01*
X79687773Y-89706990D01*
X79687772Y-89706993D01*
X79620870Y-89912901D01*
X79587000Y-90126746D01*
X78100500Y-90126746D01*
X78100500Y-86411304D01*
X94599500Y-86411304D01*
X94599500Y-86588695D01*
X94634103Y-86762658D01*
X94634106Y-86762667D01*
X94701983Y-86926540D01*
X94701990Y-86926553D01*
X94800535Y-87074034D01*
X94800538Y-87074038D01*
X94925961Y-87199461D01*
X94925965Y-87199464D01*
X95073446Y-87298009D01*
X95073459Y-87298016D01*
X95151097Y-87330174D01*
X95237334Y-87365894D01*
X95237336Y-87365894D01*
X95237341Y-87365896D01*
X95411304Y-87400499D01*
X95411307Y-87400500D01*
X95411309Y-87400500D01*
X95588693Y-87400500D01*
X95588694Y-87400499D01*
X95646682Y-87388964D01*
X95762658Y-87365896D01*
X95762661Y-87365894D01*
X95762666Y-87365894D01*
X95926547Y-87298013D01*
X95926550Y-87298010D01*
X95926552Y-87298010D01*
X95966378Y-87271399D01*
X96033055Y-87250520D01*
X96035270Y-87250500D01*
X109137770Y-87250500D01*
X109204809Y-87270185D01*
X109225451Y-87286819D01*
X112989782Y-91051149D01*
X113023267Y-91112472D01*
X113023718Y-91114638D01*
X113033063Y-91161619D01*
X113033066Y-91161629D01*
X113100942Y-91325499D01*
X113100949Y-91325512D01*
X113199494Y-91472993D01*
X113199497Y-91472997D01*
X113324920Y-91598420D01*
X113324924Y-91598423D01*
X113472405Y-91696968D01*
X113472418Y-91696975D01*
X113569872Y-91737341D01*
X113636293Y-91764853D01*
X113636295Y-91764853D01*
X113636300Y-91764855D01*
X113810263Y-91799458D01*
X113810266Y-91799459D01*
X113810268Y-91799459D01*
X113987652Y-91799459D01*
X113987653Y-91799458D01*
X114045641Y-91787923D01*
X114161617Y-91764855D01*
X114161620Y-91764853D01*
X114161625Y-91764853D01*
X114325506Y-91696972D01*
X114472994Y-91598423D01*
X114598423Y-91472994D01*
X114696972Y-91325506D01*
X114764853Y-91161625D01*
X114770930Y-91131078D01*
X114799458Y-90987654D01*
X114799459Y-90987652D01*
X114799459Y-90810265D01*
X114799458Y-90810263D01*
X114764855Y-90636300D01*
X114764852Y-90636291D01*
X114696975Y-90472418D01*
X114696968Y-90472405D01*
X114598423Y-90324924D01*
X114598420Y-90324920D01*
X114472997Y-90199497D01*
X114472993Y-90199494D01*
X114325512Y-90100949D01*
X114325499Y-90100942D01*
X114161629Y-90033066D01*
X114161619Y-90033063D01*
X114114638Y-90023718D01*
X114052727Y-89991333D01*
X114051149Y-89989782D01*
X110307687Y-86246319D01*
X109978413Y-85917045D01*
X109928497Y-85883694D01*
X109895219Y-85861459D01*
X109855495Y-85834916D01*
X109855494Y-85834915D01*
X109855492Y-85834914D01*
X109855490Y-85834913D01*
X109718917Y-85778343D01*
X109718907Y-85778340D01*
X109573920Y-85749500D01*
X109573918Y-85749500D01*
X96035270Y-85749500D01*
X95968231Y-85729815D01*
X95966378Y-85728601D01*
X95926552Y-85701989D01*
X95926547Y-85701987D01*
X95762667Y-85634106D01*
X95762658Y-85634103D01*
X95588694Y-85599500D01*
X95588691Y-85599500D01*
X95411309Y-85599500D01*
X95411306Y-85599500D01*
X95237341Y-85634103D01*
X95237332Y-85634106D01*
X95073459Y-85701983D01*
X95073446Y-85701990D01*
X94925965Y-85800535D01*
X94925961Y-85800538D01*
X94800538Y-85925961D01*
X94800535Y-85925965D01*
X94701990Y-86073446D01*
X94701983Y-86073459D01*
X94634106Y-86237332D01*
X94634103Y-86237341D01*
X94599500Y-86411304D01*
X78100500Y-86411304D01*
X78100500Y-79124000D01*
X78120185Y-79056961D01*
X78172989Y-79011206D01*
X78224500Y-79000000D01*
X177876000Y-79000000D01*
X177943039Y-79019685D01*
G37*
G04 #@! TD.AperFunction*
G04 #@! TA.AperFunction,Conductor*
G36*
X177519250Y-97350698D02*
G01*
X177519250Y-97350697D01*
X177593442Y-97248581D01*
X177593446Y-97248575D01*
X177707780Y-97024184D01*
X177758069Y-96869410D01*
X177797506Y-96811735D01*
X177861865Y-96784536D01*
X177930711Y-96796450D01*
X177982187Y-96843694D01*
X178000000Y-96907728D01*
X178000000Y-101012271D01*
X177980315Y-101079310D01*
X177927511Y-101125065D01*
X177858353Y-101135009D01*
X177794797Y-101105984D01*
X177758069Y-101050589D01*
X177707780Y-100895815D01*
X177593442Y-100671416D01*
X177519250Y-100569301D01*
X177519250Y-100569300D01*
X176864309Y-101224241D01*
X176845332Y-101178426D01*
X176768726Y-101063776D01*
X176671224Y-100966274D01*
X176556574Y-100889668D01*
X176510756Y-100870689D01*
X177165698Y-100215748D01*
X177063583Y-100141557D01*
X176839184Y-100027219D01*
X176599669Y-99949397D01*
X176350928Y-99910000D01*
X176099072Y-99910000D01*
X175850330Y-99949397D01*
X175610815Y-100027219D01*
X175505752Y-100080752D01*
X175437083Y-100093648D01*
X175372342Y-100067372D01*
X175332085Y-100010265D01*
X175326274Y-99969340D01*
X175325500Y-99969340D01*
X175325500Y-97950660D01*
X175326764Y-97950660D01*
X175342150Y-97887593D01*
X175392780Y-97839443D01*
X175461404Y-97826309D01*
X175505753Y-97839248D01*
X175610813Y-97892779D01*
X175610812Y-97892779D01*
X175850330Y-97970602D01*
X176099072Y-98010000D01*
X176350928Y-98010000D01*
X176599669Y-97970602D01*
X176839184Y-97892780D01*
X177063575Y-97778446D01*
X177063581Y-97778442D01*
X177165697Y-97704250D01*
X177165698Y-97704250D01*
X176510756Y-97049309D01*
X176556574Y-97030332D01*
X176671224Y-96953726D01*
X176768726Y-96856224D01*
X176845332Y-96741574D01*
X176864309Y-96695757D01*
X177519250Y-97350698D01*
G37*
G04 #@! TD.AperFunction*
M02*
