M48
; DRILL file {KiCad 9.0.6} date 2025-12-21T12:29:56+0800
; FORMAT={-:-/ absolute / metric / decimal}
; #@! TF.CreationDate,2025-12-21T12:29:56+08:00
; #@! TF.GenerationSoftware,Kicad,Pcbnew,9.0.6
; #@! TF.FileFunction,Plated,1,2,PTH
FMAT,2
METRIC
; #@! TA.AperFunction,Plated,PTH,ViaDrill
T1C0.400
; #@! TA.AperFunction,Plated,PTH,ComponentDrill
T2C0.800
; #@! TA.AperFunction,Plated,PTH,ComponentDrill
T3C0.990
; #@! TA.AperFunction,Plated,PTH,ComponentDrill
T4C1.000
; #@! TA.AperFunction,Plated,PTH,ComponentDrill
T5C1.020
; #@! TA.AperFunction,Plated,PTH,ComponentDrill
T6C1.200
; #@! TA.AperFunction,Plated,PTH,ComponentDrill
T7C1.300
; #@! TA.AperFunction,Plated,PTH,ComponentDrill
T8C1.400
; #@! TA.AperFunction,Plated,PTH,ComponentDrill
T9C1.500
; #@! TA.AperFunction,Plated,PTH,ComponentDrill
T10C3.200
%
G90
G05
T1
X80.0Y-107.5
X80.0Y-120.0
X83.53Y-128.47
X84.0Y-107.5
X86.5Y-120.0
X87.0Y-139.5
X87.0Y-143.0
X87.0Y-146.0
X88.0Y-107.5
X89.5Y-139.5
X89.5Y-143.0
X89.5Y-146.0
X92.0Y-139.5
X92.0Y-143.0
X92.0Y-146.0
X92.5Y-107.5
X93.0Y-130.5
X93.5Y-112.5
X93.5Y-115.0
X93.5Y-120.0
X95.0Y-137.5
X95.5Y-86.5
X96.5Y-112.5
X96.5Y-115.0
X97.0Y-107.5
X99.5Y-112.5
X99.5Y-115.0
X100.0Y-120.0
X101.0Y-146.5
X104.0Y-108.0
X105.0Y-146.5
X106.5Y-112.0
X106.5Y-116.0
X106.5Y-120.0
X108.5Y-146.5
X111.0Y-140.0
X111.5Y-138.5
X112.0Y-146.5
X113.0Y-120.0
X113.5Y-112.0
X113.5Y-116.0
X113.899Y-90.899
X115.5Y-146.5
X118.0Y-107.5
X119.0Y-120.0
X119.0Y-142.5
X119.5Y-146.5
X120.5Y-109.0
X123.0Y-110.5
X123.0Y-131.5
X123.0Y-139.5
X123.5Y-107.5
X125.5Y-109.0
X125.5Y-120.0
X131.0Y-94.0
X131.0Y-145.0
X133.0Y-87.5
X133.0Y-99.0
X133.0Y-103.0
X133.0Y-106.5
X133.0Y-110.5
X133.0Y-114.5
X133.0Y-118.0
X133.5Y-94.0
X135.0Y-85.5
X136.5Y-94.0
X137.5Y-85.5
X139.0Y-96.0
X139.5Y-98.5
X140.5Y-89.0
X140.5Y-126.0
X140.5Y-142.0
X141.207Y-125.293
X141.489Y-133.933
X141.5Y-107.0
X141.5Y-132.0
X142.0Y-96.0
X142.0Y-129.0
X142.0Y-133.0
X142.145Y-124.946
X142.5Y-92.325
X143.5Y-122.4
X144.0Y-107.5
X144.0Y-116.5
X144.0Y-131.5
X144.0Y-132.5
X144.5Y-98.5
X144.5Y-122.0
X145.191Y-123.15
X145.496Y-116.06
X145.5Y-93.0
X145.5Y-96.0
X146.0Y-107.0
X146.5Y-139.0
X147.135Y-90.365
X149.0Y-131.0
X149.5Y-108.0
X150.0Y-82.0
X150.0Y-111.5
X150.5Y-121.0
X152.0Y-110.0
X152.0Y-135.0
X152.5Y-100.0
X153.5Y-125.5
X153.5Y-128.0
X153.5Y-131.0
X154.5Y-92.0
X155.5Y-111.0
X155.5Y-139.5
X155.5Y-143.0
X155.5Y-147.0
X157.0Y-127.5
X157.5Y-82.0
X159.0Y-103.0
X159.0Y-105.5
X159.5Y-95.5
X161.0Y-139.5
X161.0Y-143.0
X161.0Y-147.0
X161.5Y-122.0
X163.0Y-82.0
X163.0Y-103.0
X163.0Y-105.5
X163.5Y-91.0
X165.0Y-122.0
X167.0Y-99.0
X167.0Y-103.0
X167.0Y-139.5
X167.0Y-143.0
X167.0Y-147.0
X168.5Y-82.0
X170.0Y-122.0
X173.5Y-122.0
X176.0Y-88.0
X176.5Y-93.5
X176.5Y-122.0
T2
X160.895Y-130.46
X163.395Y-130.46
T3
X80.962Y-90.235
X80.962Y-94.735
X80.962Y-133.735
X80.962Y-138.235
T4
X116.29Y-85.96
X118.83Y-85.96
X121.37Y-85.96
X123.91Y-85.96
X161.1Y-109.46
X161.1Y-111.96
X161.1Y-114.46
X173.325Y-139.46
X175.6Y-109.46
X175.6Y-114.46
X175.865Y-139.46
T5
X79.97Y-105.07
X79.97Y-122.85
X82.51Y-105.07
X82.51Y-122.85
X85.05Y-105.07
X85.05Y-122.85
X87.59Y-105.07
X87.59Y-122.85
X90.13Y-105.07
X90.13Y-122.85
X92.67Y-105.07
X92.67Y-122.85
X95.21Y-105.07
X95.21Y-122.85
X97.75Y-105.07
X97.75Y-122.85
X100.29Y-105.07
X100.29Y-122.85
X102.83Y-105.07
X102.83Y-122.85
X105.37Y-105.07
X105.37Y-122.85
X107.91Y-105.07
X107.91Y-122.85
X110.45Y-105.07
X110.45Y-122.85
X112.99Y-105.07
X112.99Y-122.85
X115.53Y-105.07
X115.53Y-122.85
X118.07Y-105.07
X118.07Y-122.85
X120.61Y-105.07
X120.61Y-122.85
X123.15Y-105.07
X123.15Y-122.85
X125.69Y-105.07
X125.69Y-122.85
X128.0Y-111.42
X128.0Y-113.96
X128.0Y-116.5
X128.23Y-105.07
X128.23Y-122.85
T6
X169.6Y-125.46
X169.6Y-128.46
X169.6Y-132.46
X169.6Y-135.46
X174.6Y-130.46
T7
X83.453Y-88.975
X83.453Y-95.985
X83.453Y-132.475
X83.453Y-139.485
T8
X171.125Y-96.41
X171.125Y-101.51
X173.675Y-98.96
X176.225Y-96.41
X176.225Y-101.51
T10
X81.6Y-82.46
X81.6Y-145.46
X174.6Y-82.46
X174.6Y-145.46
T9
G00X167.95Y-106.36
M15
G01X169.25Y-106.36
M16
G05
G00X167.95Y-117.56
M15
G01X169.25Y-117.56
M16
G05
M30
