G04 #@! TF.GenerationSoftware,KiCad,Pcbnew,9.0.6*
G04 #@! TF.CreationDate,2025-12-21T12:29:53+08:00*
G04 #@! TF.ProjectId,pico_rx,7069636f-5f72-4782-9e6b-696361645f70,rev?*
G04 #@! TF.SameCoordinates,Original*
G04 #@! TF.FileFunction,Legend,Bot*
G04 #@! TF.FilePolarity,Positive*
%FSLAX46Y46*%
G04 Gerber Fmt 4.6, Leading zero omitted, Abs format (unit mm)*
G04 Created by KiCad (PCBNEW 9.0.6) date 2025-12-21 12:29:53*
%MOMM*%
%LPD*%
G01*
G04 APERTURE LIST*
G04 Aperture macros list*
%AMRoundRect*
0 Rectangle with rounded corners*
0 $1 Rounding radius*
0 $2 $3 $4 $5 $6 $7 $8 $9 X,Y pos of 4 corners*
0 Add a 4 corners polygon primitive as box body*
4,1,4,$2,$3,$4,$5,$6,$7,$8,$9,$2,$3,0*
0 Add four circle primitives for the rounded corners*
1,1,$1+$1,$2,$3*
1,1,$1+$1,$4,$5*
1,1,$1+$1,$6,$7*
1,1,$1+$1,$8,$9*
0 Add four rect primitives between the rounded corners*
20,1,$1+$1,$2,$3,$4,$5,0*
20,1,$1+$1,$4,$5,$6,$7,0*
20,1,$1+$1,$6,$7,$8,$9,0*
20,1,$1+$1,$8,$9,$2,$3,0*%
G04 Aperture macros list end*
%ADD10C,2.000000*%
%ADD11R,1.700000X1.700000*%
%ADD12O,1.700000X1.700000*%
%ADD13C,6.400000*%
%ADD14C,2.100000*%
%ADD15C,1.750000*%
%ADD16O,1.800000X1.800000*%
%ADD17O,1.500000X1.500000*%
%ADD18RoundRect,0.200100X-0.949900X0.949900X-0.949900X-0.949900X0.949900X-0.949900X0.949900X0.949900X0*%
%ADD19C,2.200000*%
%ADD20RoundRect,0.250000X-0.550000X-0.550000X0.550000X-0.550000X0.550000X0.550000X-0.550000X0.550000X0*%
%ADD21C,1.600000*%
%ADD22R,2.000000X2.000000*%
%ADD23R,3.200000X2.000000*%
%ADD24C,1.700000*%
G04 APERTURE END LIST*
%LPC*%
D10*
X174600000Y-130460000D03*
X169600000Y-135460000D03*
X169600000Y-132460000D03*
X169600000Y-125460000D03*
X169600000Y-128460000D03*
D11*
X116290000Y-85960000D03*
D12*
X118830000Y-85960000D03*
X121370000Y-85960000D03*
X123910000Y-85960000D03*
D13*
X174600000Y-82460000D03*
D14*
X83452500Y-95985000D03*
X83452500Y-88975000D03*
D15*
X80962500Y-94735000D03*
X80962500Y-90235000D03*
D16*
X80100000Y-116685000D03*
D17*
X83130000Y-116385000D03*
X83130000Y-111535000D03*
D16*
X80100000Y-111235000D03*
D12*
X79970000Y-122850000D03*
X82510000Y-122850000D03*
D11*
X85050000Y-122850000D03*
D12*
X87590000Y-122850000D03*
X90130000Y-122850000D03*
X92670000Y-122850000D03*
X95210000Y-122850000D03*
D11*
X97750000Y-122850000D03*
D12*
X100290000Y-122850000D03*
X102830000Y-122850000D03*
X105370000Y-122850000D03*
X107910000Y-122850000D03*
D11*
X110450000Y-122850000D03*
D12*
X112990000Y-122850000D03*
X115530000Y-122850000D03*
X118070000Y-122850000D03*
X120610000Y-122850000D03*
D11*
X123150000Y-122850000D03*
D12*
X125690000Y-122850000D03*
X128230000Y-122850000D03*
X128230000Y-105070000D03*
X125690000Y-105070000D03*
D11*
X123150000Y-105070000D03*
D12*
X120610000Y-105070000D03*
X118070000Y-105070000D03*
X115530000Y-105070000D03*
X112990000Y-105070000D03*
D11*
X110450000Y-105070000D03*
D12*
X107910000Y-105070000D03*
X105370000Y-105070000D03*
X102830000Y-105070000D03*
X100290000Y-105070000D03*
D11*
X97750000Y-105070000D03*
D12*
X95210000Y-105070000D03*
X92670000Y-105070000D03*
X90130000Y-105070000D03*
X87590000Y-105070000D03*
D11*
X85050000Y-105070000D03*
D12*
X82510000Y-105070000D03*
X79970000Y-105070000D03*
X128000000Y-116500000D03*
D11*
X128000000Y-113960000D03*
D12*
X128000000Y-111420000D03*
D18*
X173675000Y-98960000D03*
D19*
X176225000Y-96410000D03*
X171125000Y-96410000D03*
X176225000Y-101510000D03*
X171125000Y-101510000D03*
D14*
X83452500Y-139485000D03*
X83452500Y-132475000D03*
D15*
X80962500Y-138235000D03*
X80962500Y-133735000D03*
D20*
X160894888Y-130460000D03*
D21*
X163394888Y-130460000D03*
D13*
X81600000Y-82460000D03*
D22*
X161100000Y-109460000D03*
D10*
X161100000Y-114460000D03*
X161100000Y-111960000D03*
D23*
X168600000Y-106360000D03*
X168600000Y-117560000D03*
D10*
X175600000Y-114460000D03*
X175600000Y-109460000D03*
D11*
X173325000Y-139460000D03*
D24*
X175865000Y-139460000D03*
D13*
X174600000Y-145460000D03*
X81600000Y-145460000D03*
%LPD*%
M02*
